<svg width="225" height="126" viewBox="0 0 225 126" fill="none" xmlns="http://www.w3.org/2000/svg">
<g opacity="0.5">
<path d="M224.455 125.924H58.8943L29.9604 5.78516H195.521L224.455 125.924Z" fill="#A6A6A6"/>
<path d="M0.54541 125.924H166.106L195.04 5.78516H29.4793L0.54541 125.924Z" fill="#DBDBDB"/>
<path d="M171.033 28.3594L167.342 43.7061L167.119 44.6502L163.299 60.5892L163.076 61.5333L159.257 77.4551L159.025 78.3993L155.197 94.3296L154.974 95.2823L151.231 110.887H29.6851L33.4273 95.2823L33.6505 94.3296L37.4786 78.3993L37.7103 77.4551L41.5298 61.5333L41.7616 60.5892L45.5811 44.6502L45.8042 43.7061L49.495 28.3594H171.033Z" fill="white"/>
<path d="M67.2962 28.3594L63.6054 43.7061L63.3822 44.6502L59.5627 60.5892L59.3396 61.5333L55.5201 77.4551L55.2883 78.3993L51.4688 94.3296L51.2371 95.2823L47.4948 110.887H46.5249L50.2757 95.2823L50.4989 94.3296L54.3184 78.3993L54.5502 77.4551L58.3611 61.5333L58.5928 60.5892L62.4209 44.6502L62.6441 43.7061L66.3177 28.3594H67.2962Z" fill="#EBEBEB"/>
<path d="M84.6096 28.3594L80.9189 43.7061L80.6957 44.6502L76.8762 60.5892L76.653 61.5333L72.8335 77.4551L72.6018 78.3993L68.7823 94.3296L68.5505 95.2823L64.8083 110.887H63.8384L67.5892 95.2823L67.8124 94.3296L71.6319 78.3993L71.8636 77.4551L75.6746 61.5333L75.9063 60.5892L79.7344 44.6502L79.9576 43.7061L83.6312 28.3594H84.6096Z" fill="#EBEBEB"/>
<path d="M101.929 28.3594L98.2468 43.7061L98.0151 44.6502L94.1956 60.5892L93.9724 61.5333L90.1529 77.4551L89.9297 78.3993L86.1016 94.3296L85.8699 95.2823L82.1276 110.887H81.1577L84.9086 95.2823L85.1403 94.3296L88.9512 78.3993L89.183 77.4551L93.0025 61.5333L93.2256 60.5892L97.0537 44.6502L97.2769 43.7061L100.959 28.3594H101.929Z" fill="#EBEBEB"/>
<path d="M119.241 28.3594L115.559 43.7061L115.328 44.6502L111.508 60.5892L111.285 61.5333L107.465 77.4551L107.242 78.3993L103.414 94.3296L103.182 95.2823L99.4401 110.887H98.4702L102.221 95.2823L102.453 94.3296L106.264 78.3993L106.495 77.4551L110.315 61.5333L110.538 60.5892L114.366 44.6502L114.589 43.7061L118.272 28.3594H119.241Z" fill="#EBEBEB"/>
<path d="M136.563 28.3594L132.881 43.7061L132.649 44.6502L128.838 60.5892L128.606 61.5333L124.787 77.4551L124.564 78.3993L120.735 94.3296L120.512 95.2823L116.77 110.887H115.792L119.542 95.2823L119.774 94.3296L123.594 78.3993L123.817 77.4551L127.636 61.5333L127.859 60.5892L131.688 44.6502L131.911 43.7061L135.593 28.3594H136.563Z" fill="#EBEBEB"/>
<path d="M153.875 28.3594L150.193 43.7061L149.961 44.6502L146.15 60.5892L145.919 61.5333L142.099 77.4551L141.876 78.3993L138.048 94.3296L137.825 95.2823L134.082 110.887H133.104L136.855 95.2823L137.087 94.3296L140.906 78.3993L141.129 77.4551L144.949 61.5333L145.172 60.5892L149 44.6502L149.232 43.7061L152.905 28.3594H153.875Z" fill="#EBEBEB"/>
<path d="M167.342 43.707L167.119 44.6512H45.5815L45.8047 43.707H167.342Z" fill="#EBEBEB"/>
<path d="M163.299 60.5898L163.076 61.534H41.5298L41.7615 60.5898H163.299Z" fill="#EBEBEB"/>
<path d="M159.257 77.4551L159.025 78.3992H37.479L37.7108 77.4551H159.257Z" fill="#EBEBEB"/>
<path d="M155.198 94.3301L154.974 95.2828H33.4282L33.6514 94.3301H155.198Z" fill="#EBEBEB"/>
<path d="M61.013 62.0553L59.1899 63.5273L69.7695 76.6294L71.5926 75.1573L61.013 62.0553Z" fill="#C7C7C7"/>
<path d="M71.7845 61.9244L57.144 75.2695L58.7225 77.0012L73.363 63.6561L71.7845 61.9244Z" fill="#C7C7C7"/>
<path d="M99.4349 45.6353L97.6118 47.1074L108.191 60.2095L110.014 58.7374L99.4349 45.6353Z" fill="#C7C7C7"/>
<path d="M110.21 45.5103L95.5698 58.8555L97.1483 60.5872L111.789 47.2421L110.21 45.5103Z" fill="#C7C7C7"/>
<path d="M50.9635 60.2962L46.4917 52.4769L48.5259 51.3096L51.324 56.202L61.5208 43.9023L63.3233 45.3958L50.9635 60.2962Z" fill="#4B64EF"/>
<path d="M72.6012 109.993L68.1294 102.174L70.1636 101.007L72.9531 105.899L83.1499 93.5996L84.9524 95.0931L72.6012 109.993Z" fill="#4B64EF"/>
<path d="M134.134 62.2461C131.966 63.4381 129.968 64.9162 128.194 66.6407C126.477 68.3573 124.975 70.443 124.761 72.7862C124.672 73.332 124.697 73.89 124.833 74.4259C124.968 74.9618 125.213 75.4642 125.55 75.9019C126.342 76.7233 127.361 77.2884 128.477 77.5241C130.828 78.0173 133.261 77.9556 135.584 77.3439C137.934 76.8445 140.139 75.814 142.03 74.3312C142.948 73.5965 143.709 72.6861 144.27 71.6532C144.828 70.662 145.071 69.5242 144.966 68.3916C144.868 67.8362 144.659 67.3063 144.351 66.8342C144.042 66.362 143.641 65.9575 143.172 65.645C142.186 64.9618 141.074 64.4805 139.902 64.2288C137.496 63.6622 134.99 63.6887 132.597 64.306C134.973 63.4366 137.535 63.1999 140.03 63.6194C141.311 63.8279 142.537 64.292 143.635 64.9841C144.214 65.3445 144.715 65.816 145.11 66.3715C145.505 66.9269 145.785 67.5552 145.935 68.22C146.138 69.5721 145.891 70.9534 145.232 72.1511C144.622 73.3232 143.784 74.362 142.768 75.2067C140.743 76.826 138.383 77.9743 135.86 78.5682C133.336 79.162 130.711 79.1865 128.177 78.6399C126.855 78.3299 125.658 77.6266 124.744 76.6229C124.302 76.0733 124.006 75.4207 123.885 74.726C123.782 74.0576 123.782 73.3774 123.885 72.709C124.28 70.0396 125.988 67.9024 127.842 66.2459C129.73 64.6087 131.85 63.2607 134.134 62.2461Z" fill="#4B64EF"/>
<path d="M63.4945 32.634H50.5854L50.9459 31.0547H63.855L63.4945 32.634Z" fill="#C7C7C7"/>
<path d="M57.5548 35.3285H49.9673L50.3278 33.7578H57.9153L57.5548 35.3285Z" fill="#C7C7C7"/>
<path d="M115.963 82.227H108.11L108.47 80.6562H116.324L115.963 82.227Z" fill="#C7C7C7"/>
<path d="M114.718 87.7309H106.865L107.225 86.1602H115.087L114.718 87.7309Z" fill="#C7C7C7"/>
<path d="M119.8 84.9309H107.483L107.852 83.3516H120.16L119.8 84.9309Z" fill="#C7C7C7"/>
<path d="M136.305 70.0988H128.452L128.812 68.5195H136.674L136.305 70.0988Z" fill="#C7C7C7"/>
<path d="M140.142 72.7953H127.825L128.194 71.2246H140.502L140.142 72.7953Z" fill="#C7C7C7"/>
<path d="M30.8272 40.9685L38.4061 35.3036C39.258 34.6687 39.8644 33.7591 40.1227 32.7286C40.2246 32.3406 40.2444 31.9356 40.1808 31.5395C40.1173 31.1435 39.9718 30.765 39.7537 30.4283C39.4964 30.0634 39.152 29.7686 38.7517 29.5707C38.3515 29.3728 37.9081 29.2782 37.462 29.2953C36.5334 29.2953 35.6299 29.5965 34.887 30.1537L34.0974 30.7459C34.0563 30.7918 34.006 30.8285 33.9498 30.8536C33.8936 30.8787 33.8328 30.8917 33.7712 30.8917C33.7096 30.8917 33.6488 30.8787 33.5926 30.8536C33.5364 30.8285 33.4861 30.7918 33.445 30.7459C33.4128 30.692 33.3917 30.6322 33.3829 30.5699C33.3741 30.5077 33.3778 30.4444 33.3938 30.3837C33.4098 30.3229 33.4377 30.266 33.476 30.2162C33.5143 30.1663 33.5621 30.1247 33.6167 30.0936L34.4064 29.4756C35.3399 28.7687 36.4716 28.3724 37.6422 28.3426C38.2158 28.312 38.7875 28.4303 39.3019 28.686C39.8163 28.9417 40.2557 29.326 40.5777 29.8018C40.8601 30.2296 41.0482 30.7126 41.1296 31.2187C41.211 31.7248 41.1838 32.2424 41.0497 32.7372C40.7169 34.0437 39.9439 35.1956 38.861 35.9988L32.3721 40.8483H38.7151C38.7731 40.8483 38.8304 40.8619 38.8821 40.8882C38.9339 40.9144 38.9787 40.9525 39.013 40.9993C39.0473 41.0462 39.07 41.1004 39.0794 41.1577C39.0888 41.2149 39.0846 41.2736 39.067 41.329C39.0331 41.4558 38.9601 41.5688 38.8585 41.652C38.7568 41.7352 38.6316 41.7843 38.5005 41.7925H30.9559C30.8969 41.7982 30.8375 41.7885 30.7833 41.7645C30.7292 41.7404 30.6822 41.7027 30.6469 41.6551C30.5872 41.5385 30.5726 41.404 30.6058 41.2773C30.6391 41.1506 30.7179 41.0407 30.8272 40.9685Z" fill="#A6A6A6"/>
<path d="M27.0762 58.1105C27.4603 56.377 28.265 54.7646 29.4194 53.4155C29.8876 52.8376 30.4684 52.3609 31.1264 52.0142C31.7845 51.6675 32.506 51.458 33.2474 51.3984C33.8749 51.4072 34.4852 51.6041 34.9994 51.9638C35.5136 52.3234 35.908 52.8291 36.1314 53.4155C36.6917 54.9193 36.7697 56.5603 36.3546 58.1105C35.9573 59.8427 35.1375 61.4498 33.9684 62.7883C33.506 63.3678 32.9304 63.847 32.2766 64.1968C31.6229 64.5465 30.9048 64.7594 30.1661 64.8225C29.5364 64.8136 28.924 64.6146 28.4094 64.2516C27.8947 63.8886 27.5018 63.3786 27.2821 62.7883C26.7238 61.2894 26.6517 59.6527 27.0762 58.1105ZM28.0203 58.1105C27.6422 59.4815 27.6992 60.9361 28.1834 62.2733C28.3467 62.7326 28.6444 63.132 29.0378 63.4198C29.4312 63.7076 29.9021 63.8704 30.3893 63.887C30.9637 63.8254 31.5198 63.6484 32.0242 63.3667C32.5286 63.085 32.9709 62.7044 33.3247 62.2476C34.3527 61.0608 35.0747 59.6404 35.4276 58.1105C35.7946 56.7359 35.7256 55.2813 35.2302 53.9476C35.0747 53.4851 34.7802 53.0819 34.3869 52.7931C33.9936 52.5043 33.5207 52.344 33.0329 52.334C32.4569 52.3833 31.8975 52.5523 31.3906 52.8302C30.8837 53.108 30.4403 53.4886 30.0888 53.9476C29.068 55.1444 28.3576 56.5741 28.0203 58.1105Z" fill="#A6A6A6"/>
<path d="M20.1931 87.0346L27.772 81.3697C28.6239 80.7349 29.2303 79.8252 29.4886 78.7947C29.5905 78.4067 29.6103 78.0018 29.5467 77.6057C29.4832 77.2096 29.3377 76.8311 29.1196 76.4945C28.8624 76.1342 28.5202 75.843 28.1234 75.6468C27.7266 75.4507 27.2874 75.3556 26.845 75.3701C25.9165 75.3701 25.0129 75.6712 24.2701 76.2284L23.4804 76.8206C23.4394 76.8665 23.3891 76.9032 23.3329 76.9283C23.2767 76.9534 23.2158 76.9664 23.1543 76.9664C23.0927 76.9664 23.0318 76.9534 22.9756 76.9283C22.9194 76.9032 22.8692 76.8665 22.8281 76.8206C22.7959 76.7667 22.7748 76.7068 22.766 76.6446C22.7572 76.5824 22.7609 76.5191 22.7768 76.4584C22.7928 76.3976 22.8208 76.3407 22.8591 76.2908C22.8973 76.241 22.9452 76.1994 22.9998 76.1683L23.7894 75.5503C24.7229 74.8434 25.8547 74.4471 27.0253 74.4173C27.5902 74.3923 28.1521 74.5116 28.6582 74.7639C29.1643 75.0162 29.5977 75.3931 29.9178 75.8593C30.2002 76.2871 30.3883 76.7701 30.4697 77.2762C30.5511 77.7823 30.5239 78.3 30.3899 78.7947C30.0571 80.1013 29.2841 81.2532 28.2012 82.0563L21.7037 86.9058H28.0553C28.1133 86.9058 28.1705 86.9195 28.2223 86.9457C28.274 86.972 28.3189 87.01 28.3532 87.0569C28.3874 87.1037 28.4102 87.1579 28.4196 87.2152C28.429 87.2725 28.4247 87.3312 28.4072 87.3865C28.3732 87.5134 28.3003 87.6264 28.1986 87.7095C28.097 87.7927 27.9718 87.8418 27.8407 87.85H20.3218C20.2628 87.8557 20.2034 87.8461 20.1492 87.822C20.0951 87.7979 20.0481 87.7603 20.0128 87.7127C19.9555 87.597 19.9422 87.4645 19.9754 87.3397C20.0085 87.215 20.0859 87.1065 20.1931 87.0346Z" fill="#A6A6A6"/>
<path d="M14.9704 110.038L22.5494 104.374C23.4012 103.739 24.0076 102.829 24.266 101.799C24.3678 101.411 24.3876 101.006 24.3241 100.61C24.2605 100.213 24.115 99.835 23.8969 99.4984C23.6398 99.1381 23.2976 98.8469 22.9007 98.6507C22.5039 98.4546 22.0648 98.3595 21.6224 98.374C20.6938 98.374 19.7903 98.6751 19.0474 99.2323L18.2578 99.8245C18.2167 99.8704 18.1664 99.9071 18.1102 99.9322C18.054 99.9573 17.9932 99.9703 17.9316 99.9703C17.8701 99.9703 17.8092 99.9573 17.753 99.9322C17.6968 99.9071 17.6465 99.8704 17.6055 99.8245C17.5732 99.7706 17.5521 99.7108 17.5433 99.6486C17.5345 99.5864 17.5382 99.523 17.5542 99.4623C17.5702 99.4015 17.5981 99.3446 17.6364 99.2948C17.6747 99.2449 17.7225 99.2033 17.7771 99.1722L18.5668 98.5542C19.5003 97.8473 20.632 97.451 21.8026 97.4212C22.3675 97.3962 22.9295 97.5155 23.4355 97.7678C23.9416 98.0201 24.3751 98.397 24.6952 98.8632C24.9775 99.291 25.1657 99.774 25.2471 100.28C25.3285 100.786 25.3012 101.304 25.1672 101.799C24.8344 103.105 24.0614 104.257 22.9785 105.06L16.4811 109.91H22.8326C22.8906 109.91 22.9479 109.923 22.9996 109.95C23.0514 109.976 23.0962 110.014 23.1305 110.061C23.1648 110.108 23.1875 110.162 23.1969 110.219C23.2063 110.276 23.2021 110.335 23.1845 110.39C23.1506 110.517 23.0776 110.63 22.976 110.713C22.8743 110.797 22.7491 110.846 22.618 110.854H15.0992C15.0402 110.86 14.9807 110.85 14.9266 110.826C14.8724 110.802 14.8254 110.764 14.7902 110.717C14.7329 110.601 14.7196 110.468 14.7527 110.344C14.7859 110.219 14.8633 110.11 14.9704 110.038Z" fill="#A6A6A6"/>
<path d="M173.153 25.1055C173.153 25.1055 169.479 41.0272 167.926 47.7736C166.372 54.52 159.969 58.8116 159.969 58.8116H124.907C124.907 58.8116 131.147 51.3871 132.417 45.8767L137.215 25.1055H173.153Z" fill="#4B64EF"/>
<path d="M142.246 36.7177L140.409 38.6489C140.374 38.6887 140.324 38.7133 140.271 38.7176C140.248 38.7194 140.225 38.7137 140.205 38.7014C140.184 38.689 140.169 38.6707 140.16 38.6489L139.216 36.7263L138.357 40.2883C138.347 40.3286 138.323 40.3643 138.291 40.3905C138.259 40.4167 138.219 40.432 138.177 40.4342C138.158 40.4366 138.139 40.4343 138.122 40.4273C138.104 40.4204 138.089 40.4091 138.077 40.3945C138.065 40.3799 138.057 40.3625 138.053 40.344C138.05 40.3254 138.051 40.3062 138.057 40.2883L138.984 36.2714C138.989 36.2464 138.999 36.2228 139.014 36.2021C139.029 36.1814 139.048 36.1641 139.07 36.1512C139.083 36.138 139.098 36.1275 139.115 36.1203C139.132 36.1131 139.15 36.1094 139.169 36.1094C139.187 36.1094 139.205 36.1131 139.222 36.1203C139.239 36.1275 139.254 36.138 139.267 36.1512L140.323 38.2884L142.349 36.1512C142.38 36.1246 142.419 36.11 142.46 36.11C142.501 36.11 142.541 36.1246 142.572 36.1512C142.576 36.1682 142.576 36.1858 142.572 36.2027C142.576 36.2283 142.576 36.2544 142.572 36.28L141.645 40.2969C141.634 40.3371 141.611 40.3729 141.578 40.3991C141.546 40.4253 141.506 40.4406 141.464 40.4428C141.446 40.4437 141.428 40.4402 141.412 40.4326C141.396 40.425 141.381 40.4135 141.37 40.3992C141.359 40.3848 141.352 40.368 141.349 40.3502C141.346 40.3324 141.347 40.3141 141.353 40.2969L142.246 36.7177Z" fill="black"/>
<path d="M143.927 36.2476C143.939 36.2067 143.964 36.1707 143.998 36.1445C144.032 36.1184 144.073 36.1034 144.116 36.1017H146.347C146.365 36.1008 146.383 36.1043 146.4 36.1119C146.416 36.1195 146.43 36.131 146.441 36.1454C146.452 36.1597 146.46 36.1765 146.463 36.1943C146.466 36.2121 146.464 36.2304 146.459 36.2476C146.449 36.2908 146.425 36.3295 146.391 36.3575C146.357 36.3855 146.314 36.4012 146.27 36.4021H144.193L143.798 38.1187H145.618C145.636 38.1193 145.654 38.1241 145.67 38.1327C145.687 38.1413 145.701 38.1536 145.712 38.1685C145.722 38.1834 145.73 38.2006 145.733 38.2188C145.736 38.237 145.735 38.2556 145.729 38.2732C145.72 38.3151 145.697 38.3527 145.665 38.3806C145.632 38.4085 145.592 38.425 145.549 38.4277H143.729L143.335 40.1444H145.412C145.431 40.1429 145.45 40.1463 145.467 40.1543C145.485 40.1624 145.5 40.1748 145.511 40.1903C145.522 40.2058 145.529 40.2239 145.531 40.243C145.533 40.262 145.531 40.2812 145.523 40.2989C145.514 40.3398 145.491 40.3763 145.458 40.4027C145.426 40.4292 145.385 40.444 145.343 40.4448H143.094C143.077 40.4443 143.06 40.4398 143.045 40.4316C143.029 40.4234 143.016 40.4117 143.006 40.3976C142.996 40.3834 142.99 40.3671 142.987 40.35C142.985 40.3328 142.986 40.3153 142.991 40.2989L143.927 36.2476Z" fill="black"/>
<path d="M147.609 36.2475C147.62 36.2073 147.643 36.1715 147.676 36.1453C147.708 36.1191 147.748 36.1038 147.789 36.1016H150.021C150.039 36.1012 150.057 36.1049 150.074 36.1125C150.09 36.12 150.105 36.1313 150.117 36.1453C150.128 36.1594 150.136 36.1759 150.141 36.1936C150.145 36.2113 150.145 36.2297 150.141 36.2475C150.13 36.29 150.106 36.3279 150.072 36.3557C150.038 36.3835 149.996 36.3997 149.952 36.402H147.867L147.472 38.1186H149.292C149.31 38.1192 149.328 38.124 149.344 38.1326C149.361 38.1412 149.375 38.1535 149.385 38.1684C149.396 38.1833 149.403 38.2005 149.406 38.2187C149.41 38.2369 149.408 38.2555 149.403 38.2731C149.394 38.3163 149.37 38.355 149.335 38.383C149.301 38.4111 149.259 38.4268 149.214 38.4276H147.403L147.008 40.1443H149.086C149.171 40.1443 149.214 40.2129 149.197 40.2988C149.186 40.3403 149.161 40.3771 149.127 40.4035C149.093 40.4298 149.051 40.4443 149.008 40.4447H146.768C146.751 40.4442 146.734 40.4397 146.719 40.4315C146.703 40.4233 146.69 40.4116 146.68 40.3975C146.67 40.3833 146.664 40.367 146.661 40.3499C146.658 40.3327 146.66 40.3152 146.665 40.2988L147.609 36.2475Z" fill="black"/>
<path d="M152.373 36.402H151.068C151.049 36.4028 151.03 36.399 151.013 36.391C150.995 36.3829 150.98 36.3708 150.968 36.3557C150.956 36.3406 150.948 36.3229 150.945 36.3041C150.941 36.2852 150.942 36.2658 150.948 36.2475C150.961 36.2072 150.987 36.1718 151.02 36.1459C151.054 36.1199 151.094 36.1045 151.137 36.1016H154.046C154.065 36.1012 154.083 36.1049 154.099 36.1125C154.116 36.12 154.13 36.1313 154.142 36.1453C154.154 36.1594 154.162 36.1759 154.166 36.1936C154.17 36.2113 154.171 36.2297 154.167 36.2475C154.156 36.29 154.131 36.3279 154.098 36.3557C154.064 36.3835 154.022 36.3997 153.978 36.402H152.673L151.815 40.2902C151.804 40.3304 151.781 40.3662 151.748 40.3924C151.716 40.4186 151.676 40.4339 151.635 40.4361C151.616 40.4365 151.598 40.4328 151.582 40.4252C151.565 40.4176 151.551 40.4064 151.539 40.3923C151.527 40.3783 151.519 40.3618 151.515 40.3441C151.511 40.3264 151.51 40.308 151.514 40.2902L152.373 36.402Z" fill="black"/>
<path d="M155.351 36.2475C155.362 36.2073 155.385 36.1715 155.417 36.1453C155.45 36.1191 155.49 36.1038 155.531 36.1016C155.549 36.1012 155.567 36.1049 155.584 36.1125C155.601 36.12 155.615 36.1313 155.627 36.1453C155.638 36.1594 155.647 36.1759 155.651 36.1936C155.655 36.2113 155.655 36.2297 155.651 36.2475L154.733 40.2902C154.719 40.3318 154.692 40.3681 154.657 40.3941C154.622 40.4202 154.579 40.4349 154.536 40.4361C154.517 40.437 154.499 40.4334 154.483 40.4258C154.467 40.4182 154.452 40.4068 154.441 40.3924C154.43 40.3781 154.423 40.3613 154.42 40.3435C154.417 40.3257 154.418 40.3074 154.424 40.2902L155.351 36.2475Z" fill="black"/>
<path d="M157.403 36.736L156.545 40.2894C156.534 40.3297 156.511 40.3654 156.478 40.3916C156.446 40.4178 156.406 40.4331 156.365 40.4353C156.347 40.4362 156.329 40.4327 156.312 40.4251C156.296 40.4175 156.281 40.406 156.271 40.3917C156.26 40.3773 156.252 40.3605 156.249 40.3427C156.246 40.3249 156.247 40.3066 156.253 40.2894L157.171 36.3068C157.17 36.2734 157.177 36.2401 157.194 36.2112C157.211 36.1822 157.236 36.1588 157.266 36.1437C157.343 36.1437 157.437 36.1437 157.463 36.1437L159.257 39.7916L160.073 36.2553C160.083 36.2151 160.107 36.1793 160.139 36.1531C160.171 36.1269 160.211 36.1116 160.253 36.1094C160.271 36.109 160.289 36.1127 160.306 36.1203C160.322 36.1279 160.337 36.1391 160.348 36.1532C160.36 36.1672 160.368 36.1837 160.372 36.2014C160.377 36.2191 160.377 36.2376 160.373 36.2553L159.446 40.2551C159.434 40.296 159.409 40.332 159.375 40.3582C159.341 40.3843 159.3 40.3993 159.257 40.401C159.237 40.4017 159.217 40.3974 159.199 40.3884C159.181 40.3794 159.166 40.366 159.154 40.3495L157.403 36.736Z" fill="black"/>
<path d="M163.179 38.4884C163.161 38.4909 163.141 38.4885 163.124 38.4815C163.106 38.4746 163.091 38.4633 163.079 38.4487C163.067 38.4341 163.059 38.4167 163.055 38.3981C163.052 38.3796 163.053 38.3604 163.059 38.3425C163.069 38.2979 163.094 38.2581 163.13 38.2299C163.166 38.2017 163.211 38.1869 163.257 38.188H164.613C164.63 38.1894 164.647 38.1949 164.662 38.2041C164.678 38.2133 164.69 38.226 164.699 38.2411C164.709 38.2562 164.714 38.2732 164.715 38.2909C164.717 38.3085 164.714 38.3262 164.707 38.3425L164.364 39.8274C164.348 39.8729 164.318 39.912 164.278 39.939C163.831 40.2407 163.306 40.4048 162.767 40.4111C162.494 40.4225 162.222 40.3685 161.974 40.2535C161.726 40.1386 161.509 39.966 161.341 39.7502C161.173 39.5344 161.059 39.2816 161.009 39.0129C160.958 38.7441 160.972 38.4672 161.051 38.2052C161.215 37.5916 161.572 37.0473 162.07 36.6531C162.568 36.2588 163.18 36.0355 163.814 36.0165C164.051 36.0092 164.286 36.0487 164.507 36.1326C164.728 36.2166 164.93 36.3434 165.102 36.5057C165.129 36.5331 165.144 36.5701 165.144 36.6087C165.144 36.6473 165.129 36.6844 165.102 36.7117C165.071 36.7383 165.031 36.7529 164.99 36.7529C164.949 36.7529 164.91 36.7383 164.879 36.7117C164.73 36.5716 164.554 36.4623 164.363 36.3901C164.171 36.3179 163.967 36.2843 163.763 36.2911C163.216 36.3116 162.69 36.5056 162.261 36.8451C161.832 37.1846 161.522 37.652 161.377 38.1794C161.309 38.4081 161.297 38.6498 161.342 38.884C161.387 39.1182 161.488 39.3381 161.637 39.5251C161.785 39.712 161.976 39.8605 162.194 39.9579C162.411 40.0554 162.649 40.0989 162.887 40.0849C163.325 40.0764 163.753 39.9488 164.123 39.7158L164.415 38.4369L163.179 38.4884Z" fill="black"/>
<path d="M136.434 43.9815L135.738 44.342C135.71 44.3496 135.681 44.3496 135.653 44.342C135.629 44.3438 135.606 44.3381 135.586 44.3257C135.566 44.3134 135.55 44.2951 135.541 44.2733C135.527 44.2323 135.531 44.1876 135.55 44.149C135.569 44.1104 135.603 44.081 135.644 44.0673L136.597 43.5523C136.614 43.5433 136.632 43.5377 136.651 43.5358C136.67 43.534 136.69 43.5359 136.708 43.5415C136.726 43.5471 136.743 43.5562 136.758 43.5684C136.773 43.5805 136.785 43.5955 136.794 43.6124C136.807 43.6486 136.807 43.6878 136.794 43.724L135.85 47.7323C135.839 47.7748 135.815 47.8127 135.781 47.8405C135.747 47.8683 135.705 47.8845 135.661 47.8868C135.643 47.8863 135.625 47.8815 135.608 47.8729C135.592 47.8642 135.578 47.852 135.567 47.8371C135.557 47.8221 135.549 47.8049 135.546 47.7868C135.543 47.7686 135.544 47.75 135.55 47.7323L136.434 43.9815Z" fill="black"/>
<path d="M140.468 43.8169L139.077 44.967C139.336 45.0202 139.567 45.1631 139.73 45.3705C139.835 45.5191 139.907 45.6893 139.94 45.8687C139.972 46.0482 139.965 46.2326 139.919 46.409C139.809 46.8152 139.574 47.1765 139.248 47.4416C138.921 47.7066 138.519 47.8619 138.099 47.8853C137.92 47.8903 137.742 47.8534 137.579 47.7774C137.417 47.7014 137.274 47.5884 137.163 47.4476C137.112 47.3961 137.163 47.2931 137.215 47.233C137.229 47.2182 137.245 47.2063 137.264 47.1983C137.282 47.1902 137.302 47.186 137.322 47.186C137.342 47.186 137.362 47.1902 137.381 47.1983C137.399 47.2063 137.416 47.2182 137.429 47.233C137.52 47.3422 137.634 47.4292 137.764 47.4872C137.893 47.5453 138.034 47.5728 138.176 47.5677C138.491 47.55 138.791 47.4328 139.035 47.233C139.305 47.0164 139.493 46.7134 139.567 46.3747C139.605 46.2361 139.612 46.0903 139.585 45.9489C139.558 45.8075 139.499 45.6742 139.412 45.5593C139.327 45.4454 139.215 45.3545 139.086 45.2945C138.958 45.2346 138.816 45.2076 138.674 45.216C138.652 45.2156 138.63 45.21 138.611 45.1996C138.592 45.1891 138.575 45.1741 138.562 45.1559C138.542 45.1189 138.536 45.0756 138.546 45.0344C138.555 44.9933 138.579 44.957 138.614 44.9327L139.953 43.8169H138.288C138.269 43.8177 138.25 43.8139 138.232 43.8059C138.215 43.7978 138.2 43.7857 138.188 43.7706C138.176 43.7555 138.168 43.7378 138.165 43.719C138.161 43.7001 138.162 43.6808 138.168 43.6624C138.18 43.6192 138.206 43.5811 138.241 43.5533C138.277 43.5256 138.32 43.5097 138.365 43.5079H140.391C140.41 43.5071 140.429 43.5109 140.446 43.5189C140.464 43.527 140.479 43.5391 140.491 43.5542C140.502 43.5693 140.51 43.587 140.514 43.6058C140.517 43.6247 140.516 43.6441 140.511 43.6624C140.515 43.6851 140.515 43.7084 140.511 43.7311L140.468 43.8169Z" fill="black"/>
<path d="M142.649 44.9951C142.637 45.0358 142.614 45.0721 142.582 45.0996C142.55 45.1271 142.51 45.1445 142.469 45.1496H142.074L141.567 47.3555C141.561 47.3818 141.56 47.4091 141.566 47.4356C141.572 47.4621 141.583 47.4869 141.599 47.5083C141.616 47.5298 141.637 47.5472 141.661 47.5594C141.685 47.5716 141.712 47.5782 141.739 47.5787C141.758 47.5795 141.776 47.5844 141.792 47.593C141.809 47.6015 141.823 47.6135 141.835 47.6282C141.846 47.6429 141.854 47.6599 141.858 47.678C141.863 47.6961 141.863 47.7149 141.859 47.7332C141.845 47.7739 141.82 47.81 141.787 47.8373C141.753 47.8646 141.713 47.882 141.67 47.8877C141.604 47.8926 141.537 47.881 141.476 47.8539C141.415 47.8268 141.362 47.785 141.321 47.7323C141.28 47.6796 141.253 47.6176 141.242 47.5518C141.231 47.4861 141.237 47.4186 141.258 47.3555L141.765 45.1496H141.387C141.241 45.1496 141.258 45.0724 141.275 44.9951C141.276 44.9732 141.282 44.9517 141.292 44.9321C141.302 44.9125 141.316 44.8953 141.333 44.8814C141.35 44.8676 141.369 44.8576 141.391 44.8521C141.412 44.8465 141.434 44.8456 141.456 44.8492H141.859L142.125 43.7162C142.138 43.6772 142.162 43.6427 142.194 43.6168C142.226 43.591 142.265 43.5748 142.305 43.5703C142.324 43.5702 142.342 43.574 142.359 43.5815C142.376 43.589 142.391 43.6 142.403 43.6139C142.415 43.6277 142.424 43.644 142.43 43.6617C142.435 43.6793 142.437 43.698 142.434 43.7162L142.168 44.8492H142.563C142.594 44.8573 142.62 44.8772 142.636 44.9045C142.652 44.9318 142.657 44.9644 142.649 44.9951Z" fill="black"/>
<path d="M145.936 46.0398C145.963 45.9307 145.963 45.8167 145.936 45.7075C145.91 45.5983 145.857 45.4972 145.783 45.4128C145.709 45.3284 145.615 45.2633 145.51 45.223C145.405 45.1827 145.292 45.1685 145.18 45.1815C144.919 45.1767 144.662 45.2581 144.452 45.4132C144.241 45.5683 144.086 45.7885 144.013 46.0398L143.618 47.7565C143.607 47.777 143.591 47.7946 143.571 47.808C143.552 47.8214 143.53 47.8302 143.507 47.8337C143.486 47.8353 143.466 47.8314 143.448 47.8223C143.43 47.8132 143.415 47.7993 143.404 47.7822C143.4 47.7652 143.4 47.7477 143.404 47.7307C143.4 47.7137 143.4 47.6962 143.404 47.6792L143.79 45.9626V45.9111L144.313 43.6108C144.327 43.5705 144.352 43.5351 144.386 43.5092C144.419 43.4832 144.46 43.4678 144.502 43.4649C144.521 43.4645 144.539 43.4682 144.555 43.4757C144.572 43.4833 144.586 43.4946 144.598 43.5086C144.609 43.5227 144.618 43.5392 144.622 43.5569C144.626 43.5746 144.626 43.593 144.622 43.6108L144.253 45.2158C144.54 44.9388 144.92 44.7796 145.318 44.7695C145.47 44.7535 145.625 44.7753 145.767 44.833C145.909 44.8908 146.035 44.9826 146.134 45.1005C146.232 45.2184 146.3 45.3587 146.331 45.5091C146.363 45.6594 146.356 45.8152 146.313 45.9626L145.919 47.6792C145.909 47.7224 145.885 47.7611 145.851 47.7891C145.817 47.8171 145.774 47.8328 145.73 47.8337C145.711 47.8332 145.693 47.8284 145.677 47.8198C145.661 47.8111 145.647 47.7989 145.636 47.784C145.625 47.769 145.618 47.7518 145.615 47.7336C145.612 47.7155 145.613 47.6969 145.618 47.6792L145.936 46.0398Z" fill="black"/>
<path d="M147.412 45.723C147.42 45.6905 147.439 45.6617 147.466 45.6414C147.492 45.621 147.525 45.6104 147.558 45.6114H148.88C148.894 45.6112 148.908 45.614 148.921 45.6198C148.933 45.6256 148.945 45.6341 148.954 45.6448C148.963 45.6555 148.969 45.668 148.973 45.6816C148.976 45.6951 148.977 45.7092 148.974 45.723C148.967 45.7573 148.949 45.7883 148.923 45.8115C148.897 45.8347 148.863 45.8488 148.829 45.8517H147.507C147.491 45.8528 147.475 45.8499 147.46 45.8432C147.446 45.8365 147.433 45.8262 147.424 45.8134C147.415 45.8005 147.409 45.7855 147.407 45.7697C147.404 45.7539 147.406 45.7378 147.412 45.723Z" fill="black"/>
<path d="M150.802 43.9815L150.107 44.342C150.078 44.3496 150.049 44.3496 150.021 44.342C149.997 44.3438 149.974 44.3381 149.954 44.3257C149.934 44.3134 149.918 44.2951 149.909 44.2733C149.896 44.2323 149.899 44.1876 149.918 44.149C149.937 44.1104 149.971 44.081 150.012 44.0673L150.965 43.5523C150.982 43.5433 151 43.5377 151.019 43.5358C151.038 43.534 151.058 43.5359 151.076 43.5415C151.094 43.5471 151.111 43.5562 151.126 43.5684C151.141 43.5805 151.153 43.5955 151.162 43.6124C151.171 43.6491 151.171 43.6873 151.162 43.724L150.244 47.7066C150.233 47.7491 150.209 47.787 150.175 47.8148C150.141 47.8426 150.099 47.8588 150.055 47.8611C150.037 47.8605 150.019 47.8558 150.002 47.8471C149.986 47.8385 149.972 47.8263 149.961 47.8113C149.95 47.7964 149.943 47.7792 149.94 47.761C149.937 47.7428 149.938 47.7242 149.944 47.7066L150.802 43.9815Z" fill="black"/>
<path d="M151.832 45.7145C151.961 45.1541 152.223 44.633 152.596 44.1953C152.748 44.009 152.935 43.8553 153.148 43.7432C153.36 43.6311 153.593 43.563 153.832 43.543C154.033 43.5528 154.226 43.6226 154.387 43.7435C154.548 43.8644 154.668 44.0308 154.733 44.221C154.911 44.7081 154.938 45.2376 154.811 45.7403C154.68 46.2994 154.415 46.8181 154.038 47.2509C153.888 47.4395 153.701 47.5954 153.488 47.7091C153.276 47.8227 153.042 47.8917 152.802 47.9118C152.597 47.9114 152.397 47.8476 152.23 47.7294C152.062 47.6111 151.935 47.444 151.866 47.2509C151.694 46.755 151.682 46.2176 151.832 45.7145ZM152.141 45.7145C152.015 46.1578 152.033 46.6296 152.193 47.0621C152.246 47.2095 152.342 47.3375 152.47 47.4293C152.597 47.5212 152.748 47.5726 152.905 47.5771C153.09 47.5589 153.27 47.5039 153.433 47.4155C153.597 47.3271 153.741 47.2069 153.858 47.0621C154.192 46.676 154.425 46.2129 154.536 45.7145C154.659 45.2703 154.638 44.7984 154.476 44.367C154.425 44.2182 154.329 44.0889 154.201 43.9967C154.074 43.9045 153.921 43.854 153.763 43.852C153.577 43.8667 153.397 43.9202 153.233 44.0089C153.069 44.0975 152.925 44.2195 152.811 44.367C152.485 44.7553 152.261 45.2183 152.158 45.7145H152.141Z" fill="black"/>
<path d="M158.613 46.7965H156.638L156.012 47.8179C155.995 47.847 155.972 47.8717 155.943 47.8896C155.915 47.9076 155.882 47.9183 155.849 47.9208H155.797C155.78 47.9123 155.765 47.8999 155.753 47.8846C155.741 47.8694 155.732 47.8515 155.728 47.8325C155.724 47.8135 155.724 47.7939 155.729 47.775C155.733 47.7561 155.742 47.7384 155.754 47.7234L158.192 43.6979C158.212 43.6702 158.237 43.6472 158.267 43.6309C158.297 43.6145 158.33 43.6052 158.364 43.6035C158.424 43.6035 158.484 43.6035 158.484 43.6979L159.067 47.7234C159.068 47.7653 159.056 47.8063 159.033 47.8414C159.01 47.8765 158.977 47.9041 158.939 47.9208H158.879C158.85 47.9182 158.824 47.9068 158.802 47.8884C158.781 47.87 158.765 47.8453 158.758 47.8179L158.613 46.7965ZM156.819 46.496H158.535L158.201 44.1614L156.819 46.496Z" fill="black"/>
<path d="M164.174 44.1615L162.346 46.0927C162.328 46.1142 162.306 46.1316 162.281 46.1434C162.256 46.1553 162.228 46.1614 162.2 46.1614C162.14 46.1614 162.106 46.1614 162.089 46.0927L161.136 44.1701L160.32 47.7321C160.309 47.7746 160.285 47.8125 160.251 47.8403C160.217 47.8681 160.175 47.8843 160.132 47.8866C160.112 47.8874 160.093 47.8836 160.076 47.8756C160.059 47.8675 160.043 47.8554 160.032 47.8403C160.02 47.8252 160.012 47.8075 160.008 47.7887C160.005 47.7699 160.006 47.7505 160.011 47.7321L160.938 43.7152C160.957 43.6691 160.99 43.6301 161.033 43.6036C161.049 43.5925 161.067 43.5848 161.087 43.581C161.106 43.5771 161.126 43.5772 161.145 43.5812C161.164 43.5852 161.182 43.5931 161.199 43.6043C161.215 43.6155 161.228 43.6299 161.239 43.6465L162.286 45.7837L164.32 43.6465C164.344 43.614 164.38 43.5917 164.419 43.5837C164.459 43.5758 164.5 43.5829 164.535 43.6036C164.537 43.6207 164.537 43.638 164.535 43.6551C164.543 43.6802 164.543 43.7073 164.535 43.7324L163.608 47.7493C163.599 47.7911 163.576 47.8288 163.543 47.8567C163.511 47.8845 163.47 47.9011 163.427 47.9038C163.408 47.9046 163.389 47.9008 163.372 47.8928C163.355 47.8847 163.339 47.8726 163.328 47.8575C163.316 47.8424 163.308 47.8247 163.304 47.8059C163.301 47.787 163.302 47.7676 163.307 47.7493L164.174 44.1615Z" fill="black"/>
<path d="M34.6551 13.9896C34.0456 13.9723 33.4466 13.8274 32.8966 13.5643C32.3466 13.3011 31.858 12.9255 31.4621 12.4618C30.6038 11.4747 29.3936 9.20878 30.6038 5.09744C31.7454 1.32943 34.4834 -0.224132 36.612 0.179277C38.2428 0.488271 40.0453 2.14483 39.7277 5.79268C39.7192 5.92894 39.6832 6.06206 39.6219 6.18406C39.5607 6.30607 39.4753 6.41444 39.3711 6.50263C39.2669 6.59082 39.1459 6.65703 39.0154 6.69728C38.885 6.73752 38.7477 6.75096 38.6119 6.7368C38.3385 6.71064 38.0864 6.57813 37.9098 6.36781C37.7332 6.1575 37.6463 5.8862 37.6678 5.61241C37.8309 3.71553 37.2729 2.41089 36.2258 2.17914C35.0413 1.95598 33.359 3.09754 32.5865 5.66391C31.8827 8.00711 32.0286 9.95552 33.0071 11.0799C33.2122 11.3513 33.4785 11.5704 33.7842 11.7195C34.09 11.8687 34.4265 11.9436 34.7667 11.9382C34.9066 11.9077 35.0513 11.9064 35.1917 11.9344C35.3321 11.9624 35.4652 12.0192 35.5826 12.1012C35.7 12.1831 35.7993 12.2885 35.874 12.4106C35.9488 12.5327 35.9975 12.669 36.0171 12.8108C36.0367 12.9527 36.0267 13.097 35.9878 13.2348C35.9489 13.3726 35.882 13.5009 35.7912 13.6116C35.7003 13.7223 35.5876 13.813 35.46 13.8781C35.3325 13.9431 35.1928 13.9811 35.0499 13.9896C34.9184 13.9972 34.7866 13.9972 34.6551 13.9896Z" fill="#A6A6A6"/>
<path d="M47.4433 13.9896C46.8278 13.9782 46.2218 13.8361 45.6654 13.5727C45.109 13.3093 44.615 12.9306 44.216 12.4618C43.3577 11.4747 42.1475 9.20878 43.3577 5.09744C44.4907 1.32943 47.2373 -0.224132 49.3659 0.179277C50.9967 0.488271 52.7992 2.14483 52.4816 5.79268C52.472 5.92852 52.4352 6.06106 52.3735 6.18249C52.3119 6.30392 52.2266 6.41178 52.1226 6.49975C52.0186 6.58772 51.8981 6.65403 51.7682 6.69474C51.6382 6.73545 51.5014 6.74974 51.3658 6.7368C51.0939 6.70443 50.8454 6.5668 50.6737 6.35341C50.5021 6.14001 50.4208 5.86784 50.4474 5.59525C50.6105 3.69837 50.0526 2.39373 49.0055 2.16199C47.8124 1.93882 46.1387 3.08038 45.3662 5.64675C44.6538 7.98996 44.8083 9.93833 45.7868 11.0627C45.9919 11.3341 46.2581 11.5532 46.5639 11.7024C46.8696 11.8515 47.2062 11.9264 47.5463 11.921C47.6862 11.8905 47.8309 11.8892 47.9713 11.9172C48.1117 11.9453 48.2448 12.0021 48.3623 12.084C48.4797 12.1659 48.5789 12.2713 48.6537 12.3934C48.7284 12.5155 48.7771 12.6518 48.7967 12.7936C48.8163 12.9355 48.8064 13.0799 48.7675 13.2177C48.7286 13.3555 48.6616 13.4838 48.5708 13.5945C48.48 13.7052 48.3673 13.7959 48.2397 13.8609C48.1121 13.926 47.9725 13.9639 47.8296 13.9724C47.7012 13.9853 47.5723 13.991 47.4433 13.9896Z" fill="#A6A6A6"/>
<path d="M60.1553 13.9896C59.5471 13.9722 58.9494 13.8272 58.4008 13.564C57.8522 13.3008 57.3651 12.9253 56.9709 12.4618C56.1126 11.4747 54.9024 9.20878 56.1126 5.09744C57.2456 1.32943 59.9922 -0.224132 62.1208 0.179277C63.7516 0.488271 65.5541 2.14483 65.2365 5.79268C65.2268 5.92852 65.1901 6.06106 65.1284 6.18249C65.0668 6.30392 64.9814 6.41178 64.8775 6.49975C64.7735 6.58772 64.653 6.65403 64.523 6.69474C64.3931 6.73545 64.2563 6.74974 64.1207 6.7368C63.8464 6.71281 63.5929 6.58091 63.4159 6.37007C63.2388 6.15922 63.1528 5.8867 63.1766 5.61241C63.3396 3.71553 62.7817 2.41089 61.726 2.17914C60.6703 1.9474 58.8678 3.09754 58.0953 5.66391C57.3829 8.00711 57.5374 9.95552 58.5159 11.0799C58.7167 11.3454 58.9761 11.561 59.2738 11.7099C59.5716 11.8587 59.8996 11.9369 60.2325 11.9382C60.3724 11.9077 60.5171 11.9064 60.6575 11.9344C60.798 11.9624 60.9311 12.0192 61.0485 12.1012C61.1659 12.1831 61.2651 12.2885 61.3399 12.4106C61.4147 12.5327 61.4634 12.669 61.4829 12.8108C61.5025 12.9527 61.4926 13.097 61.4537 13.2348C61.4148 13.3726 61.3479 13.5009 61.257 13.6116C61.1662 13.7223 61.0535 13.813 60.9259 13.8781C60.7984 13.9431 60.6587 13.9811 60.5158 13.9896C60.3957 13.9958 60.2754 13.9958 60.1553 13.9896Z" fill="#A6A6A6"/>
<path d="M72.9099 13.9896C72.307 13.9706 71.7148 13.8248 71.172 13.5615C70.6292 13.2983 70.1481 12.9235 69.7599 12.4618C68.9016 11.4747 67.6827 9.20878 68.9016 5.09744C70.0345 1.32943 72.7811 -0.224132 74.9098 0.179277C76.5406 0.488271 78.343 2.14483 78.034 5.79268C78.0222 5.92794 77.9839 6.05952 77.9212 6.17995C77.8585 6.30039 77.7727 6.40729 77.6686 6.49456C77.5646 6.58184 77.4445 6.64778 77.315 6.68861C77.1855 6.72943 77.0492 6.74437 76.9139 6.73253C76.7787 6.7207 76.6471 6.68234 76.5267 6.61964C76.4062 6.55694 76.2993 6.47114 76.212 6.36713C76.1248 6.26312 76.0588 6.14293 76.018 6.01344C75.9772 5.88395 75.9623 5.74767 75.9741 5.61241C76.1286 3.71553 75.5793 2.41089 74.5235 2.17914C73.4678 1.9474 71.6653 3.09754 70.8929 5.66391C70.1804 8.00711 70.3349 9.95552 71.3134 11.0799C71.5138 11.3459 71.773 11.5619 72.0709 11.7108C72.3687 11.8597 72.6971 11.9376 73.0301 11.9382C73.17 11.9077 73.3147 11.9064 73.4551 11.9344C73.5955 11.9624 73.7286 12.0192 73.846 12.1012C73.9634 12.1831 74.0627 12.2885 74.1374 12.4106C74.2122 12.5327 74.2609 12.669 74.2805 12.8108C74.3001 12.9527 74.2901 13.097 74.2512 13.2348C74.2123 13.3726 74.1454 13.5009 74.0546 13.6116C73.9637 13.7223 73.851 13.813 73.7234 13.8781C73.5959 13.9431 73.4562 13.9811 73.3133 13.9896C73.1789 13.9971 73.0443 13.9971 72.9099 13.9896Z" fill="#A6A6A6"/>
<path d="M85.6648 13.9915C85.0521 13.9689 84.451 13.8173 83.9009 13.5467C83.3507 13.276 82.8638 12.8924 82.4719 12.4208C81.6136 11.4337 80.4034 9.16774 81.6136 5.0564C82.7466 1.28839 85.4932 -0.265147 87.6218 0.138262C89.2526 0.447256 91.0551 2.10379 90.7461 5.75164C90.7342 5.88689 90.6959 6.0185 90.6332 6.13894C90.5705 6.25937 90.4847 6.36628 90.3807 6.45355C90.2767 6.54082 90.1565 6.60677 90.027 6.64759C89.8975 6.68842 89.7612 6.70333 89.626 6.69149C89.4907 6.67966 89.3591 6.64129 89.2387 6.5786C89.1182 6.5159 89.0113 6.4301 88.9241 6.32609C88.8368 6.22208 88.7709 6.10191 88.73 5.97242C88.6892 5.84293 88.6743 5.70666 88.6861 5.5714C88.8406 3.67452 88.2913 2.36987 87.2356 2.13813C86.1798 1.90638 84.3774 3.05653 83.6049 5.62289C82.8925 7.9661 83.0384 9.91448 84.0255 11.0389C84.2253 11.3054 84.4845 11.5217 84.7825 11.6707C85.0804 11.8196 85.409 11.8972 85.7421 11.8972C85.882 11.8666 86.0267 11.8653 86.1671 11.8934C86.3075 11.9214 86.4406 11.9782 86.5581 12.0601C86.6755 12.1421 86.7747 12.2474 86.8494 12.3696C86.9242 12.4917 86.9729 12.6279 86.9925 12.7698C87.0121 12.9116 87.0021 13.056 86.9633 13.1938C86.9244 13.3316 86.8574 13.4599 86.7666 13.5706C86.6758 13.6813 86.563 13.772 86.4355 13.8371C86.3079 13.9021 86.1683 13.9401 86.0253 13.9486C85.906 13.9689 85.7857 13.9833 85.6648 13.9915Z" fill="#A6A6A6"/>
<path d="M98.4188 13.9915C97.806 13.9689 97.2049 13.8173 96.6548 13.5467C96.1046 13.276 95.6177 12.8924 95.2258 12.4208C94.3675 11.4337 93.1573 9.16774 94.3675 5.0564C95.5005 1.28839 98.2471 -0.265147 100.376 0.138262C102.007 0.447256 103.809 2.10379 103.5 5.75164C103.489 5.88786 103.451 6.02057 103.389 6.14205C103.326 6.26353 103.24 6.37136 103.136 6.45923C103.031 6.5471 102.91 6.61327 102.779 6.65388C102.649 6.69449 102.512 6.70874 102.376 6.69579C102.102 6.66962 101.85 6.53709 101.673 6.32677C101.497 6.11645 101.41 5.84518 101.431 5.5714C101.595 3.67452 101.045 2.36987 99.9895 2.13813C98.805 1.91497 97.1227 3.05653 96.3502 5.62289C95.6464 7.9661 95.7923 9.91448 96.7708 11.0389C96.9764 11.3097 97.2427 11.5285 97.5483 11.6776C97.854 11.8267 98.1903 11.9019 98.5303 11.8972C98.7913 11.8817 99.0486 11.9652 99.2507 12.131C99.4529 12.2969 99.585 12.5329 99.6208 12.7919C99.6565 13.0509 99.5933 13.3139 99.4437 13.5283C99.294 13.7427 99.069 13.8928 98.8136 13.9486C98.6829 13.9707 98.5511 13.985 98.4188 13.9915Z" fill="#A6A6A6"/>
<path d="M111.174 13.9915C110.561 13.9689 109.96 13.8173 109.41 13.5467C108.859 13.276 108.373 12.8924 107.981 12.4208C107.122 11.4337 105.912 9.16774 107.122 5.0564C108.264 1.28839 111.011 -0.265147 113.131 0.138262C114.761 0.447256 116.564 2.10379 116.255 5.75164C116.244 5.88786 116.206 6.02057 116.144 6.14205C116.081 6.26353 115.995 6.37136 115.89 6.45923C115.786 6.5471 115.665 6.61327 115.534 6.65388C115.404 6.69449 115.267 6.70874 115.13 6.69579C114.857 6.66962 114.605 6.53709 114.428 6.32677C114.252 6.11645 114.165 5.84518 114.186 5.5714C114.349 3.67452 113.792 2.36987 112.744 2.13813C111.56 1.91497 109.878 3.05653 109.105 5.62289C108.401 7.9661 108.547 9.91448 109.526 11.0389C109.726 11.3044 109.986 11.52 110.284 11.6689C110.581 11.8177 110.909 11.8959 111.242 11.8972C111.382 11.8666 111.527 11.8653 111.667 11.8934C111.808 11.9214 111.941 11.9782 112.058 12.0601C112.176 12.1421 112.275 12.2474 112.35 12.3696C112.424 12.4917 112.473 12.6279 112.493 12.7698C112.512 12.9116 112.502 13.056 112.463 13.1938C112.425 13.3316 112.358 13.4599 112.267 13.5706C112.176 13.6813 112.063 13.772 111.936 13.8371C111.808 13.9021 111.668 13.9401 111.526 13.9486C111.409 13.9689 111.292 13.9832 111.174 13.9915Z" fill="#A6A6A6"/>
<path d="M123.929 13.9915C123.316 13.9689 122.715 13.8173 122.165 13.5467C121.614 13.276 121.127 12.8924 120.736 12.4208C119.877 11.4337 118.667 9.16774 119.877 5.0564C121.019 1.28839 123.757 -0.265147 125.885 0.138262C127.516 0.447256 129.319 2.10379 129.001 5.75164C128.993 5.8879 128.957 6.02104 128.895 6.14305C128.834 6.26505 128.749 6.3734 128.645 6.46159C128.54 6.54978 128.419 6.61599 128.289 6.65624C128.158 6.69648 128.021 6.70994 127.885 6.69579C127.612 6.66962 127.36 6.53709 127.183 6.32677C127.007 6.11645 126.92 5.84518 126.941 5.5714C127.104 3.67452 126.546 2.36987 125.499 2.13813C124.315 1.91497 122.632 3.05653 121.86 5.62289C121.156 7.9661 121.302 9.91448 122.281 11.0389C122.486 11.3102 122.752 11.5294 123.058 11.6785C123.363 11.8276 123.7 11.9026 124.04 11.8972C124.301 11.8817 124.558 11.9652 124.76 12.131C124.963 12.2969 125.095 12.5329 125.131 12.7919C125.166 13.0509 125.103 13.3139 124.953 13.5283C124.804 13.7427 124.579 13.8928 124.323 13.9486C124.193 13.9705 124.061 13.9848 123.929 13.9915Z" fill="#A6A6A6"/>
<path d="M136.709 13.9915C136.098 13.9688 135.498 13.8171 134.949 13.5464C134.4 13.2757 133.915 12.8921 133.525 12.4208C132.666 11.4337 131.456 9.16774 132.666 5.0564C133.799 1.28839 136.546 -0.265147 138.675 0.138262C140.305 0.447256 142.108 2.10379 141.79 5.75164C141.781 5.88748 141.744 6.02002 141.682 6.14145C141.62 6.26288 141.535 6.37077 141.431 6.45874C141.327 6.54671 141.207 6.61298 141.077 6.6537C140.947 6.69441 140.81 6.70872 140.674 6.69579C140.4 6.67179 140.147 6.53987 139.97 6.32902C139.793 6.11818 139.706 5.84568 139.73 5.5714C139.893 3.67452 139.335 2.36987 138.28 2.13813C137.224 1.90638 135.422 3.05653 134.649 5.62289C133.937 7.9661 134.091 9.91448 135.07 11.0389C135.27 11.3044 135.53 11.52 135.828 11.6689C136.125 11.8177 136.453 11.8959 136.786 11.8972C136.926 11.8666 137.071 11.8653 137.211 11.8934C137.352 11.9214 137.485 11.9782 137.602 12.0601C137.72 12.1421 137.819 12.2474 137.894 12.3696C137.968 12.4917 138.017 12.6279 138.037 12.7698C138.056 12.9116 138.046 13.056 138.007 13.1938C137.969 13.3316 137.902 13.4599 137.811 13.5706C137.72 13.6813 137.607 13.772 137.48 13.8371C137.352 13.9021 137.212 13.9401 137.069 13.9486C136.95 13.9691 136.83 13.9834 136.709 13.9915Z" fill="#A6A6A6"/>
<path d="M149.429 13.9915C148.816 13.972 148.216 13.8218 147.666 13.5509C147.117 13.28 146.632 12.8946 146.244 12.4208C145.386 11.4337 144.167 9.16774 145.386 5.0564C146.519 1.28839 149.266 -0.265147 151.394 0.138262C153.034 0.447256 154.827 2.10379 154.518 5.75164C154.509 5.88748 154.472 6.02002 154.41 6.14145C154.349 6.26288 154.263 6.37077 154.159 6.45874C154.055 6.54671 153.935 6.61298 153.805 6.6537C153.675 6.69441 153.538 6.70872 153.403 6.69579C153.128 6.67179 152.875 6.53987 152.698 6.32902C152.521 6.11818 152.435 5.84568 152.458 5.5714C152.613 3.67452 152.064 2.36987 151.008 2.13813C149.823 1.91497 148.15 3.05653 147.377 5.62289C146.665 7.9661 146.819 9.91448 147.798 11.0389C148.003 11.3102 148.269 11.5294 148.575 11.6785C148.881 11.8276 149.217 11.9026 149.557 11.8972C149.818 11.8817 150.076 11.9652 150.278 12.131C150.48 12.2969 150.612 12.5329 150.648 12.7919C150.684 13.0509 150.62 13.3139 150.471 13.5283C150.321 13.7427 150.096 13.8928 149.841 13.9486C149.704 13.971 149.567 13.9853 149.429 13.9915Z" fill="#A6A6A6"/>
<path d="M162.184 13.9896C161.581 13.9676 160.988 13.8204 160.444 13.5574C159.901 13.2944 159.418 12.9213 159.026 12.4618C158.167 11.4747 156.957 9.20878 158.167 5.09744C159.3 1.32943 162.047 -0.224132 164.176 0.179277C165.806 0.488271 167.609 2.14483 167.3 5.79268C167.29 5.92852 167.253 6.06106 167.192 6.18249C167.13 6.30392 167.045 6.41178 166.941 6.49975C166.837 6.58772 166.716 6.65403 166.586 6.69474C166.456 6.73545 166.32 6.74974 166.184 6.7368C166.048 6.72603 165.915 6.68828 165.794 6.62572C165.672 6.56315 165.564 6.47702 165.476 6.37237C165.389 6.26772 165.322 6.14663 165.282 6.01616C165.241 5.88569 165.227 5.74844 165.24 5.61241C165.394 3.71553 164.845 2.41089 163.789 2.17914C162.734 1.9474 160.931 3.09754 160.159 5.66391C159.446 8.00711 159.601 9.95552 160.579 11.0799C160.78 11.3459 161.039 11.5619 161.337 11.7108C161.634 11.8597 161.963 11.9376 162.296 11.9382C162.436 11.9077 162.58 11.9064 162.721 11.9344C162.861 11.9624 162.994 12.0192 163.112 12.1012C163.229 12.1831 163.328 12.2885 163.403 12.4106C163.478 12.5327 163.527 12.669 163.546 12.8108C163.566 12.9527 163.556 13.097 163.517 13.2348C163.478 13.3726 163.411 13.5009 163.32 13.6116C163.229 13.7223 163.117 13.813 162.989 13.8781C162.862 13.9431 162.722 13.9811 162.579 13.9896C162.448 13.9968 162.316 13.9968 162.184 13.9896Z" fill="#A6A6A6"/>
<path d="M174.938 13.9915C174.326 13.9689 173.724 13.8173 173.174 13.5467C172.624 13.276 172.137 12.8924 171.745 12.4208C170.887 11.4337 169.677 9.16774 170.887 5.0564C172.02 1.28839 174.767 -0.265147 176.895 0.138262C178.526 0.447256 180.329 2.10379 180.02 5.75164C180.008 5.88689 179.969 6.0185 179.907 6.13894C179.844 6.25937 179.758 6.36628 179.654 6.45355C179.55 6.54082 179.43 6.60677 179.3 6.64759C179.171 6.68842 179.035 6.70333 178.899 6.69149C178.764 6.67966 178.633 6.64129 178.512 6.5786C178.392 6.5159 178.285 6.4301 178.197 6.32609C178.11 6.22208 178.044 6.10191 178.003 5.97242C177.963 5.84293 177.948 5.70666 177.96 5.5714C178.114 3.67452 177.565 2.36987 176.509 2.13813C175.325 1.91497 173.651 3.05653 172.87 5.62289C172.166 7.9661 172.312 9.91448 173.29 11.0389C173.491 11.3044 173.75 11.52 174.048 11.6689C174.346 11.8177 174.674 11.8959 175.007 11.8972C175.269 11.8785 175.529 11.9599 175.733 12.125C175.938 12.2901 176.072 12.5266 176.109 12.7869C176.146 13.0471 176.083 13.3117 175.933 13.5273C175.782 13.7429 175.556 13.8934 175.299 13.9486C175.179 13.9689 175.059 13.9833 174.938 13.9915Z" fill="#A6A6A6"/>
<path d="M187.693 13.9915C187.08 13.9689 186.479 13.8173 185.929 13.5467C185.379 13.276 184.892 12.8924 184.5 12.4208C183.642 11.4337 182.432 9.16774 183.642 5.0564C184.775 1.28839 187.522 -0.265147 189.65 0.138262C191.281 0.447256 193.083 2.10379 192.774 5.75164C192.764 5.88786 192.726 6.02057 192.663 6.14205C192.601 6.26353 192.515 6.37136 192.41 6.45923C192.305 6.5471 192.184 6.61327 192.054 6.65388C191.923 6.69449 191.786 6.70874 191.65 6.69579C191.377 6.66962 191.124 6.53709 190.948 6.32677C190.771 6.11645 190.684 5.84518 190.706 5.5714C190.869 3.67452 190.311 2.36987 189.264 2.13813C188.079 1.91497 186.406 3.05653 185.625 5.62289C184.921 7.9661 185.067 9.91448 186.045 11.0389C186.25 11.3102 186.517 11.5294 186.822 11.6785C187.128 11.8276 187.465 11.9026 187.805 11.8972C188.066 11.8817 188.323 11.9652 188.525 12.131C188.727 12.2969 188.859 12.5329 188.895 12.7919C188.931 13.0509 188.868 13.3139 188.718 13.5283C188.568 13.7427 188.343 13.8928 188.088 13.9486C187.957 13.9707 187.826 13.985 187.693 13.9915Z" fill="#A6A6A6"/>
</g>
</svg>
