<svg width="309" height="337" viewBox="0 0 309 337" fill="none" xmlns="http://www.w3.org/2000/svg">
<path d="M179.74 183.907C179.74 183.907 172.67 206.307 163.74 235.467C153.82 267.877 141.6 308.617 134.26 336.207H201.06C202.18 331.767 203.4 326.967 204.69 321.867L210.33 299.867C215.67 279.077 221.55 256.347 226.68 236.577C234.37 206.947 240.37 183.937 240.37 183.937L179.74 183.907Z" fill="#455A64"/>
<path d="M227.42 200.167C225.98 205.297 224.17 210.337 222.58 215.407C220.99 220.477 219.35 225.797 217.75 230.997C214.577 241.297 211.43 251.601 208.31 261.907C202.05 282.514 195.81 303.134 189.59 323.767C188.34 327.917 187.03 332.057 185.74 336.207H187.74C190.133 328.261 192.527 320.307 194.92 312.347C201.2 291.407 207.457 270.457 213.69 249.497C216.81 238.971 219.913 228.434 223 217.887C224.55 212.557 226 207.217 227.55 201.887C228.34 199.227 228 198.057 227.42 200.167Z" fill="#263238"/>
<path d="M186.63 183.907C190.84 216.477 198.86 277.557 204.71 321.907C218.4 268.217 240.39 183.907 240.39 183.907H186.63Z" fill="#263238"/>
<path d="M210.34 299.837C210.67 312.097 211 324.927 211.26 336.207H272.64C271.39 308.327 269.24 268.977 267.44 237.257C265.74 207.127 264.34 183.907 264.34 183.907H181.7C181.7 183.907 183.1 212.907 189.7 235.907C190.23 237.807 190.81 239.677 191.44 241.467C197.528 243.93 203.379 246.943 208.92 250.467C208.92 250.467 209.66 273.797 210.34 299.837Z" fill="#455A64"/>
<path d="M262.95 336.208H263.95C263.543 328.821 263.17 321.438 262.83 314.058C261.05 274.158 259.65 234.228 258.33 194.318C258.33 193.998 257.83 193.968 257.84 194.318C258.51 216.888 259.1 239.468 259.84 262.038C260.7 286.718 261.737 311.441 262.95 336.208Z" fill="#263238"/>
<path d="M188.5 239.737C195.617 242.712 202.463 246.299 208.96 250.457C209.006 250.491 209.038 250.541 209.051 250.597C209.064 250.652 209.056 250.711 209.029 250.761C209.003 250.812 208.959 250.852 208.906 250.873C208.853 250.894 208.794 250.896 208.74 250.877C201.84 247.517 194.79 244.287 188.08 240.567C187.988 240.502 187.922 240.406 187.894 240.297C187.867 240.187 187.88 240.071 187.931 239.971C187.982 239.87 188.068 239.791 188.172 239.748C188.277 239.705 188.393 239.701 188.5 239.737Z" fill="#263238"/>
<path d="M184.22 207.638C184.79 210.708 185.53 213.748 186.22 216.798C186.84 219.658 187.29 222.578 188.05 225.398C188.661 228.139 190.05 230.646 192.05 232.618C193.17 233.618 194.41 234.618 195.61 235.538C196.25 236.048 196.95 236.538 197.61 237.068C197.52 236.668 197.45 236.248 197.38 235.838C197.17 234.668 196.98 233.508 196.78 232.348C196.35 229.758 195.93 227.168 195.54 224.578C194.76 219.488 194.04 214.348 192.98 209.308C192.98 209.27 192.993 209.233 193.016 209.203C193.039 209.173 193.072 209.152 193.109 209.143C193.146 209.133 193.184 209.137 193.219 209.152C193.254 209.168 193.282 209.194 193.3 209.228C194.57 214.228 195.97 219.168 197.07 224.228C197.61 226.698 199.55 238.898 199.63 239.758C199.71 240.618 199.79 241.538 199.83 242.438C199.945 243.347 199.945 244.268 199.83 245.178C199.78 245.398 199.51 245.358 199.41 245.178C199.042 244.33 198.78 243.44 198.63 242.528C198.41 241.658 198.21 240.778 198.06 239.888C198 239.568 197.96 239.248 197.91 238.888C196.71 238.158 195.59 237.198 194.47 236.378C193.35 235.558 192.03 234.648 190.88 233.688C188.767 231.898 187.241 229.515 186.5 226.848C185.764 223.972 185.285 221.038 185.07 218.078C184.68 214.618 184.4 211.128 183.91 207.678C183.87 207.518 184.18 207.428 184.22 207.638Z" fill="#263238"/>
<path d="M195.16 103.297C191.06 135.977 183.9 190.787 172.31 195.217C170.31 195.987 161.77 197.677 155.94 191.117C146.11 180.057 129.11 142.737 124.34 130.727C122.23 125.407 156.93 108.047 159.9 113.397C164.06 120.887 168.43 132.167 169.25 131.787C170.64 131.157 173 117.247 182.25 97.7072C193.8 73.4272 196.69 91.1473 195.16 103.297Z" fill="#D3766A"/>
<path d="M114.28 117.827C117.7 125.167 130.56 137.437 134.8 139.207C139.04 140.977 160.63 119.817 160.08 115.127C159.53 110.437 146.08 86.6372 138.71 82.9672C131.34 79.2972 110.75 110.227 114.28 117.827Z" fill="#D3766A"/>
<path d="M158.51 110.678C158.51 110.678 157.8 100.168 160.29 91.2376C162.39 83.7276 166.36 72.8076 162.36 71.5276C154.16 68.8976 144.28 96.1276 144.28 96.1276C144.28 96.1276 141.84 108.838 149.74 112.128C151.193 112.718 152.782 112.895 154.329 112.639C155.877 112.383 157.324 111.704 158.51 110.678Z" fill="#D3766A"/>
<path d="M136.53 119.358L124.36 117.218L130.57 81.9678L145.97 84.6778L136.53 119.358Z" fill="#4B64EF"/>
<path d="M145.97 84.6778L142.37 97.9078L136.53 119.368L124.35 117.218L130.57 81.9678L145.97 84.6778Z" fill="#4B64EF"/>
<path opacity="0.1" d="M145.97 84.6778L142.37 97.9078L128.2 95.4078L130.57 81.9678L145.97 84.6778Z" fill="black"/>
<path d="M149.036 75.596L129.872 72.2168L127.305 86.7723L146.47 90.1514L149.036 75.596Z" fill="#4B64EF"/>
<path d="M162.83 72.5174L147.68 71.3774L151.83 47.8174L166.45 51.9374L162.83 72.5174Z" fill="#4B64EF"/>
<path d="M144.99 41.8079L138.87 76.5779L113.36 75.1679L51.51 86.2979L66.23 2.79785L120.54 34.4179L144.99 41.8079Z" fill="#4B64EF"/>
<path d="M70.9988 46.707C75.0843 23.5371 72.3602 3.68981 64.9142 2.37689C57.4683 1.06398 48.1203 18.7826 44.0348 41.9525C39.9493 65.1224 42.6735 84.9696 50.1194 86.2825C57.5653 87.5954 66.9134 69.8769 70.9988 46.707Z" fill="#4B64EF"/>
<path opacity="0.2" d="M67.9903 45.4319C71.6173 24.8619 69.615 7.315 63.518 6.23992C57.4209 5.16485 49.5379 20.9687 45.9109 41.5388C42.2838 62.1088 44.2862 79.6557 50.3832 80.7308C56.4803 81.8059 64.3632 66.002 67.9903 45.4319Z" fill="black"/>
<path d="M66.19 45.0573C65.7 47.7973 65.19 50.4473 64.52 52.9873C63.123 53.7632 61.5348 54.1275 59.9392 54.0382C58.3437 53.9488 56.8061 53.4094 55.5045 52.4824C54.2029 51.5553 53.1904 50.2785 52.5844 48.7999C51.9783 47.3213 51.8034 45.7012 52.08 44.1273L52.77 40.1873C53.0434 38.6176 53.7551 37.1572 54.8229 35.9746C55.8907 34.7921 57.271 33.9355 58.8047 33.5037C60.3384 33.0719 61.963 33.0826 63.4909 33.5344C65.0188 33.9862 66.3878 34.8608 67.44 36.0573C67.15 38.9973 66.73 42.0573 66.19 45.0573Z" fill="#4B64EF"/>
<path d="M152 80.8772L122.7 78.6772L130.73 33.1172L159.02 41.0672L152 80.8772Z" fill="#4B64EF"/>
<path opacity="0.2" d="M152 80.8772L122.7 78.6772L130.73 33.1172L159.02 41.0672L152 80.8772Z" fill="black"/>
<path opacity="0.2" d="M69.13 9.20703C70.6684 12.0213 71.6848 15.0908 72.13 18.267C72.6346 21.4286 72.8854 24.6255 72.88 27.827C72.88 29.427 72.83 31.027 72.78 32.617C72.73 34.207 72.57 35.807 72.4 37.397C72.23 38.987 72.06 40.577 71.82 42.157C71.58 43.737 71.35 45.317 71.07 46.887C69.9716 53.1901 68.2979 59.3794 66.07 65.377C64.942 68.3746 63.5498 71.2659 61.91 74.017C60.3178 76.8051 58.1538 79.2247 55.56 81.117C58.0393 79.1128 60.0814 76.6215 61.56 73.797C63.1093 71.0306 64.4111 68.1327 65.45 65.137C67.5455 59.1455 69.1279 52.9866 70.18 46.727C71.3699 40.4934 72.0388 34.1716 72.18 27.827C72.267 24.6557 72.1032 21.4825 71.69 18.337C71.3703 15.1687 70.5042 12.0797 69.13 9.20703Z" fill="black"/>
<path d="M38.67 1.95703C40.4 3.32703 42.07 4.78703 43.67 6.24703C45.27 7.70703 46.93 9.24703 48.53 10.727C50.13 12.207 51.7 13.787 53.24 15.377L55.53 17.757C56.27 18.577 57.04 19.377 57.76 20.217C56.88 19.537 56.05 18.817 55.19 18.117L52.7 15.927C51.05 14.477 49.44 12.927 47.84 11.447C46.24 9.96703 44.67 8.38703 43.14 6.79703C41.61 5.20703 40.12 3.62703 38.67 1.95703Z" fill="#263238"/>
<path d="M50.97 66.4775C48.56 67.1075 46.12 67.6275 43.69 68.1275C41.26 68.6275 38.81 69.1275 36.36 69.5175C33.91 69.9075 31.46 70.3475 28.99 70.6875L25.29 71.1875C24.06 71.3175 22.82 71.4775 21.58 71.5775C22.78 71.2575 24 70.9975 25.21 70.6975L28.86 69.9275C31.29 69.4075 33.74 68.9275 36.19 68.5375C38.64 68.1475 41.09 67.7075 43.56 67.3775C46.03 67.0475 48.49 66.6975 50.97 66.4775Z" fill="#263238"/>
<path d="M5.16998 57.8076C8.81998 57.5276 12.47 57.3476 16.17 57.1876C19.87 57.0276 23.47 56.9176 27.12 56.8276C30.77 56.7376 34.43 56.6876 38.12 56.6976H43.6C45.43 56.6976 47.26 56.6976 49.09 56.8276C47.26 56.9776 45.44 57.0676 43.61 57.1876L38.13 57.4575C34.48 57.6275 30.83 57.7175 27.13 57.8175C23.43 57.9175 19.82 57.9476 16.13 57.9376C12.44 57.9276 8.82998 57.9376 5.16998 57.8076Z" fill="#263238"/>
<path d="M18.26 2.6875C21.38 4.6875 24.44 6.7875 27.49 8.8975C30.54 11.0075 33.56 13.1575 36.57 15.3175C39.58 17.4775 42.57 19.6775 45.51 21.9275L49.93 25.2975C51.38 26.4575 52.85 27.5775 54.29 28.7575C52.72 27.7575 51.19 26.7575 49.64 25.6975L45.06 22.5475C42 20.4475 38.99 18.2875 35.98 16.1275C32.97 13.9675 29.98 11.7575 27.04 9.5175C24.1 7.2775 21.14 5.0575 18.26 2.6875Z" fill="#263238"/>
<path d="M50.48 42.7373C46.24 42.1573 42.01 41.4673 37.79 40.7373C33.57 40.0073 29.36 39.2373 25.15 38.4973C20.94 37.7573 16.74 36.8873 12.55 36.0173L6.26 34.7073C4.18 34.2273 2.08 33.7873 0 33.2773C2.12 33.5673 4.24 33.9073 6.35 34.2173L12.69 35.2173C16.91 35.9173 21.12 36.7173 25.33 37.4573C29.54 38.1973 33.74 39.0673 37.93 39.9373C42.12 40.8073 46.34 41.7473 50.48 42.7373Z" fill="#263238"/>
<path d="M148.97 90.8976C148.5 95.1576 143.74 92.1776 143.74 92.1776C143.74 92.1776 149.56 98.1176 147.38 102.338C145.27 106.388 139.65 102.578 139.24 102.338C139.55 102.658 144.75 108.258 142.13 112.268C139.51 116.278 134.41 111.638 134.13 111.328C134.32 111.718 136.8 116.918 134.13 119.508C129.51 123.958 122.82 110.828 117.82 109.438C117.82 109.438 114.49 117.638 114.34 117.858C114.34 117.858 107.72 105.508 109.98 98.8576C110.292 97.8868 110.926 97.0516 111.777 96.4897C112.628 95.9279 113.645 95.6732 114.66 95.7676C114.66 95.7676 112.09 92.0276 114.05 88.7676C115.05 87.1176 118.61 87.2676 118.61 87.2676C118.61 87.2676 116.67 84.1776 118.61 81.4276C120.14 79.2276 123.45 79.7176 123.45 79.7176C123.45 79.7176 122.96 75.8976 125.26 74.1476C129.81 70.6476 149.95 81.7676 148.97 90.8976Z" fill="#D3766A"/>
<path d="M123.92 79.7369C123.909 79.7323 123.9 79.7246 123.894 79.7148C123.887 79.705 123.884 79.6936 123.884 79.6819C123.884 79.6703 123.887 79.6588 123.894 79.6491C123.9 79.6393 123.909 79.6316 123.92 79.627C131.44 81.627 139.07 86.2069 143.99 92.3069C144.15 92.5069 143.89 92.8569 143.67 92.6669C137.745 87.4269 131.093 83.0718 123.92 79.7369Z" fill="#263238"/>
<path d="M118.47 87.1875C118.39 87.1875 118.47 87.0175 118.54 87.0475C126.27 89.1875 134.72 94.5475 139.54 102.237C139.7 102.507 139.59 102.907 139.37 102.617C135.8 97.7475 125.26 90.2175 118.47 87.1875Z" fill="#263238"/>
<path d="M134.24 111.948C129.31 104.748 122.57 99.8475 114.93 95.8175C114.83 95.8175 114.93 95.6275 115.01 95.6575C119.28 96.6575 123.89 99.6575 127.27 102.388C130.459 104.83 132.948 108.068 134.49 111.778C134.55 111.928 134.34 112.058 134.24 111.948Z" fill="#263238"/>
<path d="M143.89 92.167C144.08 92.407 143.52 92.427 143.7 92.667C144.49 93.667 148.65 100.347 146.83 102.467C145.37 104.167 142.07 103.377 140.93 102.577L138.04 100.577L140.04 103.467C140.932 104.744 141.608 106.16 142.04 107.657C142.288 108.338 142.388 109.063 142.335 109.785C142.281 110.508 142.075 111.21 141.73 111.847C141.404 112.437 140.886 112.896 140.261 113.149C139.637 113.402 138.944 113.433 138.3 113.237C136.869 112.764 135.579 111.938 134.55 110.837L131.62 107.837L133.41 111.577C133.913 112.616 134.283 113.715 134.51 114.847C134.764 115.911 134.705 117.026 134.34 118.057C134.147 118.511 133.832 118.903 133.429 119.189C133.027 119.475 132.553 119.644 132.06 119.677C130.953 119.584 129.895 119.178 129.01 118.507C127.067 117.075 125.238 115.493 123.54 113.777C122.66 112.937 121.77 112.097 120.84 111.297C119.95 110.445 118.89 109.791 117.73 109.377C118.821 109.907 119.799 110.644 120.61 111.547C121.47 112.407 122.28 113.307 123.1 114.207C124.711 116.078 126.496 117.792 128.43 119.327C129.463 120.183 130.726 120.715 132.06 120.857C132.792 120.852 133.506 120.635 134.117 120.232C134.727 119.829 135.208 119.258 135.5 118.587C136.012 117.318 136.131 115.924 135.84 114.587C135.613 113.322 135.223 112.092 134.68 110.927L133.54 111.707C134.733 113.036 136.254 114.029 137.95 114.587C138.9 114.868 139.917 114.812 140.83 114.427C141.709 114.018 142.447 113.357 142.95 112.527C143.387 111.72 143.647 110.829 143.715 109.914C143.782 108.999 143.654 108.079 143.34 107.217C142.829 105.576 142.048 104.032 141.03 102.647L140.15 103.527C141.65 104.527 145.23 105.777 147.83 103.427C150.8 99.927 145.03 93.297 143.89 92.167Z" fill="#263238"/>
<path d="M143.74 92.1775C144.567 92.4915 145.437 92.677 146.32 92.7275C146.673 92.7567 147.028 92.6916 147.348 92.5387C147.668 92.3859 147.941 92.1508 148.14 91.8575C148.48 91.1523 148.608 90.364 148.51 89.5875C148.45 88.7275 148.34 87.8275 148.19 86.8975C148.784 87.6482 149.211 88.5178 149.44 89.4475C149.594 89.95 149.648 90.478 149.599 91.0013C149.549 91.5247 149.396 92.0331 149.15 92.4975C148.83 92.9848 148.365 93.3591 147.82 93.5675C147.302 93.7438 146.745 93.775 146.21 93.6575C145.25 93.4392 144.385 92.9208 143.74 92.1775Z" fill="#263238"/>
<path d="M121.64 142.507L159.57 112.057C159.57 112.057 168.76 131.057 169.3 130.977C169.84 130.897 175.86 105.687 185.84 89.9771C195.82 74.2671 198.22 91.3171 196.1 104.277C193.98 117.237 184 189.067 175.03 195.647C166.06 202.227 157.63 193.987 154.03 190.497C149 185.627 121.64 142.507 121.64 142.507Z" fill="#4B64EF"/>
<path d="M128.94 145.938C130.13 144.718 142.05 135.418 144.68 133.458L152.6 127.578C155.32 125.578 158.01 123.368 160.89 121.578C160.902 121.568 160.917 121.561 160.932 121.556C160.947 121.552 160.963 121.551 160.979 121.553C160.995 121.554 161.01 121.559 161.024 121.567C161.038 121.575 161.05 121.585 161.06 121.598C161.07 121.61 161.077 121.625 161.081 121.64C161.086 121.655 161.087 121.671 161.085 121.687C161.083 121.703 161.078 121.718 161.071 121.732C161.063 121.746 161.052 121.758 161.04 121.768C158.54 124.068 155.72 126.068 153.04 128.158C150.36 130.248 147.77 132.298 145.13 134.348C142.49 136.398 130.49 145.348 129.05 146.138C128.93 146.198 128.86 146.058 128.94 145.938Z" fill="#263238"/>
<path d="M169.34 130.928C170.34 133.168 171.34 135.468 172.18 137.768C173.02 140.068 173.86 142.418 174.61 144.768C175.36 147.118 176.04 149.498 176.61 151.908C177.207 154.309 177.664 156.743 177.98 159.198C177.61 158.008 177.31 156.818 176.98 155.648C176.65 154.478 176.28 153.288 175.91 152.108L173.71 145.108L171.51 138.108L170.34 134.488C170 133.298 169.63 132.118 169.34 130.928Z" fill="#263238"/>
<path d="M169.48 209.168C171.12 210.798 271.97 205.458 272.48 204.808C273.81 203.028 237.74 95.6979 214.1 78.7179C209.02 75.0679 195.36 79.9578 191.85 83.4778C189.65 85.6878 184.85 99.6379 181.73 111.168C175.43 134.268 168.05 207.738 169.48 209.168Z" fill="white"/>
<path d="M193.9 78.9478C189.9 81.9478 186.84 97.2578 195.98 99.3278C205.12 101.398 213.6 86.9678 214.85 82.3278C216.1 77.6878 202.55 72.5278 193.9 78.9478Z" fill="#4B64EF"/>
<path d="M196.64 97.2269C202.31 97.9569 210.92 88.5069 213.95 81.2269C214.16 80.7269 212.95 75.8569 211.69 69.8569C210.96 66.2169 210.24 62.147 209.84 58.377L186.84 66.5869C186.84 66.5869 189.99 74.2369 190.64 80.8069C190.69 81.3257 190.69 81.8481 190.64 82.3669C190.64 82.4369 190.64 82.527 190.64 82.627C190.45 85.637 191.16 96.5269 196.64 97.2269Z" fill="#D3766A"/>
<path d="M208.75 58.7979C208.51 63.5779 206.7 80.7978 193.06 82.5378C192.251 82.6395 191.435 82.6797 190.62 82.6579C190.604 82.5719 190.604 82.4838 190.62 82.3978C190.66 81.8786 190.66 81.3571 190.62 80.8378C189.96 74.2778 186.81 66.6279 186.81 66.6279L208.75 58.7979Z" fill="#263238"/>
<path d="M210.23 30.197C213.58 38.337 211.46 62.957 206.02 68.927C198.12 77.577 184.02 79.667 176.41 69.927C169.01 60.477 172.34 28.427 178.53 22.927C187.64 14.717 205.27 18.177 210.23 30.197Z" fill="#D3766A"/>
<path d="M188.48 47.2072C188.48 47.1472 188.61 47.2972 188.6 47.3672C188.41 49.0272 188.48 50.9472 189.93 51.6172C189.93 51.6172 189.93 51.7272 189.93 51.7172C188.1 51.3072 188.04 48.7472 188.48 47.2072Z" fill="#263238"/>
<path d="M190.11 45.5977C192.79 45.5977 192.57 50.9777 190.11 50.9677C187.65 50.9577 187.86 45.5877 190.11 45.5977Z" fill="#263238"/>
<path d="M179.17 46.8672C179.17 46.8072 179.04 46.9472 179.04 47.0072C179.04 48.6772 178.72 50.5772 177.19 51.0672V51.1672C179.05 50.9872 179.42 48.4472 179.17 46.8672Z" fill="#263238"/>
<path d="M177.76 45.057C175.09 44.747 174.66 50.057 177.13 50.397C179.6 50.737 179.99 45.337 177.76 45.057Z" fill="#263238"/>
<path d="M192.34 43.2274C191.641 42.994 190.957 42.7202 190.29 42.4074C189.529 42.2203 188.851 41.7881 188.36 41.1774C188.243 40.9546 188.203 40.6994 188.247 40.4516C188.29 40.2038 188.414 39.9773 188.6 39.8074C189.017 39.528 189.501 39.365 190.002 39.3351C190.503 39.3052 191.003 39.4096 191.45 39.6374C192.427 39.96 193.25 40.6334 193.76 41.5274C193.864 41.7378 193.905 41.974 193.878 42.2072C193.85 42.4403 193.755 42.6605 193.605 42.8407C193.454 43.0209 193.254 43.1534 193.03 43.2221C192.805 43.2908 192.566 43.2926 192.34 43.2274Z" fill="#263238"/>
<path d="M175.8 42.277C176.54 42.187 177.22 41.977 177.95 41.817C178.734 41.7618 179.477 41.4449 180.06 40.917C180.212 40.7193 180.295 40.4767 180.295 40.227C180.295 39.9774 180.212 39.7347 180.06 39.537C179.695 39.1893 179.244 38.9457 178.754 38.8314C178.263 38.7171 177.751 38.7363 177.27 38.887C176.255 39.0406 175.332 39.5642 174.68 40.357C174.544 40.5483 174.466 40.7746 174.456 41.0089C174.445 41.2432 174.503 41.4756 174.621 41.6782C174.739 41.8808 174.913 42.045 175.122 42.1512C175.331 42.2575 175.567 42.3011 175.8 42.277Z" fill="#263238"/>
<path d="M190.61 62.7876C190.2 63.1576 189.78 63.6776 189.17 63.6976C188.551 63.6646 187.947 63.4974 187.4 63.2076C187.389 63.2051 187.378 63.2055 187.368 63.2088C187.357 63.2121 187.348 63.2182 187.341 63.2265C187.334 63.2347 187.329 63.2448 187.327 63.2555C187.325 63.2663 187.326 63.2774 187.33 63.2876C187.549 63.629 187.859 63.903 188.224 64.0795C188.589 64.256 188.996 64.328 189.4 64.2876C189.743 64.2156 190.056 64.0429 190.3 63.7918C190.544 63.5406 190.708 63.2223 190.77 62.8776C190.8 62.7676 190.67 62.7276 190.61 62.7876Z" fill="#263238"/>
<path d="M189.07 57.7277C188.623 58.3693 188.047 58.9107 187.379 59.317C186.711 59.7234 185.965 59.9859 185.19 60.0877C184.527 60.1834 183.853 60.1834 183.19 60.0877C183.059 60.079 182.928 60.0589 182.8 60.0277L182.44 59.9576C182.351 59.9376 182.271 59.8884 182.213 59.8177C182.155 59.747 182.122 59.659 182.12 59.5676C182.115 59.5111 182.115 59.4542 182.12 59.3977V59.2477C182.12 57.9677 182.35 56.0277 182.35 56.0277C181.87 56.2377 179.44 57.2177 179.5 56.5477C180.07 51.0177 180.69 44.8777 182.42 39.5477C182.47 39.3677 182.75 39.4177 182.72 39.5477C182.39 44.8877 181.12 50.1177 180.72 55.4677C181.582 55.1098 182.492 54.8775 183.42 54.7777C183.6 54.8377 182.96 58.5176 183 59.0976C182.998 59.1176 182.998 59.1377 183 59.1577C185.14 59.5277 186.79 58.9377 188.93 57.5877C189.05 57.4877 189.18 57.5977 189.07 57.7277Z" fill="#263238"/>
<path d="M184.1 59.7773C184.836 60.6545 185.787 61.3262 186.86 61.7273C187.455 61.9179 188.095 61.9179 188.69 61.7273C189.99 61.3173 189.96 60.1073 189.69 59.0873C189.527 58.5434 189.302 58.02 189.02 57.5273C187.664 58.7859 185.939 59.5748 184.1 59.7773Z" fill="#263238"/>
<path d="M186.86 61.7269C187.455 61.9175 188.095 61.9175 188.69 61.7269C189.99 61.3169 189.96 60.1069 189.69 59.0869C188.989 59.1407 188.327 59.4313 187.812 59.911C187.298 60.3908 186.962 61.0311 186.86 61.7269Z" fill="#F392B9"/>
<path d="M210.76 50.617C211.36 48.467 216.91 25.287 216.3 22.757C215.74 20.457 213.22 21.397 213.19 21.267C213.16 21.137 213.07 19.037 211.77 18.267C211.327 18.0746 210.848 17.9754 210.365 17.9754C209.882 17.9754 209.403 18.0746 208.96 18.267C208.96 18.267 208.57 16.057 207.18 15.457C206.715 15.3097 206.219 15.2866 205.741 15.3901C205.264 15.4936 204.823 15.7201 204.46 16.047C204.332 15.4598 204.063 14.9125 203.676 14.4525C203.29 13.9925 202.797 13.6337 202.24 13.407C201.744 13.2633 201.214 13.2829 200.73 13.463C200.246 13.643 199.832 13.974 199.55 14.407C199.55 14.407 198.96 12.297 197.55 11.887C196.14 11.477 194.85 13.047 194.85 13.047C194.642 12.5149 194.294 12.0486 193.844 11.6967C193.393 11.3449 192.857 11.1205 192.29 11.047C191.739 11.0846 191.212 11.2854 190.776 11.6238C190.339 11.9622 190.014 12.4228 189.84 12.947C189.84 12.947 188.84 11.087 187.14 11.037C185.44 10.987 184.92 13.037 184.92 13.037C184.92 13.037 184.24 11.197 182.68 11.317C181.12 11.437 180.76 13.617 180.76 13.617C180.76 13.617 179.89 11.617 178.05 12.187C175.24 13.097 174.89 26.537 174.25 32.377C174.25 32.377 175.03 29.587 176.25 29.487C177.47 29.387 178.33 31.277 180.56 31.777C183.73 32.477 189.01 28.777 193.38 29.687C197.75 30.597 200.77 35.057 202.3 41.687C203.97 49.377 209.34 55.717 210.76 50.617Z" fill="#263238"/>
<path d="M189.52 55.4378C187.726 55.1095 186.136 54.0824 185.099 52.5824C184.062 51.0823 183.663 49.2319 183.99 47.4378C184.22 46.1772 184.798 45.0062 185.66 44.058C186.522 43.1097 187.633 42.4223 188.866 42.0737C190.099 41.7252 191.405 41.7295 192.636 42.0861C193.867 42.4428 194.973 43.1375 195.828 44.0914C196.684 45.0453 197.255 46.22 197.476 47.4822C197.697 48.7443 197.56 50.0432 197.08 51.2314C196.6 52.4195 195.797 53.4491 194.761 54.2033C193.725 54.9575 192.498 55.406 191.22 55.4978C190.653 55.547 190.082 55.5269 189.52 55.4378ZM184.89 47.6378C184.681 48.794 184.82 49.9861 185.289 51.0634C185.757 52.1407 186.535 53.0548 187.523 53.6901C188.512 54.3254 189.666 54.6534 190.841 54.6325C192.016 54.6117 193.158 54.2429 194.123 53.5729C195.088 52.903 195.833 51.9618 196.263 50.8686C196.693 49.7753 196.789 48.579 196.54 47.431C196.29 46.283 195.705 45.2348 194.86 44.419C194.015 43.6032 192.946 43.0564 191.79 42.8478C191.306 42.757 190.811 42.7301 190.32 42.7678C189.002 42.8585 187.751 43.3869 186.768 44.2692C185.784 45.1515 185.123 46.3371 184.89 47.6378Z" fill="#4B64EF"/>
<path d="M175.06 54.7174C172.25 54.5874 170.11 51.4074 170.28 47.6374C170.33 45.9283 170.914 44.2778 171.95 42.9174C172.359 42.3069 172.919 41.8123 173.575 41.4815C174.231 41.1507 174.962 40.9948 175.696 41.029C176.43 41.0632 177.143 41.2863 177.765 41.6767C178.388 42.067 178.899 42.6115 179.25 43.2574C180.154 44.7065 180.581 46.4029 180.47 48.1074C180.31 51.6874 178.12 54.5274 175.47 54.7174H175.06ZM172.66 43.4874C171.747 44.6971 171.237 46.1625 171.2 47.6774C171.05 50.9474 172.8 53.6774 175.1 53.8074C177.4 53.9374 179.41 51.3374 179.56 48.0674C179.655 46.5549 179.281 45.0499 178.49 43.7574C178.196 43.2504 177.785 42.8213 177.291 42.5063C176.796 42.1914 176.234 41.9997 175.65 41.9474H175.34C174.811 42.0032 174.299 42.169 173.837 42.4342C173.376 42.6994 172.975 43.0581 172.66 43.4874Z" fill="#4B64EF"/>
<path d="M184.18 48.2772L184.8 47.5972C183.8 46.6772 181.46 45.3972 179.7 47.1072L180.34 47.7572C181.91 46.2272 184.09 48.1872 184.18 48.2772Z" fill="#4B64EF"/>
<path d="M214.6 51.4472L215.44 51.0672C215.26 50.6772 213.63 47.2572 211.61 46.8372C209.59 46.4172 197.39 47.0172 196.86 47.0472V47.9572C200.39 47.7872 209.86 47.4272 211.37 47.7272C212.88 48.0272 214.17 50.5072 214.6 51.4472Z" fill="#4B64EF"/>
<path d="M205.34 49.7677C205.34 49.7677 210.24 41.5177 213.94 43.2077C217.64 44.8977 214.37 56.5677 210.31 58.4377C209.806 58.7139 209.251 58.8849 208.679 58.9406C208.107 58.9962 207.53 58.9352 206.982 58.7614C206.434 58.5875 205.927 58.3043 205.492 57.929C205.057 57.5537 204.702 57.094 204.45 56.5777L205.34 49.7677Z" fill="#D3766A"/>
<path d="M212.88 46.5273C212.891 46.532 212.9 46.5397 212.906 46.5495C212.913 46.5592 212.916 46.5707 212.916 46.5823C212.916 46.594 212.913 46.6054 212.906 46.6152C212.9 46.625 212.891 46.6327 212.88 46.6373C210.04 48.0473 208.7 50.8773 207.83 53.7773C208.62 52.6273 209.76 51.9373 211.29 52.8673C211.305 52.8792 211.315 52.8954 211.32 52.9137C211.325 52.9319 211.324 52.9513 211.318 52.969C211.311 52.9867 211.299 53.0019 211.283 53.0124C211.268 53.0228 211.249 53.0281 211.23 53.0273C210.702 52.9046 210.15 52.9472 209.647 53.1493C209.144 53.3515 208.716 53.7034 208.42 54.1573C207.933 54.9214 207.531 55.7362 207.22 56.5873C207.1 56.8573 206.62 56.7573 206.69 56.4473C206.694 56.4242 206.694 56.4005 206.69 56.3773C206.39 52.6473 208.9 47.2073 212.88 46.5273Z" fill="#263238"/>
<path d="M228.34 85.7374C260.97 108.177 284.52 143.357 286.79 150.737C292.28 168.737 300.47 200.437 301.73 214.677C302.2 219.947 261.62 218.967 260.94 213.357C258.83 195.777 251.27 157.537 251.08 156.887C249.73 152.257 238.21 132.227 226.37 110.437C214.53 88.6474 214.58 76.2874 228.34 85.7374Z" fill="#D3766A"/>
<path d="M264.16 268.897C268.3 270.317 270.99 266.657 270.99 266.657C272.37 268.348 274.298 269.501 276.44 269.917C280.25 270.477 282.79 264.747 282.79 264.747C284.591 266.198 286.785 267.076 289.09 267.267C292.79 267.427 296.17 262.017 296.17 262.017C298.562 262.427 301.022 261.974 303.11 260.737C306.62 258.477 308.35 247.287 308.29 240.987C308.23 234.687 302.16 216.887 301.35 213.367H260.92C260.92 213.367 253.15 241.677 254.28 249.077C255.22 255.347 259.51 267.307 264.16 268.897Z" fill="#D3766A"/>
<path d="M270.34 266.387C267.75 259.997 267.18 253.197 266.23 246.437C266.23 246.406 266.243 246.375 266.265 246.353C266.288 246.33 266.318 246.317 266.35 246.317C266.382 246.317 266.412 246.33 266.435 246.353C266.457 246.375 266.47 246.406 266.47 246.437C267.33 253.167 269.52 259.647 270.66 266.327C270.656 266.364 270.641 266.398 270.616 266.425C270.591 266.451 270.558 266.47 270.522 266.476C270.486 266.483 270.449 266.478 270.416 266.462C270.384 266.446 270.357 266.42 270.34 266.387Z" fill="#263238"/>
<path d="M282.26 264.618C281.813 263.11 281.564 261.55 281.52 259.978C281.367 258.318 281.247 256.651 281.16 254.978C280.97 251.648 280.85 248.318 280.84 244.978C280.84 244.828 281.06 244.788 281.07 244.978C281.27 248.298 281.51 251.608 281.84 254.908C282.01 256.568 282.19 258.218 282.38 259.908C282.664 261.454 282.775 263.027 282.71 264.598C282.695 264.644 282.666 264.685 282.627 264.715C282.588 264.745 282.541 264.762 282.492 264.764C282.443 264.767 282.394 264.754 282.353 264.727C282.311 264.701 282.279 264.663 282.26 264.618Z" fill="#263238"/>
<path d="M296.16 261.877C295.773 260.506 295.624 259.079 295.72 257.657C295.66 256.147 295.6 254.657 295.53 253.107C295.39 250.107 295.24 247.047 294.99 244.017C294.99 243.986 295.003 243.955 295.025 243.933C295.048 243.91 295.078 243.897 295.11 243.897C295.142 243.897 295.172 243.91 295.195 243.933C295.217 243.955 295.23 243.986 295.23 244.017C295.49 247.087 295.8 250.157 296.05 253.237L296.38 257.767C296.602 259.137 296.579 260.536 296.31 261.897C296.303 261.912 296.291 261.925 296.276 261.932C296.261 261.94 296.244 261.943 296.228 261.941C296.211 261.939 296.196 261.931 296.184 261.92C296.172 261.909 296.163 261.894 296.16 261.877Z" fill="#263238"/>
<path d="M258.99 213.847L303.34 210.267C303.34 210.267 293.57 162.497 288.27 149.587C282.97 136.677 256.58 104.827 229.06 85.9472C210.34 73.1172 211.5 84.0572 220.15 101.057C228.8 118.057 249.15 156.967 250.15 160.057C251.15 163.147 258.99 213.847 258.99 213.847Z" fill="#4B64EF"/>
<path d="M259.77 204.698C261.43 204.308 276.48 202.928 279.77 202.698L289.6 202.018C292.99 201.788 296.43 201.398 299.83 201.438C299.848 201.432 299.867 201.431 299.885 201.434C299.904 201.438 299.921 201.445 299.936 201.456C299.951 201.468 299.963 201.482 299.972 201.499C299.98 201.515 299.984 201.534 299.984 201.553C299.984 201.571 299.98 201.59 299.972 201.606C299.963 201.623 299.951 201.638 299.936 201.649C299.921 201.66 299.904 201.668 299.885 201.671C299.867 201.674 299.848 201.673 299.83 201.668C296.49 202.258 293.03 202.428 289.66 202.748L279.66 203.688C276.32 203.988 261.41 205.028 259.76 204.918C259.63 204.908 259.66 204.728 259.77 204.698Z" fill="#263238"/>
</svg>
