<svg width="576" height="518" viewBox="0 0 576 518" fill="none" xmlns="http://www.w3.org/2000/svg">
<path d="M302.865 14.0536L296.245 31.9777L310.151 21.2761L363.299 2.28613L302.865 14.0536Z" fill="#4B64EF"/>
<path opacity="0.1" d="M302.865 14.0536L296.245 31.9777L310.151 21.2761L363.299 2.28613L302.865 14.0536Z" fill="black"/>
<path d="M311.933 25.4517L296.245 31.975L310.151 21.2734L311.933 25.4517Z" fill="#263238"/>
<path d="M310.15 21.2761L363.298 2.28613L319.703 44.2057L310.15 21.2761Z" fill="#4B64EF"/>
<path d="M302.864 14.0528L280.781 0L363.298 2.28528L302.864 14.0528Z" fill="#4B64EF"/>
<g style="mix-blend-mode:multiply">
<path d="M278.399 508.388C359.112 508.388 424.543 498.197 424.543 485.626C424.543 473.054 359.112 462.863 278.399 462.863C197.686 462.863 132.256 473.054 132.256 485.626C132.256 498.197 197.686 508.388 278.399 508.388Z" fill="#EBEBEB"/>
<path d="M136.544 517.9C211.955 517.9 273.088 508.381 273.088 496.64C273.088 484.898 211.955 475.38 136.544 475.38C61.1328 475.38 0 484.898 0 496.64C0 508.381 61.1328 517.9 136.544 517.9Z" fill="#EBEBEB"/>
<path d="M439.455 517.9C514.867 517.9 575.999 508.381 575.999 496.64C575.999 484.898 514.867 475.38 439.455 475.38C364.044 475.38 302.912 484.898 302.912 496.64C302.912 508.381 364.044 517.9 439.455 517.9Z" fill="#EBEBEB"/>
</g>
<path d="M338.338 287.186C339.988 291.903 338.188 299.503 341.95 299.343C345.3 299.232 346.025 293.886 346.025 293.886C346.025 293.886 347.188 300.168 350.75 299.047C354.312 297.926 353.912 291.903 353.912 291.903C353.912 291.903 354.637 297.175 358.112 295.808C361.587 294.441 362.199 289.255 362.199 289.255C362.199 289.255 363.449 290.622 365.474 288.565C368.362 285.621 367.137 276.851 365.387 272.417C363.637 267.983 353.937 253.042 352.412 250.775L323.464 261.565C323.464 261.565 322.876 270.853 323.164 275.595C323.451 280.337 328.788 295.709 332.751 294.662C336.713 293.615 332.751 282.825 332.363 279.968C331.976 277.11 332.588 276.543 333.776 277.701C334.551 278.49 337.613 285.141 338.338 287.186Z" fill="#AD6359"/>
<path d="M345.937 293.649C346.412 286.135 345.312 282.76 341.699 276.244C341.624 276.121 341.799 275.985 341.887 276.121C346.012 282.169 348.024 286.209 346.299 293.698C346.224 294.055 345.912 294.006 345.937 293.649Z" fill="#263238"/>
<path d="M353.812 292.257C353.624 284.398 352.449 280.727 349.187 273.633C349.187 273.534 349.299 273.448 349.362 273.546C353.112 280.235 355.074 284.312 354.212 292.183C354.174 292.54 353.824 292.614 353.812 292.257Z" fill="#263238"/>
<path d="M362.124 289.205C361.387 281.618 360.274 277.54 356.212 271.062C356.201 271.047 356.194 271.03 356.189 271.013C356.185 270.996 356.184 270.977 356.187 270.96C356.19 270.942 356.197 270.925 356.206 270.91C356.216 270.894 356.228 270.881 356.243 270.871C356.258 270.86 356.275 270.853 356.292 270.848C356.31 270.844 356.328 270.844 356.346 270.846C356.364 270.849 356.382 270.856 356.397 270.865C356.413 270.875 356.426 270.887 356.437 270.901C361.249 277.06 362.687 282.184 362.362 289.168C362.337 289.648 362.174 289.649 362.124 289.205Z" fill="#263238"/>
<path d="M303.977 161.695C323.489 185.492 349.9 243.815 353.063 252.117C355.213 257.759 325.214 269.62 324.314 265.568C323.189 260.394 303.577 195.974 298.965 171.955C296.453 158.628 299.94 156.78 303.977 161.695Z" fill="#AD6359"/>
<path d="M298.726 177.999C301.939 199.985 321.113 260.981 321.113 260.981L343.849 252.457L355.324 248.146C355.324 248.146 322.825 187.237 309.163 167.061C308.101 165.509 307.126 164.166 306.226 163.045C297.601 152.231 296.251 161.062 298.726 177.999Z" fill="#455A64"/>
<path d="M343.989 241.865C343.572 240.307 343.572 238.669 343.989 237.11C344.406 238.669 344.406 240.307 343.989 241.865Z" fill="white"/>
<path d="M302.689 164.96C302.469 164.183 302.363 163.378 302.377 162.571C302.363 161.767 302.469 160.967 302.689 160.193C302.903 160.968 303.008 161.768 303.002 162.571C303.009 163.377 302.903 164.181 302.689 164.96Z" fill="white"/>
<path d="M328.126 229.699C329.707 229.288 331.369 229.288 332.951 229.699C331.369 230.11 329.707 230.11 328.126 229.699Z" fill="white"/>
<path d="M316.326 199.276C317.912 198.865 319.578 198.865 321.163 199.276C320.38 199.498 319.566 199.602 318.751 199.584C317.932 199.597 317.115 199.493 316.326 199.276Z" fill="white"/>
<path d="M334.664 216.731C333.956 216.333 333.308 215.84 332.739 215.265C332.152 214.708 331.65 214.069 331.251 213.368C332.662 214.183 333.837 215.341 334.664 216.731Z" fill="white"/>
<path d="M310.727 179.369C310.019 178.971 309.372 178.477 308.802 177.903C308.215 177.346 307.714 176.706 307.315 176.006C308.026 176.399 308.674 176.893 309.24 177.472C309.823 178.033 310.324 178.671 310.727 179.369Z" fill="white"/>
<path d="M317.901 240.851C316.484 240.041 315.304 238.882 314.477 237.488C315.191 237.881 315.844 238.375 316.414 238.954C316.994 239.518 317.494 240.156 317.901 240.851Z" fill="white"/>
<path d="M318.751 215.746C318.344 216.445 317.844 217.087 317.264 217.655C316.691 218.231 316.038 218.724 315.326 219.121C316.148 217.72 317.329 216.556 318.751 215.746Z" fill="white"/>
<path d="M333.776 249C332.953 250.397 331.778 251.56 330.363 252.375C330.763 251.671 331.264 251.028 331.851 250.466C332.42 249.891 333.068 249.398 333.776 249Z" fill="white"/>
<path d="M309.012 187.804C308.185 189.194 307.011 190.351 305.6 191.166C306.427 189.776 307.602 188.619 309.012 187.804Z" fill="white"/>
<path d="M319.849 254.408C333.349 248.138 348.486 243.581 351.098 242.596C351.111 242.591 351.125 242.59 351.139 242.591C351.152 242.592 351.166 242.596 351.178 242.603C351.19 242.609 351.201 242.617 351.21 242.628C351.218 242.638 351.225 242.65 351.229 242.663C351.233 242.676 351.235 242.69 351.234 242.703C351.232 242.717 351.228 242.73 351.222 242.742C351.216 242.754 351.207 242.765 351.196 242.773C351.186 242.782 351.174 242.789 351.161 242.793C348.573 243.63 331.849 250.688 319.912 254.617C319.774 254.667 319.724 254.469 319.849 254.408Z" fill="#263238"/>
<path d="M341.637 253.288L321.113 260.987C321.113 260.987 301.939 199.991 298.727 178.004C297.102 166.919 297.127 159.282 299.764 158.407L341.637 253.288Z" fill="#263238"/>
<path d="M282.452 421.729C282.452 421.729 282.452 467.168 282.452 467.205C282.452 475.889 282.527 483.514 282.952 487.443C282.946 487.467 282.946 487.492 282.952 487.517C282.956 488.448 283.174 489.366 283.59 490.202C286.202 491.976 356.674 494.353 359.161 493.614C361.649 492.875 359.724 485.842 357.061 483.6C354.399 481.358 327.825 468.56 327.825 468.56L327.375 423.134L282.452 421.729Z" fill="#DD6A57"/>
<path d="M282.465 457.867V467.204C282.465 475.888 282.54 483.512 282.965 487.441C282.959 487.466 282.959 487.491 282.965 487.515C283.069 488.432 283.283 489.333 283.602 490.2C286.215 491.974 356.686 494.351 359.174 493.612C361.661 492.873 359.736 485.84 357.074 483.598C354.412 481.356 327.838 468.559 327.838 468.559L327.963 459.087L282.465 457.867Z" fill="#455A64"/>
<path d="M359.251 493.662C356.751 494.401 286.304 492.024 283.679 490.25C282.667 489.597 282.429 479.46 282.429 467.204V466.822L327.902 467.845V468.608C327.902 468.608 354.463 481.406 357.138 483.648C359.813 485.89 361.751 492.947 359.251 493.662Z" fill="#455A64"/>
<path d="M358.538 490.953C346.663 490.263 298.728 488.588 286.953 488.797C286.853 488.797 286.853 488.859 286.953 488.871C298.703 489.807 346.651 491.088 358.538 491.138C358.775 491.138 358.788 490.965 358.538 490.953Z" fill="#263238"/>
<path d="M331.751 468.879C327.113 467.857 321.376 468.374 317.689 471.527C317.539 471.651 317.689 471.848 317.876 471.811C322.377 470.547 327.004 469.767 331.676 469.483C331.757 469.492 331.839 469.47 331.903 469.42C331.968 469.371 332.009 469.298 332.019 469.218C332.029 469.138 332.006 469.057 331.956 468.994C331.906 468.93 331.832 468.889 331.751 468.879Z" fill="#263238"/>
<path d="M335.026 470.988C330.376 469.978 324.639 470.496 320.951 473.649C320.814 473.772 320.951 473.969 321.139 473.932C325.655 472.656 330.299 471.867 334.988 471.579C335.068 471.584 335.146 471.558 335.206 471.506C335.266 471.454 335.302 471.381 335.307 471.302C335.312 471.224 335.285 471.147 335.232 471.088C335.18 471.029 335.105 470.993 335.026 470.988Z" fill="#263238"/>
<path d="M338.324 473.101C333.687 472.09 327.937 472.608 324.25 475.761C324.112 475.884 324.25 476.081 324.45 476.044C328.962 474.767 333.601 473.979 338.287 473.692C338.366 473.697 338.445 473.67 338.504 473.618C338.564 473.566 338.6 473.493 338.605 473.415C338.61 473.336 338.584 473.259 338.531 473.2C338.478 473.141 338.404 473.105 338.324 473.101Z" fill="#263238"/>
<path d="M278.416 253.227L280.178 389.051L281.216 469.114L330.539 468.153L320.889 250.517L320.402 225.599H278.754L278.416 253.227Z" fill="#DBDBDB"/>
<path d="M328.477 460.034C320.777 459.973 322.977 459.886 315.277 459.899C311.528 459.899 286.741 459.997 283.229 460.613C283.209 460.613 283.19 460.621 283.176 460.635C283.162 460.649 283.154 460.667 283.154 460.687C283.154 460.707 283.162 460.725 283.176 460.739C283.19 460.753 283.209 460.761 283.229 460.761C286.754 461.303 311.515 460.761 315.277 460.761C322.977 460.588 320.765 460.551 328.464 460.305C328.482 460.306 328.5 460.303 328.517 460.297C328.534 460.291 328.55 460.282 328.563 460.27C328.577 460.258 328.587 460.243 328.595 460.227C328.603 460.211 328.607 460.194 328.608 460.176C328.609 460.158 328.606 460.14 328.6 460.123C328.594 460.107 328.584 460.091 328.572 460.078C328.56 460.065 328.545 460.054 328.529 460.047C328.513 460.039 328.495 460.035 328.477 460.034Z" fill="#263238"/>
<path d="M306.501 261.616C306.501 261.517 306.663 261.517 306.663 261.616C306.663 274.315 307.063 287.027 307.376 299.726C307.688 312.425 308.063 325.137 308.413 337.848C309.113 363.234 310.15 388.621 311.1 414.007C311.634 428.246 312.3 442.481 313.1 456.711C313.1 456.797 312.963 456.797 312.95 456.711C311.088 431.35 309.288 405.988 308.276 380.577C307.263 355.167 306.513 329.793 306.388 304.382C306.326 290.131 306.526 275.879 306.501 261.616Z" fill="#263238"/>
<path d="M278.416 253.227L280.178 389.051L313.239 225.599H278.754L278.416 253.227Z" fill="#263238"/>
<path d="M272.641 423.085C272.641 423.085 266.753 466.405 266.753 466.43C266.753 475.126 266.491 482.738 266.016 486.68C266.021 486.7 266.021 486.721 266.016 486.741C266.003 487.67 265.776 488.584 265.354 489.414V489.476C262.716 491.213 192.219 492.789 189.744 492.025C187.27 491.262 189.27 484.253 191.957 482.036C194.644 479.819 221.368 467.329 221.368 467.329L228.768 421.939L272.641 423.085Z" fill="#DD6A57"/>
<path d="M267.506 457.163C267.043 462.595 266.731 466.438 266.731 466.463C266.731 475.159 266.468 482.771 265.993 486.713C265.998 486.733 265.998 486.754 265.993 486.774C265.88 487.688 265.658 488.585 265.331 489.447V489.509C262.693 491.245 192.196 492.822 189.722 492.058C187.247 491.295 189.247 484.286 191.934 482.069C194.621 479.852 221.345 467.362 221.345 467.362L222.22 457.779L267.506 457.163Z" fill="#455A64"/>
<path d="M189.657 492.024C192.157 492.788 262.617 491.211 265.266 489.475C266.279 488.822 266.641 478.697 266.729 466.429V466.047L221.243 466.564V467.328C221.243 467.328 194.532 479.818 191.832 482.035C189.132 484.252 187.17 491.273 189.657 492.024Z" fill="#455A64"/>
<path d="M190.395 489.314C202.27 488.76 250.217 487.639 261.992 487.972C262.092 487.972 262.092 488.046 261.992 488.046C250.23 488.846 202.27 489.598 190.383 489.511C190.145 489.499 190.145 489.327 190.395 489.314Z" fill="#263238"/>
<path d="M216.181 466.81C220.843 465.849 226.58 466.428 230.23 469.631C230.368 469.754 230.23 469.951 230.03 469.902C225.529 468.596 220.899 467.77 216.218 467.438C216.134 467.443 216.051 467.415 215.988 467.359C215.924 467.304 215.886 467.226 215.881 467.142C215.876 467.059 215.905 466.977 215.961 466.915C216.017 466.853 216.096 466.815 216.181 466.81Z" fill="#263238"/>
<path d="M212.856 468.889C217.518 467.916 223.243 468.495 226.893 471.697C227.043 471.833 226.893 472.018 226.706 471.981C222.204 470.675 217.574 469.849 212.894 469.517C212.852 469.52 212.81 469.514 212.77 469.5C212.731 469.487 212.694 469.466 212.663 469.438C212.631 469.411 212.606 469.378 212.588 469.34C212.569 469.303 212.559 469.263 212.556 469.222C212.554 469.18 212.56 469.139 212.573 469.1C212.587 469.061 212.608 469.025 212.636 468.994C212.664 468.963 212.698 468.938 212.736 468.92C212.773 468.902 212.814 468.891 212.856 468.889Z" fill="#263238"/>
<path d="M209.53 470.971C214.18 469.998 219.917 470.577 223.567 473.779C223.704 473.903 223.567 474.1 223.379 474.063C218.874 472.756 214.239 471.93 209.555 471.599C209.471 471.602 209.388 471.572 209.326 471.516C209.264 471.459 209.227 471.381 209.224 471.297C209.221 471.214 209.251 471.133 209.308 471.072C209.366 471.01 209.446 470.974 209.53 470.971Z" fill="#263238"/>
<path d="M316.165 225.599C315.99 226.449 313.078 239.764 310.053 251.207C307.853 259.558 305.603 266.911 304.303 267.663C303.003 268.414 295.679 271.641 293.279 272.59L282.342 375.748L267.667 468.547L218.457 466.01L257.918 225.599H316.165Z" fill="#DBDBDB"/>
<path d="M267.404 459.715C259.717 459.222 261.929 459.259 254.242 458.853C250.492 458.656 225.756 457.362 222.206 457.781C222.186 457.781 222.167 457.789 222.153 457.803C222.139 457.817 222.131 457.835 222.131 457.855C222.131 457.875 222.139 457.893 222.153 457.907C222.167 457.921 222.186 457.929 222.206 457.929C225.693 458.668 250.442 459.53 254.204 459.653C261.904 459.924 259.704 459.764 267.391 459.937C267.406 459.938 267.421 459.935 267.435 459.931C267.449 459.926 267.462 459.918 267.473 459.909C267.484 459.899 267.493 459.887 267.499 459.874C267.506 459.861 267.509 459.847 267.51 459.832C267.511 459.817 267.509 459.803 267.504 459.789C267.499 459.775 267.491 459.763 267.482 459.752C267.472 459.741 267.46 459.732 267.446 459.726C267.433 459.719 267.419 459.716 267.404 459.715Z" fill="#263238"/>
<path d="M239.255 433.269C240.455 426.642 241.667 420.016 242.892 413.389C245.392 400.127 247.892 386.873 250.392 373.628C255.442 347.105 260.442 320.573 265.391 294.033C268.166 279.031 268.091 280.484 270.504 265.383C270.504 265.284 270.691 265.297 270.679 265.383C268.354 278.76 269.429 275.828 267.266 289.229C265.104 302.631 262.791 315.749 260.379 328.978C255.542 355.559 250.467 382.09 245.38 408.622C243.946 416.062 242.488 423.493 241.005 430.916C239.505 438.504 237.793 446.03 236.205 453.593C236.205 453.765 235.905 453.741 235.93 453.593C236.955 446.818 238.005 440.031 239.255 433.269Z" fill="#263238"/>
<path d="M252.53 266.366C253.78 266.046 255.193 265.935 256.505 265.738C257.568 265.565 258.63 265.381 259.68 265.159C261.692 264.8 263.6 264.01 265.267 262.843C266.937 261.327 268.185 259.414 268.892 257.288C269.417 256.056 269.955 254.825 270.505 253.679C270.767 253.1 271.03 252.521 271.305 251.942C271.678 251.268 272.012 250.573 272.305 249.861C272.305 249.75 272.505 249.861 272.455 249.861C272.255 250.341 272.167 250.871 272.017 251.364C271.867 251.856 271.667 252.595 271.48 253.113C271.155 254.16 270.83 255.194 270.492 256.229C269.965 258.13 269.21 259.961 268.242 261.686C266.305 264.74 262.83 265.96 259.355 266.391C258.368 266.514 257.355 266.588 256.355 266.649C255.108 266.752 253.853 266.752 252.605 266.649C252.38 266.686 252.318 266.415 252.53 266.366Z" fill="#263238"/>
<path d="M308.102 265.799C302.995 267.624 298.06 269.887 293.353 272.562C293.333 272.571 293.316 272.583 293.301 272.599C293.286 272.615 293.275 272.633 293.267 272.653C293.26 272.673 293.256 272.694 293.257 272.716C293.258 272.737 293.263 272.758 293.272 272.777C293.281 272.797 293.294 272.814 293.31 272.829C293.325 272.843 293.344 272.854 293.364 272.862C293.385 272.869 293.406 272.873 293.428 272.872C293.45 272.871 293.471 272.866 293.491 272.857C298.49 270.763 303.49 268.743 308.365 266.378C308.431 266.337 308.48 266.274 308.503 266.2C308.525 266.126 308.52 266.047 308.488 265.977C308.457 265.906 308.4 265.85 308.329 265.817C308.258 265.785 308.178 265.778 308.102 265.799Z" fill="#263238"/>
<path d="M309.588 232.274C309.588 232.102 309.276 232.065 309.276 232.274C309.275 237.733 308.995 243.188 308.439 248.62C308.214 251.145 306.151 265.076 301.714 264.066C300.976 263.893 300.601 263.179 300.464 262.07C300.486 260.628 300.684 259.193 301.051 257.796C301.551 254.877 301.939 251.958 302.201 249.001C302.72 243.516 302.657 237.993 302.014 232.521C302.005 232.49 301.986 232.463 301.96 232.444C301.934 232.425 301.902 232.415 301.87 232.415C301.838 232.415 301.806 232.425 301.78 232.444C301.755 232.463 301.736 232.49 301.726 232.521C301.865 240.131 301.414 247.741 300.376 255.283C299.826 258.905 297.976 264.361 301.814 264.928C305.651 265.494 308.276 256.306 308.751 253.842C309.979 246.719 310.26 239.469 309.588 232.274Z" fill="#263238"/>
<path d="M301.839 264.411C301.443 265.354 301.109 266.321 300.84 267.306C300.554 268.066 300.414 268.872 300.427 269.683C300.427 269.831 300.652 269.843 300.727 269.683C301.178 269.003 301.524 268.26 301.752 267.478C302.089 266.591 302.439 265.705 302.752 264.805C302.792 264.689 302.787 264.561 302.736 264.448C302.686 264.335 302.594 264.245 302.479 264.196C302.365 264.146 302.235 264.141 302.117 264.181C301.998 264.221 301.899 264.303 301.839 264.411Z" fill="#263238"/>
<path d="M251.066 248.667C251.241 248.852 325.288 246.549 325.938 245.785C326.838 244.689 310.939 172.225 298.439 156.878C295.289 153.047 284.69 151.951 280.527 156.262C268.465 168.579 266.291 177.423 263.403 185.639C261.266 191.711 258.841 202.033 256.716 212.59C253.166 229.982 250.429 248.002 251.066 248.667Z" fill="#455A64"/>
<path d="M303.114 231.41C302.893 230.636 302.788 229.836 302.801 229.033C302.782 228.229 302.887 227.427 303.114 226.655C303.531 228.213 303.531 229.852 303.114 231.41Z" fill="white"/>
<path d="M294.504 198.01C294.289 197.235 294.184 196.436 294.191 195.633C294.184 194.826 294.289 194.022 294.504 193.243C294.724 194.021 294.829 194.826 294.816 195.633C294.829 196.436 294.724 197.237 294.504 198.01Z" fill="white"/>
<path d="M271.264 184.789C271.044 184.016 270.939 183.215 270.952 182.412C270.939 181.605 271.044 180.8 271.264 180.022C271.485 180.8 271.59 181.605 271.577 182.412C271.584 183.215 271.479 184.015 271.264 184.789Z" fill="white"/>
<path d="M271.577 224.92C271.16 223.361 271.16 221.723 271.577 220.165C271.798 220.938 271.903 221.739 271.89 222.542C271.897 223.345 271.792 224.145 271.577 224.92Z" fill="white"/>
<path d="M285.192 218.462C286.774 218.052 288.436 218.052 290.017 218.462C288.436 218.873 286.774 218.873 285.192 218.462Z" fill="white"/>
<path d="M268.004 198.72C269.589 198.309 271.256 198.309 272.841 198.72C271.256 199.131 269.589 199.131 268.004 198.72Z" fill="white"/>
<path d="M292.091 176.327C292.876 176.11 293.688 176.006 294.503 176.019C295.319 175.999 296.132 176.103 296.916 176.327C295.334 176.738 293.672 176.738 292.091 176.327Z" fill="white"/>
<path d="M266.167 239.796C267.752 239.386 269.419 239.386 271.004 239.796C269.419 240.207 267.752 240.207 266.167 239.796Z" fill="white"/>
<path d="M299.403 243.644C300.194 243.433 301.009 243.329 301.828 243.336C302.643 243.329 303.455 243.433 304.241 243.644C303.456 243.861 302.643 243.965 301.828 243.952C301.009 243.965 300.192 243.861 299.403 243.644Z" fill="white"/>
<path d="M289.316 239.794C288.602 239.4 287.949 238.907 287.379 238.329C286.796 237.768 286.295 237.129 285.891 236.432C286.606 236.825 287.259 237.319 287.829 237.897C288.408 238.461 288.909 239.099 289.316 239.794Z" fill="white"/>
<path d="M264.142 213.282C262.725 212.471 261.545 211.313 260.717 209.919C261.431 210.313 262.084 210.807 262.655 211.385C263.238 211.946 263.738 212.584 264.142 213.282Z" fill="white"/>
<path d="M304.389 210.41C302.975 209.595 301.799 208.432 300.977 207.035C301.685 207.433 302.333 207.926 302.902 208.501C303.489 209.063 303.99 209.706 304.389 210.41Z" fill="white"/>
<path d="M285.19 186.513C283.773 185.703 282.593 184.544 281.766 183.15C282.48 183.543 283.133 184.037 283.703 184.616C284.283 185.18 284.783 185.818 285.19 186.513Z" fill="white"/>
<path d="M317.901 240.851C316.484 240.041 315.304 238.882 314.477 237.488C315.191 237.881 315.844 238.375 316.414 238.954C316.994 239.518 317.494 240.156 317.901 240.851Z" fill="white"/>
<path d="M318.751 215.746C318.344 216.445 317.844 217.087 317.264 217.655C316.691 218.231 316.038 218.724 315.326 219.121C316.148 217.72 317.329 216.556 318.751 215.746Z" fill="white"/>
<path d="M283.002 206.081C282.175 207.471 281 208.629 279.589 209.444C279.988 208.743 280.49 208.104 281.077 207.547C281.646 206.972 282.294 206.479 283.002 206.081Z" fill="white"/>
<path d="M257.915 229.217C257.088 230.607 255.913 231.764 254.502 232.579C255.329 231.189 256.504 230.032 257.915 229.217Z" fill="white"/>
<path d="M309.012 187.804C308.185 189.194 307.011 190.351 305.6 191.166C306.427 189.776 307.602 188.619 309.012 187.804Z" fill="white"/>
<path d="M281.29 168.174C280.887 168.876 280.386 169.518 279.802 170.083C279.23 170.654 278.583 171.147 277.877 171.549C278.277 170.845 278.778 170.202 279.365 169.64C279.934 169.065 280.582 168.572 281.29 168.174Z" fill="white"/>
<path d="M294.815 166.071C291.753 166.662 284.466 161.92 281.228 157.448C281.002 154.774 280.914 152.089 280.966 149.405C280.891 146.819 280.741 143.961 280.403 141.35C280.403 140.808 282.316 141.571 282.316 141.571L285.841 141.965L297.503 143.296C296.969 146.669 296.856 150.094 297.165 153.495C297.213 153.855 297.297 154.21 297.415 154.554C297.415 154.554 297.415 154.665 297.415 154.726C298.003 156.771 299.615 165.135 294.815 166.071Z" fill="#AD6359"/>
<path d="M297.414 154.601C297.414 154.601 297.414 154.712 297.414 154.774C296.857 154.917 296.288 155.016 295.714 155.069C284.465 156.19 281.353 142.37 281.353 142.37L285.79 142.013L297.452 143.343C296.919 146.716 296.805 150.141 297.114 153.542C297.179 153.904 297.279 154.259 297.414 154.601Z" fill="#263238"/>
<path d="M277.328 119.321C275.528 125.172 278.703 142.047 282.928 145.803C289.065 151.248 299.077 151.74 303.752 144.486C308.302 137.452 303.752 115.54 299.052 112.128C292.09 107.102 279.978 110.687 277.328 119.321Z" fill="#AD6359"/>
<path d="M292.466 128.424C292.466 128.424 292.391 128.498 292.466 128.547C292.766 129.668 292.903 131.01 291.966 131.602C291.966 131.602 291.966 131.676 291.966 131.663C293.141 131.208 292.928 129.434 292.466 128.424Z" fill="#263238"/>
<path d="M291.176 127.479C289.301 127.75 289.989 131.421 291.726 131.175C293.463 130.928 292.751 127.258 291.176 127.479Z" fill="#263238"/>
<path d="M299.252 126.944C299.252 126.944 299.352 126.944 299.352 127.031C299.527 128.176 299.927 129.494 301.04 129.642V129.703C299.74 129.765 299.252 128.065 299.252 126.944Z" fill="#263238"/>
<path d="M300.054 125.58C301.892 125.099 302.717 128.733 301.029 129.176C299.342 129.62 298.529 125.974 300.054 125.58Z" fill="#263238"/>
<path d="M289.389 126.073C289.877 125.852 290.289 125.568 290.739 125.31C291.189 125.051 291.702 124.817 291.989 124.263C292.05 124.1 292.053 123.921 291.999 123.756C291.944 123.591 291.835 123.448 291.689 123.351C291.369 123.201 291.014 123.137 290.661 123.165C290.308 123.193 289.968 123.312 289.677 123.511C289.029 123.829 288.525 124.374 288.264 125.039C288.215 125.19 288.21 125.352 288.25 125.506C288.291 125.66 288.375 125.8 288.493 125.908C288.611 126.017 288.758 126.09 288.917 126.119C289.075 126.148 289.239 126.133 289.389 126.073Z" fill="#263238"/>
<path d="M301.079 123.906C300.554 123.906 300.054 123.844 299.529 123.807C298.985 123.827 298.45 123.671 298.004 123.364C297.877 123.24 297.795 123.08 297.771 122.906C297.746 122.733 297.779 122.556 297.866 122.403C298.086 122.13 298.376 121.92 298.705 121.795C299.035 121.669 299.393 121.633 299.741 121.689C300.467 121.687 301.165 121.96 301.691 122.452C301.82 122.568 301.909 122.721 301.946 122.889C301.984 123.056 301.968 123.231 301.901 123.39C301.834 123.549 301.719 123.683 301.572 123.776C301.425 123.868 301.253 123.913 301.079 123.906Z" fill="#263238"/>
<path d="M293.39 139.168C293.715 139.389 294.053 139.71 294.477 139.66C294.904 139.575 295.309 139.403 295.665 139.155C295.665 139.155 295.74 139.155 295.727 139.155C295.604 139.408 295.413 139.622 295.175 139.776C294.937 139.93 294.662 140.018 294.378 140.03C294.133 140.011 293.899 139.921 293.706 139.772C293.512 139.623 293.368 139.422 293.29 139.192C293.29 139.192 293.34 139.143 293.39 139.168Z" fill="#263238"/>
<path d="M293.953 135.545C294.332 135.939 294.79 136.251 295.298 136.463C295.805 136.675 296.351 136.782 296.903 136.776C297.385 136.784 297.866 136.718 298.328 136.579C298.418 136.568 298.507 136.543 298.59 136.505L298.84 136.419C298.899 136.397 298.949 136.356 298.981 136.302C299.013 136.248 299.025 136.185 299.015 136.124C299.021 136.087 299.021 136.05 299.015 136.013V135.914C298.878 135.04 298.54 133.722 298.54 133.722C298.89 133.82 300.69 134.251 300.577 133.808C299.719 129.88 298.463 126.046 296.828 122.365C296.818 122.337 296.797 122.315 296.77 122.302C296.743 122.289 296.712 122.288 296.684 122.297C296.656 122.307 296.633 122.328 296.62 122.354C296.607 122.381 296.605 122.411 296.615 122.439C297.378 126.073 298.778 129.546 299.603 133.18C298.962 133.018 298.301 132.947 297.64 132.97C297.528 132.97 298.34 135.495 298.365 135.902C297.653 136.106 296.906 136.167 296.169 136.08C295.432 135.994 294.721 135.761 294.078 135.397C293.953 135.372 293.878 135.471 293.953 135.545Z" fill="#263238"/>
<path d="M297.716 136.243C297.351 136.956 296.804 137.563 296.129 138.005C295.758 138.24 295.32 138.352 294.879 138.325C293.917 138.251 293.729 137.426 293.767 136.674C293.789 136.281 293.86 135.892 293.979 135.517C295.116 136.142 296.424 136.396 297.716 136.243Z" fill="#263238"/>
<path d="M279.555 132.097C283.505 131.469 283.155 124.288 283.155 124.288C283.155 124.288 289.767 122.157 289.954 116.971C289.954 116.971 297.042 120.038 301.816 117.452C306.591 114.865 304.641 109.396 303.891 108.275C303.141 107.154 300.679 109.815 300.679 109.815C300.679 109.815 299.867 106.674 298.942 106.489C298.017 106.305 297.392 108.362 297.392 108.362C293.17 107.702 288.872 107.673 284.642 108.275C278.742 109.347 276.743 115.666 276.743 115.666C276.743 115.666 273.68 116.811 272.993 119.152C272.305 121.492 277.043 132.491 279.555 132.097Z" fill="#263238"/>
<path d="M281.565 124.594C286.915 124.483 289.865 120.505 289.84 115.442H289.94C290.515 120.086 286.953 125.888 281.553 124.841C281.52 124.839 281.489 124.824 281.466 124.8C281.444 124.776 281.433 124.744 281.434 124.711C281.436 124.679 281.451 124.648 281.475 124.626C281.5 124.604 281.532 124.593 281.565 124.594Z" fill="#263238"/>
<path d="M276.867 115.565C276.867 115.565 276.967 115.627 276.867 115.664C275.504 116.551 273.904 117.314 273.117 118.793C272.117 120.579 272.717 122.623 273.467 124.36C274.629 127.058 276.679 130.519 279.479 131.75C279.642 131.824 279.479 132.058 279.354 131.997C276.029 130.691 273.505 126.232 272.567 122.993C271.517 119.347 273.53 116.883 276.867 115.565Z" fill="#263238"/>
<path d="M295.927 117.538C297.256 118.054 298.704 118.2 300.113 117.961C301.521 117.722 302.836 117.107 303.914 116.183C306.414 113.855 305.301 110.813 303.689 108.386C303.614 108.263 303.776 108.103 303.889 108.214C305.876 110.259 306.564 113.732 304.614 116.048C302.664 118.364 298.552 119.004 295.764 117.883C295.502 117.785 295.702 117.44 295.927 117.538Z" fill="#263238"/>
<path d="M281.015 133.081C281.015 133.081 277.027 127.71 274.54 129.127C272.053 130.543 275.152 138.389 278.127 139.399C278.5 139.556 278.9 139.637 279.305 139.638C279.711 139.638 280.111 139.557 280.484 139.401C280.857 139.244 281.193 139.015 281.473 138.727C281.754 138.439 281.972 138.098 282.115 137.724L281.015 133.081Z" fill="#AD6359"/>
<path d="M275.502 131.343C275.502 131.343 275.439 131.417 275.502 131.429C276.461 131.874 277.316 132.512 278.011 133.301C278.706 134.089 279.227 135.013 279.539 136.011C279.414 135.808 279.246 135.634 279.046 135.501C278.845 135.369 278.618 135.282 278.38 135.245C278.141 135.209 277.898 135.224 277.666 135.291C277.435 135.357 277.221 135.473 277.039 135.629C276.977 135.629 277.039 135.74 277.039 135.728C277.401 135.605 277.793 135.597 278.16 135.702C278.527 135.808 278.852 136.024 279.089 136.319C279.479 136.819 279.818 137.355 280.102 137.92C280.202 138.093 280.527 137.994 280.452 137.785C280.502 135.137 278.327 131.552 275.502 131.343Z" fill="#263238"/>
<path d="M297.69 155.611L294.69 165.835L281.028 154.626L277.916 158.962C277.916 158.962 292.065 177.524 292.04 176.625L295.29 167.744L301.827 173.053L299.84 158.272L297.69 155.611Z" fill="#EBEBEB"/>
<path d="M301.265 165.699C300.852 163.236 300.502 160.773 300.015 158.42C300.015 158.334 299.852 158.309 299.852 158.42C299.59 160.822 301.215 170.084 301.427 172.326C301.152 172.092 295.402 167.683 295.352 167.769C294.602 169.198 292.215 175.664 292.065 176.243C289.828 173.299 280.428 161.733 277.853 158.999C277.778 158.925 277.653 158.999 277.716 159.097C279.741 162.251 291.928 177.573 292.065 177.475C293.363 174.408 294.494 171.275 295.452 168.089C296.452 169.087 302.327 174.125 302.302 173.755C302.102 171.054 301.756 168.365 301.265 165.699Z" fill="#263238"/>
<path d="M268.603 165.992C262.566 159.833 248.842 136.959 249.142 123.496C249.367 112.99 254.804 83.9946 258.129 76.5918C259.629 73.2291 282.29 87.7514 282.465 91.6806C282.64 95.6099 273.715 120.146 272.665 126.268C272.166 129.162 274.053 144.042 278.503 157.591C282.515 169.798 275.978 173.468 268.603 165.992Z" fill="#AD6359"/>
<path d="M256.467 82.7153C257.129 79.5005 261.467 65.0645 263.641 61.32C265.816 57.5755 272.691 47.2166 275.766 48.5222C278.841 49.8279 277.016 53.0304 277.016 53.0304C277.016 53.0304 280.641 49.1135 283.616 50.7147C286.59 52.316 283.616 57.1937 283.616 57.1937C283.616 57.1937 287.64 53.4985 290.49 55.2475C293.34 56.9966 289.553 61.4062 289.553 61.4062C289.553 61.4062 293.078 57.8095 294.79 60.273C296.852 63.2415 289.615 69.1539 287.578 73.465C287.115 74.4504 279.641 93.9858 279.641 93.9858L256.467 82.7153Z" fill="#AD6359"/>
<path d="M289.977 61.0234C284.665 65.3838 283.103 68.2045 281.003 74.5726C281.003 74.6957 280.765 74.6711 280.803 74.5726C282.278 68.1306 283.715 64.3245 289.777 60.7894C290.065 60.543 290.227 60.814 289.977 61.0234Z" fill="#263238"/>
<path d="M284.14 56.8452C279.028 61.8461 277.303 64.8885 274.616 71.4167C274.616 71.5029 274.416 71.4167 274.441 71.3551C276.541 64.7407 278.065 60.9715 283.84 56.5742C284.103 56.3771 284.378 56.5619 284.14 56.8452Z" fill="#263238"/>
<path d="M276.94 53.3013C272.34 58.5115 270.315 61.7633 268.528 68.4271C268.528 68.5872 268.24 68.5379 268.278 68.4271C268.948 62.4338 271.994 56.9441 276.752 53.1535C277.09 52.9071 277.227 52.981 276.94 53.3013Z" fill="#263238"/>
<path d="M280.876 98.8013C280.876 98.8013 287.439 92.8766 289.401 89.5632C291.363 86.2498 294.026 71.2103 290.763 70.4589C286.551 69.4859 283.264 77.8494 282.214 82.1728C282.214 82.1728 272.477 79.9187 268.802 85.4246C265.127 90.9304 280.876 98.8013 280.876 98.8013Z" fill="#AD6359"/>
<path d="M289.515 70.554C285.027 72.4016 284.003 78.1415 282.665 82.2555C282.648 82.3172 282.615 82.3738 282.57 82.4203C282.526 82.4669 282.47 82.502 282.409 82.5226C282.347 82.5432 282.281 82.5488 282.217 82.5387C282.153 82.5287 282.092 82.5033 282.04 82.4649C277.903 81.7875 271.853 82.0215 268.753 85.1624C268.733 85.1743 268.71 85.1797 268.686 85.1778C268.663 85.1759 268.641 85.1668 268.623 85.1519C268.605 85.137 268.592 85.1169 268.586 85.0945C268.581 85.0721 268.582 85.0485 268.591 85.0269C271.453 81.2332 277.34 80.5188 281.865 81.5534C283.115 77.3163 284.465 71.601 289.502 70.4678C289.527 70.5047 289.54 70.5417 289.515 70.554Z" fill="#263238"/>
<path d="M252.568 86.9551L281.479 101.736C281.479 101.736 273.979 122.318 273.354 126.149C272.729 129.98 279.767 157.115 280.741 162.867C281.716 168.619 266.992 188.734 265.83 178.621C264.667 168.509 249.105 138.183 248.33 127.873C247.555 117.564 252.568 86.9551 252.568 86.9551Z" fill="#455A64"/>
<path d="M270.505 137.901C270.286 137.127 270.18 136.326 270.193 135.523C270.173 134.716 270.279 133.91 270.505 133.134C270.719 133.913 270.825 134.717 270.818 135.523C270.818 136.326 270.713 137.125 270.505 137.901Z" fill="white"/>
<path d="M262.428 104.889C262.011 103.331 262.011 101.693 262.428 100.135C262.845 101.693 262.845 103.331 262.428 104.889Z" fill="white"/>
<path d="M273.28 149.02C274.861 148.609 276.523 148.609 278.105 149.02C276.523 149.431 274.861 149.431 273.28 149.02Z" fill="white"/>
<path d="M266.103 118.165C266.893 117.954 267.709 117.851 268.528 117.858C269.343 117.844 270.156 117.948 270.94 118.165C270.156 118.383 269.343 118.486 268.528 118.473C267.709 118.486 266.892 118.383 266.103 118.165Z" fill="white"/>
<path d="M271.217 162.571C269.799 161.76 268.619 160.602 267.792 159.208C268.506 159.602 269.159 160.096 269.729 160.674C270.312 161.235 270.813 161.873 271.217 162.571Z" fill="white"/>
<path d="M260.792 131.725C259.375 130.915 258.195 129.756 257.367 128.362C258.082 128.755 258.735 129.249 259.305 129.828C259.884 130.392 260.385 131.03 260.792 131.725Z" fill="white"/>
<path d="M281.29 168.174C280.887 168.876 280.386 169.518 279.802 170.083C279.23 170.654 278.583 171.147 277.877 171.549C278.277 170.845 278.778 170.202 279.365 169.64C279.934 169.065 280.582 168.572 281.29 168.174Z" fill="white"/>
<path d="M262.491 145.978C262.092 146.678 261.591 147.317 261.004 147.874C260.435 148.449 259.787 148.942 259.079 149.34C259.906 147.95 261.081 146.792 262.491 145.978Z" fill="white"/>
<path d="M279.338 104.345C278.511 105.735 277.336 106.892 275.926 107.707C276.753 106.317 277.928 105.16 279.338 104.345Z" fill="white"/>
<path d="M278.203 105.846C270.166 101.568 261.905 97.7115 253.454 94.292C253.354 94.292 253.292 94.4028 253.392 94.4398C255.454 95.2774 268.666 102.077 278.141 106.018C278.253 106.117 278.303 105.907 278.203 105.846Z" fill="#263238"/>
<path d="M335.828 497.13C338.265 497.931 407.962 497.734 410.612 496.071C411.624 495.455 412.187 485.441 412.512 473.333C412.587 470.721 412.637 468.036 412.687 465.277C412.687 462.025 412.787 458.737 412.799 455.546C412.887 441.209 412.687 428.571 412.687 428.571H367.314V455.546V465.277L367.539 473.333C367.539 473.333 340.903 485.182 338.19 487.313C335.478 489.444 333.403 496.354 335.828 497.13Z" fill="#DD6A57"/>
<path d="M335.827 497.132C338.265 497.933 407.962 497.736 410.612 496.073C411.624 495.457 412.186 485.443 412.511 473.335C412.586 470.724 412.636 468.039 412.686 465.28C412.686 462.028 412.786 458.739 412.799 455.549H367.339V465.28L367.564 473.335C367.564 473.335 340.927 485.185 338.215 487.315C335.502 489.446 333.403 496.356 335.827 497.132Z" fill="white"/>
<path d="M335.613 497.241C337.2 497.758 366.862 497.857 388.498 497.413C393.498 497.315 398.073 497.179 401.772 497.019C406.847 496.785 410.26 496.514 410.822 496.169C412.072 495.393 412.635 480.698 412.91 465.203H367.312L367.549 473.308C367.549 473.308 340.75 485.207 338.025 487.35C335.3 489.493 333.176 496.428 335.613 497.241Z" fill="#4B64EF"/>
<path d="M336.614 494.47C348.363 494.162 395.774 493.965 407.411 494.47C407.498 494.47 407.498 494.544 407.411 494.544C395.774 495.111 348.363 494.926 336.614 494.606C336.364 494.655 336.364 494.483 336.614 494.47Z" fill="#263238"/>
<path d="M365.887 470.713C370.5 469.85 376.162 470.54 379.699 473.767C379.837 473.903 379.699 474.088 379.512 474.038C375.087 472.645 370.524 471.724 365.9 471.292C365.832 471.279 365.771 471.244 365.726 471.192C365.681 471.141 365.656 471.075 365.654 471.007C365.653 470.939 365.675 470.873 365.718 470.819C365.76 470.765 365.82 470.728 365.887 470.713Z" fill="#263238"/>
<path d="M362.55 472.73C367.175 471.868 372.825 472.545 376.375 475.785C376.512 475.908 376.375 476.105 376.175 476.056C371.755 474.661 367.195 473.74 362.575 473.309C362.507 473.298 362.444 473.265 362.398 473.214C362.352 473.163 362.325 473.098 362.323 473.03C362.32 472.961 362.341 472.894 362.382 472.84C362.424 472.785 362.483 472.746 362.55 472.73Z" fill="#263238"/>
<path d="M359.249 474.73C363.862 473.868 369.524 474.545 372.999 477.785C373.136 477.908 372.999 478.093 372.811 478.056C368.402 476.668 363.856 475.743 359.249 475.297C359.173 475.297 359.1 475.267 359.046 475.214C358.992 475.161 358.962 475.088 358.962 475.013C358.962 474.938 358.992 474.866 359.046 474.813C359.1 474.76 359.173 474.73 359.249 474.73Z" fill="#263238"/>
<path d="M355.889 476.714C360.513 475.851 366.163 476.541 369.713 479.768C369.85 479.904 369.713 480.089 369.513 480.039C365.093 478.645 360.534 477.724 355.914 477.292C355.845 477.282 355.783 477.248 355.737 477.197C355.691 477.146 355.664 477.081 355.661 477.013C355.658 476.945 355.679 476.878 355.721 476.823C355.762 476.769 355.821 476.73 355.889 476.714Z" fill="#263238"/>
<path d="M359.401 466.709C362.688 469.173 366.9 470.22 370.763 471.636C370.85 471.659 370.941 471.662 371.029 471.644C371.117 471.626 371.2 471.588 371.27 471.533C371.341 471.478 371.397 471.407 371.435 471.327C371.473 471.246 371.491 471.158 371.488 471.07C371.507 471.069 371.525 471.063 371.542 471.054C371.559 471.045 371.573 471.032 371.584 471.017C371.595 471.001 371.602 470.983 371.605 470.965C371.608 470.946 371.606 470.927 371.6 470.909C370.183 466.88 367.717 463.287 364.451 460.489C362.513 458.9 359.126 457.791 357.313 460.267C355.501 462.743 357.488 465.256 359.401 466.709ZM358.213 463.014C357.388 458.013 362.838 460.624 364.226 461.856C365.117 462.667 365.952 463.535 366.725 464.455C368.268 466.379 369.707 468.381 371.038 470.454C369.2 469.653 367.288 469.025 365.451 468.298C363.188 467.473 358.676 465.785 358.213 463.051V463.014Z" fill="#263238"/>
<path d="M387.012 463.877C385.887 461.044 382.325 461.278 380.05 462.338C376.177 464.258 372.884 467.146 370.5 470.714C370.49 470.729 370.483 470.747 370.48 470.766C370.478 470.784 370.479 470.803 370.485 470.821C370.491 470.839 370.502 470.855 370.515 470.868C370.528 470.882 370.545 470.892 370.563 470.898C370.488 471.243 370.7 471.674 371.113 471.637C375.162 471.231 379.55 471.305 383.35 469.691C385.562 468.706 388.074 466.563 387.012 463.877ZM377.125 469.74C375.137 469.987 373.15 470.135 371.163 470.455C372.978 468.778 374.881 467.195 376.862 465.713C377.83 465.005 378.844 464.363 379.9 463.791C381.55 462.941 387.487 461.759 385.424 466.39C384.25 468.94 379.487 469.482 377.125 469.74Z" fill="#263238"/>
<path d="M427.822 238.048C427.822 238.048 415.56 357.527 415.26 359.079C415.26 359.276 415.135 361.542 415.023 365.324C414.36 385.894 412.723 450.043 412.723 450.043H362.725C362.725 450.043 365.987 374.069 367.862 356.344C370.25 333.729 385.362 238.097 385.362 238.097L427.822 238.048Z" fill="#455A64"/>
<path d="M409.247 363.289C410.797 337.382 413.118 311.548 416.21 285.788C417.959 271.266 420.084 256.793 422.184 242.32C422.184 242.197 422.397 242.197 422.384 242.32C418.509 268.088 415.772 294.053 413.41 319.92C411.047 345.786 409.397 371.788 408.322 397.766C407.71 412.546 407.247 427.216 406.772 441.948C406.759 442.012 406.723 442.069 406.672 442.109C406.621 442.15 406.557 442.173 406.491 442.173C406.425 442.173 406.361 442.15 406.31 442.109C406.259 442.069 406.224 442.012 406.21 441.948C406.972 415.749 407.735 389.501 409.247 363.289Z" fill="#263238"/>
<path d="M365.863 442.099C367.113 441.939 368.588 441.988 369.926 441.939C371.263 441.89 372.925 441.877 374.425 441.816C377.325 441.717 380.242 441.643 383.175 441.594C389.008 441.496 394.841 441.537 400.674 441.717L405.499 441.877C407.211 441.951 408.924 442.099 410.636 442.087C410.649 442.082 410.664 442.08 410.678 442.081C410.692 442.083 410.706 442.088 410.718 442.096C410.73 442.103 410.739 442.114 410.746 442.127C410.753 442.139 410.756 442.153 410.756 442.167C410.756 442.181 410.753 442.195 410.746 442.207C410.739 442.22 410.73 442.23 410.718 442.238C410.706 442.246 410.692 442.251 410.678 442.253C410.664 442.254 410.649 442.252 410.636 442.247C407.686 442.247 404.711 442.493 401.774 442.604C398.837 442.715 395.974 442.752 393.087 442.789C387.25 442.875 381.387 442.789 375.588 442.604L370.763 442.481L368.201 442.37C367.438 442.37 366.676 442.37 365.913 442.296C365.713 442.284 365.726 442.124 365.863 442.099Z" fill="#263238"/>
<path d="M427.824 238.048C427.824 238.048 415.562 357.527 415.262 359.079C415.262 359.276 415.137 361.542 415.024 365.324L391.438 238.048H427.824Z" fill="#263238"/>
<path d="M521.93 458.395C524.08 456.991 566.99 402.88 567.303 399.801C567.428 398.569 559.803 392.016 550.341 384.281C548.304 382.593 546.254 380.783 544.016 379.157C541.216 377.1 538.379 375.08 535.617 373.171C523.667 364.819 513.293 358.267 513.293 358.267L486.044 392.423L507.293 407.918L516.043 414.274L522.617 419.078C522.617 419.078 515.593 447.038 515.618 450.45C515.643 453.862 519.792 459.762 521.93 458.395Z" fill="#DD6A57"/>
<path d="M521.931 458.396C524.08 456.992 566.991 402.881 567.304 399.802C567.429 398.57 559.804 392.017 550.342 384.282C548.304 382.595 546.255 380.784 544.017 379.158C541.217 377.101 538.38 375.081 535.617 373.172C527.168 383.654 514.931 398.62 507.281 407.919L516.031 414.275L522.606 419.079C522.606 419.079 515.581 447.039 515.606 450.451C515.631 453.863 519.793 459.763 521.931 458.396Z" fill="white"/>
<path d="M521.881 458.593C524.031 457.189 567.191 402.771 567.504 399.667C567.654 398.238 556.254 388.717 544.092 378.912L515.906 414.226L522.518 419.055C522.518 419.055 515.494 447.175 515.494 450.612C515.494 454.048 519.718 459.998 521.881 458.593Z" fill="#4B64EF"/>
<path d="M520.281 456.1C527.293 446.8 556.442 409.959 564.091 401.299C564.154 401.226 564.204 401.299 564.091 401.299C557.354 410.661 527.905 447.268 520.343 456.174C520.281 456.408 520.143 456.297 520.281 456.1Z" fill="#263238"/>
<path d="M519.445 418.756C521.608 414.642 525.695 410.688 530.42 409.937C530.607 409.937 530.645 410.171 530.52 410.257C526.673 412.819 523.119 415.785 519.92 419.101C519.869 419.148 519.803 419.176 519.733 419.18C519.663 419.184 519.594 419.164 519.537 419.123C519.481 419.082 519.441 419.023 519.424 418.956C519.407 418.889 519.415 418.818 519.445 418.756Z" fill="#263238"/>
<path d="M518.969 422.572C521.144 418.458 525.219 414.492 529.956 413.753C530.131 413.753 530.181 413.987 530.044 414.073C526.2 416.634 522.646 419.595 519.444 422.905C519.393 422.948 519.329 422.973 519.262 422.976C519.195 422.979 519.129 422.96 519.074 422.922C519.02 422.884 518.98 422.828 518.961 422.765C518.942 422.702 518.945 422.634 518.969 422.572Z" fill="#263238"/>
<path d="M518.505 426.369C520.667 422.255 524.754 418.301 529.479 417.55C529.667 417.55 529.704 417.784 529.579 417.87C525.731 420.436 522.173 423.401 518.967 426.714C518.921 426.774 518.852 426.814 518.776 426.825C518.699 426.835 518.622 426.815 518.561 426.769C518.499 426.724 518.459 426.656 518.449 426.581C518.438 426.506 518.458 426.43 518.505 426.369Z" fill="#263238"/>
<path d="M517.994 430.189C520.156 426.087 524.243 422.121 528.968 421.382C529.156 421.382 529.193 421.604 529.068 421.702C525.224 424.263 521.67 427.224 518.469 430.534C518.417 430.581 518.351 430.609 518.281 430.613C518.211 430.617 518.142 430.597 518.085 430.556C518.029 430.515 517.989 430.456 517.972 430.389C517.955 430.322 517.963 430.251 517.994 430.189Z" fill="#263238"/>
<path d="M512.217 421.278C516.242 420.292 519.717 417.582 523.142 415.513C523.216 415.461 523.277 415.391 523.319 415.311C523.362 415.231 523.384 415.141 523.384 415.051C523.384 414.961 523.362 414.872 523.319 414.791C523.277 414.711 523.216 414.642 523.142 414.589C523.152 414.574 523.159 414.556 523.162 414.537C523.164 414.518 523.162 414.5 523.156 414.482C523.15 414.464 523.14 414.448 523.127 414.434C523.113 414.421 523.097 414.411 523.079 414.404C518.991 413.012 514.603 412.702 510.355 413.505C507.855 414.023 504.917 415.969 505.767 418.9C506.617 421.832 509.88 421.869 512.217 421.278ZM508.567 419.935C504.067 417.471 509.517 414.885 511.355 414.577C512.546 414.398 513.749 414.299 514.954 414.281C517.438 414.277 519.92 414.396 522.392 414.638C520.629 415.575 518.954 416.646 517.229 417.644C515.167 418.826 511.042 421.29 508.567 419.935Z" fill="#263238"/>
<path d="M527.028 398.151C524.066 397.276 522.028 400.171 521.491 402.597C520.613 406.772 520.868 411.101 522.228 415.149C522.228 415.247 522.341 415.247 522.416 415.21C522.467 415.284 522.537 415.344 522.617 415.386C522.698 415.427 522.787 415.449 522.878 415.449C522.969 415.449 523.059 415.427 523.139 415.386C523.22 415.344 523.289 415.284 523.341 415.21C525.528 411.823 528.34 408.473 529.353 404.531C529.978 402.252 529.828 398.988 527.028 398.151ZM525.59 409.434C524.553 411.133 523.441 412.759 522.478 414.484C522.26 412.026 522.168 409.56 522.203 407.093C522.243 405.908 522.364 404.727 522.566 403.558C522.903 401.76 525.628 396.426 528.04 400.885C529.378 403.398 526.815 407.426 525.59 409.434Z" fill="#263238"/>
<path d="M384.674 237.386C384.674 237.386 388.574 255.32 400.799 264.09C400.799 264.09 432.247 345.446 438.859 354.007C449.809 368.197 502.781 404.718 502.781 404.718L534.03 365.462C534.03 365.462 482.782 332.956 478.683 327.845C475.945 324.457 454.121 272.219 454.384 270.359C457.384 248.274 446.697 234.553 446.697 234.553L384.674 237.386Z" fill="#455A64"/>
<path d="M442.996 237.986C445.377 242.241 447.148 246.801 448.258 251.535C448.8 253.941 449.131 256.389 449.246 258.851C449.396 261.475 449.246 264.111 449.246 266.747C449.285 269.436 449.706 272.106 450.496 274.679C451.246 277.143 452.158 279.606 452.996 282.07C454.795 287.112 456.691 292.117 458.683 297.085C462.658 306.939 466.978 316.686 471.645 326.326C472.623 328.58 473.97 330.661 475.632 332.485C477.55 334.22 479.644 335.756 481.882 337.067C486.482 340.155 491.086 343.242 495.694 346.33L523.455 364.941V365.003C523.767 365.212 523.455 365.717 523.167 365.508C513.868 359.288 507.993 355.321 498.693 349.101L484.607 339.678C482.382 338.188 480.119 336.747 477.944 335.207C476.017 333.896 474.373 332.221 473.107 330.28C471.84 328.161 470.705 325.969 469.707 323.715C468.532 321.251 467.382 318.788 466.257 316.325C464.033 311.677 461.908 306.889 459.883 301.962C457.858 297.035 455.904 292.051 454.021 287.009C453.087 284.48 452.175 281.943 451.283 279.397C450.361 276.987 449.61 274.518 449.033 272.006C447.996 266.833 448.921 261.524 448.421 256.302C447.967 251.247 446.702 246.295 444.671 241.632C444.125 240.423 443.516 239.243 442.846 238.097C442.759 237.986 442.996 237.912 442.996 237.986Z" fill="#263238"/>
<path d="M425.784 239.391C426.816 242.847 428.967 245.876 431.909 248.014C435.168 250.295 439.027 251.6 443.021 251.77C443.696 251.77 443.759 252.817 443.021 252.83C434.859 252.83 426.622 247.73 425.422 239.404C425.422 239.244 425.734 239.207 425.784 239.391Z" fill="#263238"/>
<path d="M392.999 258.622C395.956 259.798 398.779 261.276 401.424 263.032C404.224 264.744 406.811 266.727 409.511 268.587C409.624 268.661 409.511 268.821 409.424 268.759C406.586 267.146 403.636 265.754 400.824 264.091C398.019 262.581 395.359 260.825 392.874 258.844C392.762 258.77 392.849 258.585 392.999 258.622Z" fill="#263238"/>
<path d="M391.822 241.865C392.26 243.701 392.797 245.561 393.297 247.347C393.797 249.133 394.122 250.82 394.66 252.508C395.125 254.149 396.052 255.626 397.335 256.769C398.047 257.373 398.835 257.89 399.597 258.445L400.847 259.307C400.784 259.073 400.734 258.814 400.672 258.568C400.51 257.866 400.359 257.176 400.209 256.474C399.872 254.922 399.547 253.37 399.222 251.805C398.61 248.751 397.972 245.647 397.235 242.629C397.229 242.614 397.227 242.598 397.229 242.582C397.231 242.567 397.237 242.551 397.246 242.538C397.255 242.525 397.268 242.515 397.282 242.507C397.296 242.5 397.312 242.496 397.328 242.496C397.345 242.496 397.36 242.5 397.375 242.507C397.389 242.515 397.401 242.525 397.41 242.538C397.42 242.551 397.426 242.567 397.428 242.582C397.43 242.598 397.428 242.614 397.422 242.629C398.335 245.61 399.335 248.566 400.16 251.584C400.559 253.062 402.084 260.391 402.172 260.908C402.259 261.425 402.322 261.992 402.359 262.534C402.46 263.078 402.485 263.633 402.434 264.184C402.423 264.208 402.406 264.228 402.384 264.242C402.361 264.256 402.336 264.263 402.309 264.263C402.283 264.263 402.257 264.256 402.235 264.242C402.213 264.228 402.195 264.208 402.184 264.184C401.936 263.683 401.752 263.154 401.634 262.608C401.472 262.09 401.334 261.561 401.209 261.019L401.097 260.44C400.335 260.033 399.622 259.479 398.91 259.011C398.197 258.543 397.36 258.038 396.635 257.484C395.284 256.462 394.278 255.063 393.747 253.468C393.211 251.748 392.835 249.984 392.622 248.196C392.285 246.115 392.01 244.009 391.622 241.939C391.61 241.804 391.747 241.742 391.822 241.865Z" fill="#263238"/>
<path d="M497.782 397.607C498.457 396.486 499.394 395.415 500.182 394.368C500.969 393.321 501.994 392.003 502.882 390.808C504.59 388.501 506.327 386.214 508.094 383.947C511.644 379.377 515.306 374.869 519.068 370.472L522.193 366.851C523.306 365.619 524.493 364.387 525.556 363.008C525.631 362.909 525.743 363.008 525.668 363.106C523.831 365.373 522.193 367.836 520.456 370.176C518.719 372.517 516.981 374.746 515.219 377.012C511.656 381.57 507.981 386.066 504.194 390.451C503.144 391.683 502.132 392.914 501.094 394.146C500.544 394.787 499.969 395.378 499.419 396.055C498.869 396.733 498.482 397.287 497.932 397.78C497.909 397.799 497.879 397.809 497.848 397.807C497.818 397.804 497.789 397.79 497.769 397.767C497.75 397.744 497.74 397.715 497.742 397.685C497.744 397.655 497.759 397.627 497.782 397.607Z" fill="#263238"/>
<path d="M396.373 121.574C398.451 122.292 400.304 123.529 401.752 125.163C403.2 126.797 404.194 128.773 404.636 130.898C405.167 133.721 406.048 136.467 407.26 139.077C408.738 141.584 410.578 143.866 412.723 145.852C416.066 148.908 418.397 152.888 419.41 157.27C420.614 162.351 420.801 167.614 419.96 172.765C420.506 167.384 420.006 161.949 418.485 156.753C416.96 151.518 413.673 148.537 410.235 144.879C407.463 141.979 405.507 138.417 404.561 134.544C403.961 132.081 403.673 129.617 402.461 127.425C400.958 125.093 398.781 123.257 396.211 122.153C395.836 121.944 396.061 121.451 396.373 121.574Z" fill="#263238"/>
<path d="M358.975 155.485C361.288 151.26 363.775 147.59 364.812 142.613C365.762 138.068 366.062 133.363 367.012 128.83C367.012 128.756 367.137 128.769 367.125 128.83C365.75 136.849 366.262 144.67 362.363 151.79C360.25 155.645 358.1 159.254 356.95 163.701C355.783 168.367 355.474 173.203 356.038 177.977C356.038 178.149 355.838 178.174 355.813 177.977C354.157 170.346 355.276 162.385 358.975 155.485Z" fill="#263238"/>
<path d="M390.575 177.705C377.7 179.947 334.252 166.41 326.115 157.616C314.003 144.547 304.803 121.205 302.191 112.423C301.054 108.592 326.652 97.0632 328.44 100.931C332.34 109.221 343.439 134.927 345.602 137.341C347.764 139.755 369.351 154.499 381.85 161.028C398.712 169.81 397.087 176.572 390.575 177.705Z" fill="#DD6A57"/>
<path d="M330.339 106.288C330.139 104.392 324.19 90.1896 320.89 85.6445C317.51 80.7463 313.338 76.4272 308.54 72.859C300.941 67.2669 295.141 64.089 293.641 65.2099C290.866 67.2792 292.516 70.6419 300.128 76.3941C307.74 82.1463 306.716 87.7261 305.691 91.6184C303.156 101.161 303.1 111.179 305.528 120.749C305.528 120.749 331.139 113.617 330.339 106.288Z" fill="#DD6A57"/>
<path d="M306.102 90.213C305.177 94.2654 300.065 79.1273 295.452 77.8956C290.84 76.6639 291.215 81.4061 292.953 85.5694C299.09 99.9807 296.39 109.12 303.602 117.398C310.814 125.675 306.102 90.213 306.102 90.213Z" fill="#DD6A57"/>
<path d="M304.126 123.259C304.676 122.804 333.288 106.471 333.288 106.471C333.288 106.471 343.912 133.163 346.087 136.353C348.262 139.543 379.536 159.214 390.348 165.434C401.91 172.098 398.46 181.915 378.098 177.949C357.737 173.982 334.488 166.259 326.763 159.633C319.251 153.215 304.126 123.259 304.126 123.259Z" fill="#4B64EF"/>
<path d="M308.416 126.375C320.178 120.956 331.715 113.491 333.815 112.333C333.915 112.272 333.815 112.124 333.715 112.186C331.715 113.417 317.603 120.549 308.304 126.215C308.286 126.231 308.275 126.253 308.273 126.276C308.271 126.3 308.277 126.323 308.29 126.343C308.304 126.362 308.324 126.376 308.347 126.382C308.37 126.388 308.395 126.386 308.416 126.375Z" fill="#263238"/>
<path d="M377.587 215.903L379.712 250.688C379.712 250.688 435.722 240.095 449.384 236.301C449.384 236.301 424.797 175.478 406.536 162.569C397.398 156.115 388.774 158.504 384.374 165.217C383.249 166.917 371.025 192.315 371.012 201.036C371.025 208.747 377.587 215.903 377.587 215.903Z" fill="#4B64EF"/>
<path d="M397.199 163.209C396.924 164.305 391.487 171.412 386.362 171.117C384.687 171.018 384.837 162.027 384.837 162.027L384.7 161.349L382.7 152.025L393.887 145.152L395.499 144.302C395.499 144.302 395.874 146.888 396.312 150.116C396.312 150.263 396.312 150.411 396.374 150.571L396.449 151.101C396.524 151.581 396.587 152.074 396.649 152.567C396.712 153.059 396.749 153.306 396.774 153.7C396.799 154.094 396.862 154.476 396.912 154.87C397.195 157.64 397.291 160.426 397.199 163.209Z" fill="#DD6A57"/>
<path d="M396.312 150.054C395.324 152.654 393.774 155.012 391.768 156.962C389.763 158.913 387.351 160.41 384.7 161.349L382.7 152.025L393.887 145.152L395.499 144.302C395.499 144.302 395.874 146.827 396.312 150.054Z" fill="#263238"/>
<path d="M368.875 139.534C369.513 156.261 379.75 157.776 383.412 157.64C386.724 157.505 398.024 156.667 399.149 139.965C400.274 123.262 392.187 118.274 384.562 118.163C376.937 118.052 368.25 122.819 368.875 139.534Z" fill="#DD6A57"/>
<path d="M371.211 134.828C371.594 134.752 371.974 134.658 372.348 134.545C372.761 134.5 373.148 134.323 373.448 134.04C373.532 133.937 373.578 133.808 373.578 133.676C373.578 133.544 373.532 133.416 373.448 133.313C373.248 133.139 373.006 133.02 372.745 132.968C372.483 132.916 372.213 132.933 371.96 133.017C371.421 133.116 370.94 133.41 370.611 133.842C370.545 133.943 370.509 134.06 370.507 134.179C370.505 134.299 370.537 134.417 370.599 134.519C370.662 134.622 370.752 134.705 370.86 134.759C370.968 134.814 371.09 134.838 371.211 134.828Z" fill="#263238"/>
<path d="M382.362 134.447C381.971 134.405 381.583 134.34 381.2 134.25C380.784 134.239 380.384 134.091 380.062 133.831C379.984 133.726 379.942 133.599 379.942 133.468C379.942 133.337 379.984 133.21 380.062 133.105C380.248 132.916 380.481 132.779 380.739 132.71C380.996 132.641 381.267 132.641 381.525 132.71C382.071 132.761 382.577 133.017 382.937 133.425C383.019 133.522 383.068 133.641 383.08 133.767C383.092 133.892 383.065 134.019 383.003 134.129C382.941 134.239 382.846 134.329 382.732 134.385C382.618 134.442 382.489 134.464 382.362 134.447Z" fill="#263238"/>
<path d="M380.249 138.781C380.249 138.781 380.349 138.781 380.349 138.88C380.349 140.025 380.499 141.343 381.599 141.7V141.762C380.261 141.602 380.049 139.865 380.249 138.781Z" fill="#263238"/>
<path d="M381.274 137.588C383.124 137.415 383.324 141.098 381.599 141.283C379.874 141.468 379.711 137.723 381.274 137.588Z" fill="#263238"/>
<path d="M382.013 137.733C382.35 137.93 382.688 138.275 383.088 138.3C383.488 138.324 383.863 137.918 384.138 137.536C384.138 137.536 384.138 137.536 384.213 137.536C384.213 138.238 384.013 138.977 383.263 139.113C382.513 139.248 382.013 138.645 381.813 137.955C381.75 137.856 381.875 137.659 382.013 137.733Z" fill="#263238"/>
<path d="M373.598 138.903C373.598 138.903 373.51 138.903 373.523 139.014C373.623 140.147 373.523 141.478 372.535 141.909C372.535 141.909 372.535 141.983 372.535 141.97C373.81 141.724 373.885 139.963 373.598 138.903Z" fill="#263238"/>
<path d="M372.498 137.781C370.636 137.781 370.711 141.476 372.436 141.476C374.16 141.476 374.061 137.806 372.498 137.781Z" fill="#263238"/>
<path d="M371.751 138.046C371.463 138.243 371.176 138.613 370.826 138.637C370.476 138.662 370.113 138.28 369.838 137.898C369.838 138.601 370.076 139.327 370.763 139.45C371.451 139.574 371.838 138.945 372.013 138.219C371.951 138.145 371.851 137.96 371.751 138.046Z" fill="#263238"/>
<path d="M375.836 143.914C375.749 144.733 375.703 145.555 375.699 146.378C375.699 146.452 375.899 146.476 376.174 146.489C376.886 146.595 377.614 146.504 378.276 146.226C378.938 145.947 379.509 145.492 379.924 144.912C379.932 144.895 379.934 144.876 379.931 144.858C379.927 144.84 379.917 144.823 379.903 144.81C379.889 144.798 379.871 144.79 379.852 144.789C379.834 144.787 379.815 144.791 379.799 144.801C378.789 145.547 377.56 145.949 376.299 145.947C376.236 145.725 376.686 143.028 376.561 143.015C375.934 143.101 375.32 143.266 374.736 143.508C374.974 139.936 375.799 136.425 375.986 132.866C375.986 132.836 375.974 132.808 375.953 132.787C375.932 132.767 375.903 132.755 375.874 132.755C375.844 132.755 375.815 132.767 375.794 132.787C375.773 132.808 375.761 132.836 375.761 132.866C374.762 136.594 374.143 140.41 373.911 144.259C373.861 144.727 375.499 144.062 375.836 143.914Z" fill="#263238"/>
<path d="M376.173 145.996C376.623 146.657 377.239 147.192 377.961 147.548C378.349 147.731 378.786 147.791 379.211 147.72C380.161 147.535 380.236 146.698 380.123 145.971C380.053 145.581 379.936 145.2 379.773 144.838C378.727 145.587 377.467 145.993 376.173 145.996Z" fill="#263238"/>
<path d="M377.998 147.548C378.386 147.731 378.823 147.791 379.248 147.72C380.197 147.536 380.272 146.698 380.16 145.971C379.673 145.959 379.195 146.108 378.804 146.393C378.412 146.679 378.128 147.085 377.998 147.548Z" fill="#FF9BBC"/>
<path d="M398.459 139.46C394.347 139.682 394.085 133.302 394.085 133.302C394.085 133.302 389.397 133.104 388.71 125.702C387.875 127.233 386.691 128.552 385.251 129.554C383.811 130.557 382.153 131.216 380.41 131.479C379.073 131.737 383.398 128.116 383.398 128.116C383.398 128.116 378.26 133.154 368.198 131.811C367.486 131.713 367.686 120.319 375.348 116.427C383.01 112.534 390.96 115.195 396.022 119.826C396.022 119.826 401.872 122.179 402.772 127.488C403.672 132.797 400.047 139.374 398.459 139.46Z" fill="#263238"/>
<path d="M396.5 141.359C396.5 141.359 399.525 135.717 402.075 136.715C404.625 137.713 402.812 145.571 400.137 146.938C399.808 147.14 399.44 147.273 399.056 147.329C398.673 147.386 398.281 147.366 397.906 147.269C397.531 147.172 397.179 147.001 396.873 146.767C396.567 146.532 396.313 146.238 396.125 145.904L396.5 141.359Z" fill="#DD6A57"/>
<path d="M401.497 138.954C401.497 138.954 401.559 138.954 401.497 139.028C400.646 139.582 399.924 140.308 399.379 141.157C398.834 142.007 398.478 142.96 398.334 143.955C398.424 143.747 398.558 143.561 398.728 143.41C398.898 143.258 399.099 143.144 399.317 143.076C399.536 143.008 399.767 142.988 399.994 143.016C400.221 143.045 400.44 143.121 400.634 143.241V143.351C400.276 143.285 399.905 143.33 399.574 143.48C399.243 143.63 398.967 143.878 398.784 144.189C398.485 144.713 398.242 145.266 398.059 145.84C397.984 146.024 397.659 145.963 397.697 145.766C397.322 143.228 398.834 139.533 401.497 138.954Z" fill="#263238"/>
<path d="M410.986 169.069C432.548 191.45 450.259 238.046 439.885 242.37C430.41 246.361 400.374 242.666 388.025 239.771C384.4 238.909 391.775 211.219 395.587 212.131C400.274 213.227 412.261 214.927 412.749 214.89C413.786 214.816 402.749 183.838 399.199 171.951C394.249 155.384 402.899 160.669 410.986 169.069Z" fill="#DD6A57"/>
<path d="M358.213 205.763C357.765 206.526 357.562 207.405 357.629 208.283C357.696 209.162 358.03 210.001 358.588 210.69C357.198 211.337 356.083 212.444 355.438 213.819C354.4 216.282 357.938 218.967 357.938 218.967C356.635 219.938 355.66 221.273 355.138 222.798C354.4 225.261 357.538 228.452 357.538 228.452C356.835 230.003 356.724 231.753 357.225 233.379C358.725 237.628 365.55 239.155 369.874 240.178C374.199 241.2 387.374 240.079 389.961 240.116L396.748 212.87C396.748 212.87 378.687 202.893 373.424 202.413C369.012 202.006 360.1 202.893 358.213 205.763Z" fill="#DD6A57"/>
<path d="M358.887 210.356C363.699 209.679 368.449 210.43 373.236 210.923C373.252 210.929 373.266 210.94 373.276 210.954C373.286 210.969 373.291 210.985 373.291 211.003C373.291 211.02 373.286 211.037 373.276 211.051C373.266 211.065 373.252 211.076 373.236 211.083C368.474 210.541 363.674 210.935 358.912 210.578C358.882 210.581 358.852 210.572 358.829 210.554C358.805 210.536 358.79 210.509 358.787 210.479C358.784 210.45 358.792 210.42 358.811 210.397C358.83 210.374 358.857 210.359 358.887 210.356Z" fill="#263238"/>
<path d="M358.076 218.697C359.183 218.646 360.292 218.737 361.375 218.968C362.538 219.153 363.7 219.35 364.85 219.56C367.163 219.991 369.463 220.471 371.737 221.025C371.85 221.025 371.837 221.198 371.737 221.186C369.438 220.75 367.125 220.369 364.8 220.04L361.325 219.572C360.217 219.506 359.118 219.32 358.051 219.018C358.019 219.003 357.993 218.978 357.975 218.948C357.957 218.918 357.949 218.884 357.952 218.849C357.955 218.815 357.968 218.782 357.99 218.755C358.012 218.727 358.042 218.708 358.076 218.697Z" fill="#263238"/>
<path d="M357.587 228.537C358.591 228.501 359.594 228.638 360.549 228.943L363.699 229.572C365.799 229.978 367.899 230.397 370.011 230.729C370.124 230.729 370.099 230.914 370.011 230.902C367.862 230.557 365.699 230.261 363.562 229.904L360.399 229.375C359.421 229.294 358.465 229.043 357.575 228.635C357.575 228.635 357.55 228.537 357.587 228.537Z" fill="#263238"/>
<path d="M411.635 214.008C413.122 212.777 401.348 183.597 398.136 170.319C394.923 157.04 401.148 157.779 411.01 168.471C421.584 179.926 439.159 205.263 443.159 231.364C444.408 239.518 446.096 245.332 426.909 244.999C415.781 244.883 404.678 243.928 393.698 242.141L397.873 212.333C397.873 212.333 411.21 214.366 411.635 214.008Z" fill="#4B64EF"/>
<path d="M400.499 241.902C402.999 230.101 403.699 217.341 403.999 215.124C403.999 215.025 403.836 215.013 403.824 215.124C403.649 217.304 401.186 231.801 400.312 241.889C400.312 242 400.499 242.012 400.499 241.902Z" fill="#263238"/>
<path d="M426.185 216.324C425 215.994 423.793 215.751 422.572 215.597L419.21 214.993L417.748 214.735H417.885L419.835 214.464C420.485 214.365 421.085 214.23 421.797 214.168C421.897 214.168 421.897 213.996 421.797 214.008C421.148 214.094 420.548 214.094 419.848 214.131L417.81 214.267L416.035 214.452C414.948 214.279 413.86 214.107 412.773 213.959C412.298 211.84 411.523 209.746 410.885 207.677C410.248 205.608 409.486 203.366 408.736 201.223C407.986 199.079 407.223 197.035 406.398 194.965C405.986 193.931 403.786 187.575 403.061 185.9C403.061 185.789 402.886 185.9 402.911 185.961C403.336 187.637 405.586 194.177 405.911 195.236C406.148 196.012 406.398 196.788 406.648 197.552L406.548 197.441L405.236 195.717C404.361 194.547 403.486 193.364 402.736 192.12C402.736 192.009 402.511 192.12 402.573 192.219C403.298 193.524 403.986 194.83 404.748 196.099C405.136 196.739 405.536 197.33 405.998 197.971C406.379 198.595 406.832 199.174 407.348 199.695C407.548 200.323 407.736 200.927 407.948 201.592C408.623 203.711 409.311 205.829 409.973 207.948C410.635 210.067 411.123 211.89 411.823 213.799C409.586 213.503 407.361 213.244 405.123 212.973L401.698 212.579C400.448 212.444 399.198 212.444 397.949 212.234C397.836 212.234 397.799 212.382 397.949 212.395C399.198 212.53 400.373 212.9 401.573 213.109L404.948 213.688C407.323 214.082 409.711 214.501 412.098 214.92C414.485 215.338 416.823 215.535 419.185 215.806L422.747 216.201C423.893 216.375 425.05 216.47 426.21 216.484L426.185 216.324Z" fill="#263238"/>
<path d="M431.46 245.018C421.148 244.661 402.586 243.269 393.961 242.136C393.948 242.131 393.934 242.129 393.919 242.13C393.905 242.132 393.892 242.137 393.88 242.145C393.868 242.153 393.858 242.163 393.852 242.176C393.845 242.188 393.841 242.202 393.841 242.216C393.841 242.23 393.845 242.244 393.852 242.257C393.858 242.269 393.868 242.28 393.88 242.288C393.892 242.295 393.905 242.3 393.919 242.302C393.934 242.303 393.948 242.301 393.961 242.296C406.275 244.903 418.877 245.95 431.46 245.412C431.513 245.412 431.564 245.392 431.601 245.355C431.639 245.318 431.66 245.268 431.66 245.215C431.66 245.163 431.639 245.113 431.601 245.076C431.564 245.039 431.513 245.018 431.46 245.018Z" fill="#263238"/>
<path d="M437.308 209.583C436.745 208.352 436.145 207.12 435.57 205.888C434.895 204.459 434.833 204.656 435.445 206.258C436.058 207.859 436.583 209.251 437.17 210.741C438.32 213.71 444.282 231.681 443.62 238.037C443.62 238.123 443.757 238.135 443.77 238.037C445.307 229.55 439.395 214.227 437.308 209.583Z" fill="#263238"/>
<path d="M183.757 128.102C197.931 141.651 200.818 176.522 183.344 199.974C168.545 219.83 134.184 223.611 119.41 211.774C103.748 199.198 106.048 178.825 117.497 168.909C129.309 158.686 143.484 161.433 150.646 152.318C154.071 147.957 155.345 138.769 160.12 132.056C165.508 124.591 176.507 121.143 183.757 128.102Z" fill="#263238"/>
<path d="M170.732 125.53C172.307 124.951 173.794 116.304 168.032 112.19C162.27 108.076 154.883 112.781 158.032 119.864C159.945 124.335 167.42 126.749 170.732 125.53Z" fill="#263238"/>
<path d="M156.758 138.277C155.724 141.437 154.424 144.507 152.871 147.454C151.317 150.467 149.121 153.114 146.434 155.214C145.01 156.189 143.429 156.922 141.759 157.382C140.134 157.899 138.509 158.33 136.897 158.774C133.669 159.607 130.485 160.602 127.36 161.754C124.261 162.875 121.321 164.382 118.61 166.238C115.903 168.112 113.617 170.517 111.896 173.302C110.176 176.087 109.057 179.192 108.611 182.423C108.121 185.685 108.025 188.993 108.323 192.277C107.788 188.99 107.683 185.65 108.011 182.337C108.367 178.986 109.414 175.742 111.085 172.803C112.793 169.859 115.125 167.313 117.923 165.339C120.707 163.392 123.731 161.802 126.922 160.609C130.097 159.468 133.33 158.494 136.609 157.69C138.234 157.258 139.847 156.84 141.434 156.359C143.006 155.934 144.505 155.282 145.884 154.425C148.543 152.488 150.744 150.004 152.334 147.146C154.024 144.299 155.503 141.335 156.758 138.277Z" fill="#263238"/>
<path d="M186.472 131.128C190.589 136.998 193.764 143.458 195.884 150.281C198.062 157.139 198.91 164.338 198.384 171.504C198.08 175.09 197.337 178.626 196.172 182.036C195.909 182.898 195.559 183.723 195.222 184.561C194.884 185.398 194.559 186.236 194.134 187.024C193.709 187.813 193.347 188.65 192.884 189.488L191.472 191.791C187.521 197.787 182.427 202.97 176.473 207.052C177.81 205.821 179.223 204.774 180.51 203.542C181.797 202.31 183.122 201.078 184.26 199.748C186.678 197.155 188.818 194.324 190.647 191.298C194.366 185.255 196.6 178.439 197.172 171.394C197.725 164.372 196.975 157.309 194.959 150.552C193.994 147.151 192.795 143.817 191.372 140.575C189.97 137.315 188.332 134.158 186.472 131.128Z" fill="#263238"/>
<path d="M159.971 111.682C158.271 113.085 157.1 115.011 156.646 117.151C156.419 118.148 156.461 119.187 156.768 120.164C157.075 121.141 157.636 122.022 158.396 122.718C160.017 124.139 162.001 125.097 164.134 125.489C165.216 125.714 166.316 125.846 167.421 125.884C168.538 125.968 169.661 125.847 170.733 125.526C169.72 126.074 168.599 126.402 167.446 126.487C166.287 126.623 165.117 126.623 163.959 126.487C161.573 126.231 159.328 125.249 157.534 123.679C156.62 122.85 155.963 121.783 155.64 120.601C155.317 119.42 155.341 118.172 155.709 117.003C156.011 115.875 156.545 114.821 157.278 113.905C158.012 112.99 158.928 112.233 159.971 111.682Z" fill="#263238"/>
<path d="M168.184 171.065C163.747 199.802 138.023 258.309 134.136 265.823C131.498 270.922 103.849 257.78 106.174 254.589C109.137 250.488 138.86 199.087 153.035 180.488C160.859 170.228 169.096 165.128 168.184 171.065Z" fill="#F7A9A0"/>
<path d="M106.76 253.775C103.535 257.963 98.4853 269.924 97.3228 273.914C96.1604 277.905 93.6855 289.644 96.7604 290.875C99.8352 292.107 100.773 288.683 100.773 288.683C100.773 288.683 100.523 293.795 103.66 294.718C106.797 295.642 108.197 290.333 108.197 290.333C108.197 290.333 108.322 295.605 111.522 296.295C114.722 296.985 115.272 291.368 115.272 291.368C115.272 291.368 115.16 296.197 118.034 295.679C121.509 295.051 120.684 286.133 122.297 281.822C122.672 280.837 131.159 262.496 131.159 262.496L106.76 253.775Z" fill="#F7A9A0"/>
<path d="M114.586 291.527C113.998 284.974 114.898 282.005 117.91 276.241C117.91 276.13 117.81 276.019 117.735 276.13C114.273 281.5 112.598 285.072 114.261 291.576C114.348 291.896 114.611 291.847 114.586 291.527Z" fill="#263238"/>
<path d="M107.673 290.485C107.673 283.612 108.61 280.385 111.31 274.115C111.31 274.029 111.21 273.955 111.16 274.041C107.985 279.966 106.398 283.563 107.323 290.424C107.361 290.731 107.673 290.793 107.673 290.485Z" fill="#263238"/>
<path d="M100.35 287.993C100.825 281.341 101.713 277.757 105.125 271.98C105.135 271.954 105.136 271.926 105.127 271.9C105.119 271.873 105.102 271.851 105.079 271.835C105.056 271.82 105.028 271.812 105 271.814C104.973 271.815 104.946 271.826 104.925 271.845C101.247 276.379 99.5275 282.157 100.138 287.931C100.175 288.411 100.313 288.411 100.35 287.993Z" fill="#263238"/>
<path d="M135.911 260.206C135.911 260.206 135.536 268.447 134.548 272.031C133.561 275.615 124.949 287.649 122.199 285.962C118.662 283.782 122.199 275.862 124.524 272.216C124.524 272.216 116.324 267.178 117.662 260.945C118.999 254.713 135.911 260.206 135.911 260.206Z" fill="#F7A9A0"/>
<path d="M121.423 285.049C119.648 280.762 122.948 276.156 124.885 272.448C124.917 272.394 124.934 272.334 124.936 272.272C124.939 272.211 124.926 272.149 124.899 272.094C124.872 272.038 124.831 271.99 124.781 271.953C124.731 271.916 124.672 271.891 124.61 271.881C121.323 269.541 117.361 265.304 117.436 261.079C117.436 261.053 117.425 261.028 117.407 261.009C117.388 260.991 117.362 260.98 117.336 260.98C117.309 260.98 117.284 260.991 117.265 261.009C117.246 261.028 117.236 261.053 117.236 261.079C116.536 265.587 120.086 270.071 123.861 272.411C121.811 276.18 118.711 280.935 121.361 285.073C121.398 285.086 121.436 285.073 121.423 285.049Z" fill="#263238"/>
<path d="M134.499 203.201C134.499 203.201 138.698 205.332 143.573 207.869C149.948 211.158 157.485 215.124 158.285 215.802C158.285 215.802 166.447 189.873 168.285 178.283C170.122 166.692 168.422 164.426 159.847 171.41C155.71 174.797 149.66 182.323 144.523 189.208C138.986 196.574 134.499 203.201 134.499 203.201Z" fill="#4B64EF"/>
<path d="M134.499 203.201C134.499 203.201 138.698 205.332 143.573 207.869C149.948 211.158 157.485 215.124 158.285 215.802C158.285 215.802 166.447 189.873 168.285 178.283C170.122 166.692 168.422 164.426 159.847 171.41C155.71 174.797 149.66 182.323 144.523 189.208C138.986 196.574 134.499 203.201 134.499 203.201Z" fill="#4B64EF"/>
<path d="M168.259 178.283C166.447 189.873 158.26 215.801 158.26 215.801C157.46 215.124 149.922 211.158 143.548 207.869L140.023 206.046C136.811 204.383 134.473 203.201 134.473 203.201C134.473 203.201 138.96 196.574 144.473 189.208C149.61 182.323 155.66 174.797 159.797 171.409L160.697 170.695C168.509 164.598 170.009 167.111 168.259 178.283Z" fill="#4B64EF"/>
<path d="M168.259 178.283C166.447 189.873 158.26 215.801 158.26 215.801C157.46 215.124 149.922 211.158 143.548 207.869L140.023 206.046C136.811 204.383 134.473 203.201 134.473 203.201C134.473 203.201 138.96 196.574 144.473 189.208C149.61 182.323 155.66 174.797 159.797 171.409L160.697 170.695C168.509 164.598 170.009 167.111 168.259 178.283Z" fill="#4B64EF"/>
<path d="M168.261 178.283C166.448 189.873 158.261 215.801 158.261 215.801C157.461 215.124 149.924 211.158 143.549 207.869L140.024 206.046C145.087 197.264 154.574 181.116 160.698 170.695C168.511 164.598 170.011 167.111 168.261 178.283Z" fill="#263238"/>
<path d="M159.348 210.009C152.367 206.056 145.178 202.471 137.811 199.269C137.724 199.269 137.674 199.367 137.811 199.404C139.599 200.192 151.086 206.474 159.335 210.157C159.373 210.194 159.436 210.059 159.348 210.009Z" fill="#263238"/>
<path d="M168.921 165.237C169.108 166.345 173.983 173.797 179.095 173.859C180.758 173.859 181.27 164.941 181.27 164.941L181.47 164.288L184.145 155.161L173.558 147.524L172.021 146.502C172.021 146.502 171.458 149.052 170.771 152.217C170.771 152.365 170.708 152.513 170.683 152.673C170.658 152.833 170.596 153.018 170.558 153.19C170.458 153.658 170.346 154.151 170.246 154.631C170.146 155.112 170.096 155.358 170.033 155.74C169.971 156.122 169.896 156.504 169.821 156.898C169.326 159.654 169.026 162.44 168.921 165.237Z" fill="#F7A9A0"/>
<path d="M170.783 152.198C171.569 154.853 172.932 157.308 174.778 159.393C176.623 161.477 178.907 163.141 181.47 164.269L184.145 155.142L173.558 147.505L172.021 146.482C172.021 146.482 171.458 149.032 170.783 152.198Z" fill="#263238"/>
<path d="M196.358 139.226C200.283 155.423 190.958 159.722 187.321 160.399C184.071 161.015 173.047 163.319 167.447 147.602C161.847 131.885 168.247 124.962 175.509 122.856C182.771 120.75 192.433 123.016 196.358 139.226Z" fill="#F7A9A0"/>
<path d="M194.696 135.912C194.296 135.912 193.921 135.912 193.521 135.912C193.11 135.947 192.698 135.852 192.346 135.641C192.248 135.552 192.183 135.433 192.163 135.303C192.142 135.173 192.167 135.04 192.234 134.926C192.39 134.715 192.601 134.549 192.846 134.447C193.09 134.345 193.358 134.311 193.621 134.347C194.167 134.332 194.698 134.522 195.108 134.877C195.18 134.965 195.227 135.07 195.244 135.181C195.261 135.293 195.248 135.407 195.207 135.512C195.165 135.617 195.095 135.709 195.006 135.779C194.916 135.85 194.809 135.895 194.696 135.912Z" fill="#263238"/>
<path d="M184.02 138.255C184.39 138.136 184.753 137.996 185.108 137.836C185.512 137.742 185.873 137.516 186.133 137.196C186.193 137.08 186.214 136.947 186.191 136.818C186.168 136.689 186.104 136.571 186.008 136.482C185.788 136.337 185.534 136.251 185.271 136.234C185.008 136.216 184.744 136.268 184.508 136.383C183.984 136.546 183.54 136.892 183.258 137.356C183.202 137.467 183.18 137.592 183.195 137.716C183.21 137.839 183.261 137.955 183.342 138.05C183.422 138.146 183.53 138.216 183.65 138.252C183.77 138.288 183.899 138.29 184.02 138.255Z" fill="#263238"/>
<path d="M187.158 141.895C187.158 141.895 187.083 141.895 187.158 142.005C187.408 143.114 187.508 144.469 186.545 144.986C186.545 144.986 186.545 145.06 186.545 145.048C187.72 144.641 187.57 142.905 187.158 141.895Z" fill="#263238"/>
<path d="M185.922 140.926C184.084 141.123 184.672 144.744 186.347 144.621C188.021 144.498 187.471 140.753 185.922 140.926Z" fill="#263238"/>
<path d="M185.233 141.22C184.946 141.466 184.683 141.873 184.296 141.971C183.908 142.07 183.471 141.75 183.121 141.429H183.058C183.158 142.131 183.533 142.797 184.308 142.797C185.083 142.797 185.408 142.095 185.483 141.38C185.508 141.294 185.346 141.121 185.233 141.22Z" fill="#263238"/>
<path d="M193.182 140.369C193.182 140.369 193.282 140.369 193.282 140.455C193.407 141.576 193.745 142.919 194.832 143.079V143.141C193.545 143.141 193.12 141.453 193.182 140.369Z" fill="#263238"/>
<path d="M194.033 139.052C195.845 138.657 196.533 142.254 194.833 142.624C193.133 142.993 192.508 139.372 194.033 139.052Z" fill="#263238"/>
<path d="M194.834 139.151C195.159 139.287 195.509 139.582 195.859 139.545C196.209 139.508 196.496 139.053 196.671 138.634C196.671 138.634 196.671 138.634 196.746 138.634C196.884 139.311 196.746 140.075 196.146 140.334C195.546 140.592 194.996 140.05 194.696 139.397C194.646 139.373 194.709 139.09 194.834 139.151Z" fill="#263238"/>
<path d="M188.459 150.558C188.759 150.792 189.072 151.137 189.497 151.124C189.938 151.076 190.363 150.938 190.747 150.718C190.747 150.718 190.822 150.718 190.747 150.718C190.608 150.958 190.405 151.155 190.161 151.29C189.916 151.425 189.639 151.491 189.359 151.481C189.121 151.441 188.9 151.334 188.722 151.172C188.545 151.01 188.419 150.801 188.359 150.57C188.359 150.57 188.409 150.521 188.459 150.558Z" fill="#263238"/>
<path d="M192.546 145.755C192.546 145.755 193.059 147.393 193.184 148.219C193.184 148.292 193.009 148.354 192.734 148.416C192.068 148.65 191.349 148.7 190.657 148.558C189.965 148.417 189.325 148.091 188.809 147.615C188.796 147.6 188.789 147.582 188.788 147.562C188.787 147.543 188.793 147.524 188.805 147.509C188.816 147.493 188.833 147.482 188.852 147.476C188.871 147.471 188.891 147.472 188.909 147.48C190.044 148.001 191.318 148.152 192.546 147.911C192.546 147.677 191.571 145.139 191.696 145.102C192.328 145.06 192.963 145.102 193.584 145.225C192.621 141.789 191.084 138.525 190.209 135.101C190.209 134.977 190.359 134.903 190.409 135.014C192.136 138.456 193.514 142.058 194.521 145.767C194.634 146.174 192.884 145.841 192.546 145.755Z" fill="#263238"/>
<path d="M192.57 147.785C192.271 148.522 191.785 149.171 191.158 149.669C190.799 149.939 190.36 150.086 189.908 150.088C188.945 150.088 188.658 149.3 188.658 148.561C188.634 148.148 188.667 147.733 188.758 147.329C189.945 147.884 191.283 148.044 192.57 147.785Z" fill="#263238"/>
<path d="M191.158 149.672C190.799 149.942 190.36 150.089 189.908 150.091C188.946 150.091 188.658 149.302 188.658 148.563C189.141 148.444 189.65 148.489 190.103 148.69C190.557 148.891 190.929 149.237 191.158 149.672Z" fill="#FF9BBC"/>
<path d="M167.721 147.059C169.533 146.702 173.596 141.073 172.483 132.352C172.483 132.352 172.933 140.248 172.483 141.48C172.033 142.711 174.746 138.314 173.958 131.269C176.43 132.539 179.073 133.455 181.808 133.991C185.295 134.446 187.358 134.126 187.558 133.855C187.758 133.584 182.558 132.734 181.033 131.392C181.033 131.392 190.57 134.237 194.782 133.978C195.27 133.978 194.445 124.198 187.483 120.983C180.52 117.769 171.046 123.607 168.733 126.563C168.733 126.563 165.609 127.462 162.809 132.586C160.009 137.711 165.771 147.454 167.721 147.059Z" fill="#263238"/>
<path d="M170.51 147.845C170.51 147.845 166.085 143.226 163.91 144.864C161.735 146.502 165.61 153.486 168.547 154.152C168.917 154.255 169.305 154.284 169.687 154.237C170.069 154.189 170.437 154.066 170.769 153.875C171.102 153.685 171.392 153.43 171.622 153.126C171.853 152.822 172.018 152.475 172.11 152.107L170.51 147.845Z" fill="#F7A9A0"/>
<path d="M75.749 423.264C76.2365 423.03 144.758 389.748 156.095 368.808C176.357 331.363 183.407 283.498 185.957 272.252C191.204 259.296 194.769 245.738 196.569 231.9C196.569 231.9 141.346 231.9 141.346 231.9C141.346 231.9 126.859 259.208 134.334 278.497C135.009 280.271 122.047 340.885 115.71 348.066C108.66 356.035 54.6 382.776 53.6875 383.232L75.749 423.264Z" fill="#37474F"/>
<path d="M170.798 238.824C168.073 252.571 164.973 266.255 161.848 279.915C158.723 293.575 155.436 307.013 151.974 320.476C150.224 327.276 148.424 334.054 146.574 340.812C144.887 346.971 143.237 353.278 138.987 358.242C134.737 363.205 129.312 366.617 124.112 370.165C118.613 373.86 112.963 377.444 107.213 380.807C95.6138 387.606 83.6518 393.777 71.6398 399.825L67.2275 402.03C66.9025 402.19 67.2275 402.67 67.5275 402.51C79.702 396.549 91.8514 390.464 103.626 383.763C109.517 380.421 115.3 376.915 120.975 373.244C123.762 371.433 126.512 369.549 129.237 367.652C131.802 365.896 134.268 364.005 136.624 361.986C138.939 359.983 140.921 357.634 142.499 355.027C144.016 352.319 145.207 349.446 146.049 346.466C148.061 339.926 149.736 333.262 151.474 326.647C155.074 312.975 158.407 299.245 161.473 285.458C164.586 271.675 167.473 257.842 169.985 243.936C170.298 242.249 170.598 240.561 170.923 238.874C170.998 238.75 170.81 238.701 170.798 238.824Z" fill="#263238"/>
<path d="M196.571 231.898C194.772 245.736 191.206 259.293 185.959 272.25C185.697 273.383 185.397 274.886 185.047 276.721C184.959 277.165 184.872 277.621 184.772 278.089C184.672 278.557 184.534 279.32 184.397 280.022C184.259 280.725 184.159 281.254 184.034 281.919L183.772 283.237C183.609 284.112 183.422 285.036 183.234 285.984C183.159 286.366 183.084 286.76 182.997 287.142C182.859 287.869 182.697 288.62 182.547 289.384C181.909 292.463 181.197 295.826 180.397 299.41C180.047 300.925 179.684 302.502 179.297 304.103C178.909 305.704 178.522 307.342 178.047 309.03C177.872 309.744 177.684 310.459 177.497 311.173C176.547 314.868 175.485 318.798 174.322 322.752C174.072 323.626 173.81 324.501 173.547 325.387C172.364 329.288 171.081 333.246 169.697 337.261C169.347 338.259 168.985 339.257 168.635 340.267C167.91 342.262 167.156 344.266 166.372 346.278L145.923 231.898C159.26 231.874 196.584 231.874 196.571 231.898Z" fill="#263238"/>
<path d="M34.6782 392.927C32.1783 394.159 29.8034 395.489 27.4785 396.746L23.2537 399.049C14.5041 403.853 7.90439 407.77 7.81689 408.78C7.5294 411.859 39.128 473.064 40.9529 474.85C42.7778 476.636 48.0151 471.598 48.74 468.248C49.1525 466.216 48.74 454.785 48.4151 446.138C48.1651 440.583 47.9526 436.174 47.9526 436.174L55.3272 432.7L88.9632 416.921L67.7142 376.04C67.7142 376.04 50.615 384.49 34.6782 392.927Z" fill="white"/>
<path d="M81.275 423.769C80.425 422.635 58.1135 379.204 58.1135 379.204C58.1135 379.204 8.46577 404.578 7.19083 408.458C5.91588 412.338 40.3143 476.278 41.7643 476.93C43.2142 477.583 48.9139 473.235 50.5889 466.621C51.8388 461.817 50.2514 437.995 50.2514 437.995L81.275 423.769Z" fill="#4B64EF"/>
<path d="M53.2653 439.729C53.1528 435.122 51.3029 429.875 47.3655 427.128C47.2156 427.03 47.0656 427.239 47.1406 427.374C49.4372 431.319 51.3018 435.494 52.7028 439.827C52.7229 439.894 52.7673 439.951 52.8274 439.988C52.8875 440.024 52.9591 440.038 53.0287 440.025C53.0982 440.013 53.1608 439.976 53.2044 439.922C53.248 439.867 53.2697 439.798 53.2653 439.729Z" fill="#455A64"/>
<path d="M56.6635 438.02C56.551 433.413 54.6886 428.166 50.7513 425.419C50.6013 425.321 50.4513 425.53 50.5263 425.665C52.8331 429.605 54.6982 433.781 56.0885 438.118C56.1152 438.179 56.162 438.23 56.2213 438.261C56.2806 438.293 56.349 438.304 56.4155 438.293C56.482 438.281 56.5426 438.248 56.5876 438.199C56.6326 438.149 56.6593 438.086 56.6635 438.02Z" fill="#455A64"/>
<path d="M60.0519 436.31C59.9394 431.703 58.077 426.456 54.1522 423.709C54.0022 423.611 53.8522 423.82 53.9272 423.955C56.2249 427.898 58.0855 432.073 59.4769 436.408C59.5036 436.469 59.5504 436.52 59.6097 436.551C59.669 436.583 59.7374 436.594 59.8039 436.583C59.8703 436.571 59.931 436.538 59.976 436.489C60.021 436.439 60.0477 436.376 60.0519 436.31Z" fill="#455A64"/>
<path d="M63.4496 434.596C63.3247 429.989 61.4747 424.742 57.5374 421.995C57.3874 421.884 57.2374 422.106 57.3124 422.241C59.6091 426.186 61.4736 430.361 62.8747 434.694C62.9013 434.755 62.9481 434.806 63.0074 434.837C63.0668 434.869 63.1352 434.88 63.2016 434.869C63.2681 434.857 63.3287 434.824 63.3737 434.774C63.4187 434.725 63.4455 434.662 63.4496 434.596Z" fill="#455A64"/>
<path d="M66.839 432.886C66.7265 428.279 64.8641 423.032 60.9393 420.285C60.7768 420.174 60.6268 420.396 60.7143 420.531C63.012 424.474 64.8726 428.649 66.264 432.984C66.2907 433.045 66.3375 433.096 66.3968 433.127C66.4561 433.159 66.5245 433.17 66.591 433.159C66.6575 433.147 66.7181 433.114 66.7631 433.065C66.8081 433.015 66.8348 432.952 66.839 432.886Z" fill="#455A64"/>
<path d="M163.659 280.594C163.659 280.594 168.384 324.739 170.584 346.96C171.146 352.49 171.521 356.678 171.659 358.464C171.659 359.179 171.734 370.708 171.759 385.797C171.759 399.026 171.759 414.964 171.759 428.698V438.552C171.759 451.214 171.759 460.231 171.759 460.231H217.294C217.294 460.231 217.294 459.812 217.294 458.999C217.294 458.58 217.294 458.063 217.294 457.447C217.294 456.831 217.294 456.092 217.294 455.255C217.294 454.774 217.294 454.245 217.294 453.703C217.294 449.921 217.432 444.686 217.519 438.589C217.519 435.46 217.607 432.122 217.657 428.624C218.007 401.452 218.294 364.956 217.507 354.203C217.407 352.971 217.319 351.677 217.232 350.36C215.182 319.923 214.044 275.617 198.895 231.829H141.272C141.272 231.829 141.772 257.548 153.647 276.172C157.065 277.461 160.408 278.937 163.659 280.594Z" fill="#37474F"/>
<path d="M206.533 368.105C206.308 353.915 205.721 339.775 204.596 325.585C203.471 311.395 201.746 297.649 199.446 283.78C197.242 269.825 194.174 256.016 190.259 242.43C189.759 240.73 189.246 239.031 188.721 237.343C188.715 237.32 188.704 237.298 188.688 237.278C188.673 237.259 188.654 237.243 188.633 237.231C188.611 237.219 188.588 237.211 188.563 237.208C188.539 237.205 188.514 237.207 188.49 237.214C188.466 237.22 188.444 237.231 188.425 237.246C188.405 237.261 188.389 237.28 188.377 237.301C188.364 237.322 188.357 237.345 188.353 237.369C188.35 237.394 188.352 237.418 188.359 237.442C192.046 250.991 195.221 264.749 197.633 278.631C200.046 292.513 201.633 306.641 202.833 320.732C204.033 334.823 204.708 349.062 205.071 363.215C205.433 377.367 205.458 391.545 205.321 405.697C205.183 419.85 204.621 434.027 204.583 448.143C204.583 449.917 204.583 451.691 204.583 453.464C204.583 453.587 204.771 453.575 204.771 453.464C205.033 446.369 205.458 439.275 205.696 432.167C205.933 425.06 206.146 417.941 206.321 410.821C206.595 396.582 206.758 382.344 206.533 368.105Z" fill="#263238"/>
<path d="M171.371 284.091C168.534 282.564 165.621 281.184 162.622 279.928C159.622 278.671 156.584 277.538 153.622 276.232C153.509 276.232 153.409 276.343 153.522 276.405C156.447 277.883 159.309 279.472 162.272 280.876C165.174 282.254 168.168 283.435 171.234 284.411C171.446 284.473 171.546 284.177 171.371 284.091Z" fill="#263238"/>
<path d="M171.869 465.399C171.869 468.133 171.969 470.843 172.044 473.454C172.044 475.08 172.144 476.669 172.194 478.196C172.532 488.05 173.082 495.638 173.944 496.18C176.594 497.83 246.278 498.04 248.716 497.251C251.153 496.463 249.016 489.553 246.316 487.398C244.679 486.104 234.192 481.239 226.217 477.605C221.092 475.277 217.005 473.467 217.005 473.467L217.23 465.411L218.317 428.705H171.669C171.669 428.705 171.569 447.588 171.869 465.399Z" fill="white"/>
<path d="M220.981 438.584C219.569 438.818 170.171 438.584 170.171 438.584C170.171 438.584 170.446 493.692 173.371 496.574C176.296 499.457 249.73 498.459 250.967 497.498C252.205 496.537 250.88 489.529 245.68 485.045C241.93 481.793 219.681 472.297 219.681 472.297L220.981 438.584Z" fill="#4B64EF"/>
<path d="M222.63 470.438C218.417 468.43 212.805 467.654 208.555 469.871C208.393 469.958 208.555 470.179 208.668 470.179C213.267 469.962 217.876 470.23 222.417 470.98C222.49 471.008 222.571 471.006 222.643 470.975C222.714 470.943 222.77 470.886 222.799 470.814C222.827 470.742 222.825 470.662 222.793 470.591C222.761 470.521 222.703 470.466 222.63 470.438Z" fill="#455A64"/>
<path d="M222.63 466.682C218.417 464.674 212.805 463.898 208.555 466.116C208.393 466.202 208.555 466.423 208.668 466.423C213.267 466.206 217.876 466.474 222.417 467.224C222.49 467.252 222.571 467.25 222.643 467.219C222.714 467.188 222.77 467.13 222.799 467.058C222.827 466.986 222.825 466.906 222.793 466.836C222.761 466.765 222.703 466.71 222.63 466.682Z" fill="#455A64"/>
<path d="M222.63 462.927C218.417 460.92 212.805 460.144 208.555 462.361C208.393 462.447 208.555 462.669 208.668 462.669C213.267 462.451 217.876 462.72 222.417 463.469C222.49 463.497 222.571 463.495 222.643 463.464C222.714 463.433 222.77 463.375 222.799 463.303C222.827 463.231 222.825 463.151 222.793 463.081C222.761 463.01 222.703 462.955 222.63 462.927Z" fill="#455A64"/>
<path d="M222.63 459.171C218.417 457.164 212.805 456.388 208.555 458.605C208.393 458.691 208.555 458.913 208.668 458.913C213.267 458.695 217.876 458.964 222.417 459.713C222.49 459.741 222.571 459.739 222.643 459.708C222.714 459.677 222.77 459.619 222.799 459.547C222.827 459.475 222.825 459.395 222.793 459.325C222.761 459.254 222.703 459.199 222.63 459.171Z" fill="#455A64"/>
<path d="M222.63 455.411C218.417 453.403 212.805 452.627 208.555 454.844C208.393 454.93 208.555 455.152 208.668 455.152C213.267 454.935 217.876 455.203 222.417 455.953C222.49 455.98 222.571 455.978 222.643 455.947C222.714 455.916 222.77 455.858 222.799 455.786C222.827 455.715 222.825 455.635 222.793 455.564C222.761 455.494 222.703 455.438 222.63 455.411Z" fill="#455A64"/>
<path d="M200.406 216.739L205.493 251.227C205.493 251.227 145.208 252.053 131.046 251.08C131.046 251.08 145.846 186.598 161.045 170.314C168.67 162.16 177.607 162.776 183.307 168.467C184.744 169.908 201.943 192.313 203.756 200.874C205.368 208.424 200.406 216.739 200.406 216.739Z" fill="#4B64EF"/>
<path d="M173.083 179.751C181.633 180.982 231.73 178.063 240.58 167.815C251.329 155.411 264.329 131.06 267.616 123.251C269.766 118.065 244.892 104.774 243.492 109.701C241.305 117.412 221.956 146.543 220.456 149.117C218.956 151.691 196.707 159.23 183.745 165.61C172.121 171.325 167.058 178.851 173.083 179.751Z" fill="#F7A9A0"/>
<path d="M243.206 110.808C243.206 110.808 246.03 100.56 248.205 93.9458C249.455 90.2506 252.068 84.0919 254.218 81.8132C257.43 78.352 273.092 65.9237 276.229 69.6066C279.079 72.9323 264.242 81.924 264.242 81.924C264.242 81.924 278.404 71.5405 281.066 76.1718C283.729 80.8032 265.605 88.7725 265.605 88.7725C265.605 88.7725 280.404 78.4259 282.391 83.6362C283.891 87.5654 267.879 95.6949 267.879 95.6949C267.879 95.6949 280.654 86.8879 282.379 90.8665C284.291 95.2638 269.979 103.677 269.979 103.677C272.642 114.528 269.404 120.761 266.567 124.924C265.867 125.922 243.206 110.808 243.206 110.808Z" fill="#F7A9A0"/>
<path d="M259.091 85.1753C260.716 83.9436 262.341 82.5887 264.091 81.4801C265.841 80.3716 267.591 79.2753 269.416 78.3022C271.787 76.9879 274.303 75.9464 276.916 75.1982C272.546 77.0666 268.362 79.3304 264.416 81.9605C262.691 83.0814 260.916 84.1284 259.191 85.2616C259.091 85.2985 259.054 85.2369 259.091 85.1753Z" fill="#263238"/>
<path d="M263.129 91.4357C265.266 89.8837 267.329 88.2824 269.541 86.8289C271.753 85.3755 273.953 84.2053 276.241 82.912C276.428 82.8135 276.416 82.912 276.241 83.0475C274.003 84.427 272.041 85.8682 269.828 87.2724C267.616 88.6765 265.329 90.0068 263.166 91.4849C263.129 91.5096 263.104 91.4603 263.129 91.4357Z" fill="#263238"/>
<path d="M265.618 97.3828C268.844 94.9374 272.316 92.8242 275.98 91.0763C276.155 90.9901 276.13 91.1502 275.98 91.2611C272.492 93.2934 269.73 94.8577 265.73 97.4937C265.643 97.4937 265.505 97.4937 265.618 97.3828Z" fill="#263238"/>
<path d="M207.919 151.84L220.094 177.793C220.094 177.793 189.945 185.75 175.496 183.84C165.059 182.461 165.409 174.282 179.796 165.845C191.158 159.181 207.919 151.84 207.919 151.84Z" fill="#4B64EF"/>
<path d="M214.557 178.037C211.393 170.006 207.792 162.148 203.77 154.498C203.77 154.4 203.583 154.498 203.633 154.572C204.607 156.432 209.97 169.464 214.395 178.111C214.445 178.209 214.595 178.136 214.557 178.037Z" fill="#263238"/>
<path d="M194.433 183.013C189.708 183.69 185.195 185.476 180.683 186.905C180.662 186.916 180.645 186.934 180.636 186.955C180.627 186.977 180.626 187.001 180.634 187.024C180.642 187.046 180.657 187.065 180.677 187.077C180.698 187.089 180.722 187.094 180.746 187.09C182.483 186.597 184.258 186.154 186.033 185.698C185.22 186.178 184.433 186.696 183.621 187.164C183.508 187.164 183.621 187.385 183.721 187.324C184.97 186.622 186.22 186.092 187.47 185.316C189.845 184.728 192.178 183.992 194.458 183.111C194.458 183.111 194.508 183 194.433 183.013Z" fill="#263238"/>
</svg>
