<svg width="185" height="38" viewBox="0 0 185 38" fill="none" xmlns="http://www.w3.org/2000/svg">
<g clip-path="url(#clip0_1488_26034)">
<path d="M51.0747 13.1446V22.8765H52.3198V19.4033H54.8306C56.7051 19.4033 58.04 18.1151 58.04 16.2942C58.04 14.4395 56.7327 13.1446 54.8444 13.1446H51.0747ZM52.3198 14.2237H54.5193C55.9649 14.2237 56.7604 14.9588 56.7604 16.2942C56.7604 17.5823 55.9373 18.3242 54.5193 18.3242H52.3198V14.2237ZM62.5017 23.0046C64.6251 23.0046 65.9394 21.5749 65.9394 19.2414C65.9394 16.9011 64.6251 15.4781 62.5017 15.4781C60.3781 15.4781 59.064 16.9011 59.064 19.2414C59.064 21.5749 60.3781 23.0046 62.5017 23.0046ZM62.5017 21.9593C61.0906 21.9593 60.2952 20.9611 60.2952 19.2414C60.2952 17.5149 61.0906 16.5234 62.5017 16.5234C63.9127 16.5234 64.7082 17.5149 64.7082 19.2414C64.7082 20.9611 63.9127 21.9593 62.5017 21.9593ZM76.6262 15.6062H75.4295L73.9632 21.4198H73.8525L72.1856 15.6062H71.0442L69.3773 21.4198H69.2666L67.8003 15.6062H66.5967L68.6856 22.8765H69.8891L71.5492 17.2519H71.6598L73.3268 22.8765H74.5373L76.6262 15.6062ZM80.6314 16.5032C81.8141 16.5032 82.6026 17.353 82.6303 18.6412H78.5216C78.6116 17.353 79.4416 16.5032 80.6314 16.5032ZM82.5957 20.9949C82.2844 21.6356 81.6343 21.9795 80.6728 21.9795C79.407 21.9795 78.584 21.069 78.5216 19.6326V19.5786H83.8822V19.1335C83.8822 16.8742 82.6579 15.4781 80.6452 15.4781C78.5978 15.4781 77.2835 16.9618 77.2835 19.2481C77.2835 21.5479 78.577 23.0046 80.6452 23.0046C82.2775 23.0046 83.4395 22.2358 83.7854 20.9949H82.5957ZM85.4665 22.8765H86.656V18.3713C86.656 17.3463 87.4793 16.6044 88.6135 16.6044C88.849 16.6044 89.2775 16.6448 89.3749 16.6718V15.5119C89.2226 15.4916 88.9729 15.4781 88.7799 15.4781C87.791 15.4781 86.9331 15.9772 86.7117 16.6853H86.6011V15.6062H85.4665V22.8765ZM93.3448 16.5032C94.5277 16.5032 95.3165 17.353 95.344 18.6412H91.235C91.3253 17.353 92.1558 16.5032 93.3448 16.5032ZM95.3095 20.9949C94.9978 21.6356 94.348 21.9795 93.3865 21.9795C92.1204 21.9795 91.2979 21.069 91.235 19.6326V19.5786H96.5959V19.1335C96.5959 16.8742 95.3714 15.4781 93.359 15.4781C91.3112 15.4781 89.9973 16.9618 89.9973 19.2481C89.9973 21.5479 91.2908 23.0046 93.359 23.0046C94.9916 23.0046 96.1532 22.2358 96.4994 20.9949H95.3095ZM100.94 23.0046C101.971 23.0046 102.856 22.5259 103.326 21.7165H103.437V22.8765H104.571V12.7197H103.382V16.7527H103.278C102.856 15.957 101.978 15.4781 100.94 15.4781C99.0448 15.4781 97.8071 16.9618 97.8071 19.2414C97.8071 21.5277 99.0306 23.0046 100.94 23.0046ZM101.217 16.5234C102.566 16.5234 103.41 17.5756 103.41 19.2414C103.41 20.9207 102.572 21.9593 101.217 21.9593C99.854 21.9593 99.0377 20.9409 99.0377 19.2414C99.0377 17.5486 99.8611 16.5234 101.217 16.5234ZM114.021 23.0046C115.909 23.0046 117.147 21.5142 117.147 19.2414C117.147 16.9551 115.915 15.4781 114.021 15.4781C112.997 15.4781 112.091 15.9704 111.682 16.7527H111.572V12.7197H110.382V22.8765H111.517V21.7165H111.628C112.098 22.5259 112.983 23.0046 114.021 23.0046ZM113.744 16.5234C115.106 16.5234 115.915 17.5418 115.915 19.2414C115.915 20.9409 115.106 21.9593 113.744 21.9593C112.388 21.9593 111.544 20.9207 111.544 19.2414C111.544 17.5621 112.388 16.5234 113.744 16.5234ZM119.091 25.5068C120.412 25.5068 121.007 25.0077 121.643 23.3216L124.556 15.6062H123.289L121.249 21.5884H121.138L119.091 15.6062H117.805L120.564 22.8832L120.425 23.3149C120.115 24.1916 119.741 24.5086 119.057 24.5086C118.89 24.5086 118.703 24.5019 118.558 24.4749V25.4663C118.725 25.4932 118.932 25.5068 119.091 25.5068ZM134.488 22.8765L137.939 13.1446H136.038L133.547 20.8465H133.43L130.919 13.1446H128.948L132.434 22.8765H134.488ZM141.585 16.6786C142.616 16.6786 143.294 17.38 143.329 18.4725H139.766C139.842 17.3934 140.562 16.6786 141.585 16.6786ZM143.342 20.8465C143.093 21.3927 142.505 21.6963 141.654 21.6963C140.527 21.6963 139.801 20.9274 139.759 19.7V19.6124H145.044V19.0728C145.044 16.746 143.75 15.3499 141.592 15.3499C139.399 15.3499 138.037 16.8404 138.037 19.2144C138.037 21.5884 139.379 23.0249 141.606 23.0249C143.391 23.0249 144.657 22.1886 144.967 20.8465H143.342ZM146.482 22.8765H148.198V18.6142C148.198 17.5823 148.973 16.9079 150.087 16.9079C150.377 16.9079 150.833 16.9551 150.965 17.0023V15.4511C150.806 15.404 150.501 15.3769 150.252 15.3769C149.277 15.3769 148.461 15.9165 148.253 16.6448H148.136V15.4983H146.482V22.8765ZM158.436 17.9802C158.256 16.429 157.079 15.3499 155.136 15.3499C152.86 15.3499 151.525 16.773 151.525 19.1672C151.525 21.5951 152.868 23.0249 155.143 23.0249C157.059 23.0249 158.249 21.9863 158.436 20.4419H156.803C156.623 21.2107 156.028 21.6221 155.136 21.6221C153.967 21.6221 153.262 20.7184 153.262 19.1672C153.262 17.6363 153.96 16.7527 155.136 16.7527C156.077 16.7527 156.644 17.2653 156.803 17.9802H158.436ZM162.966 16.6786C163.996 16.6786 164.675 17.38 164.709 18.4725H161.147C161.223 17.3934 161.942 16.6786 162.966 16.6786ZM164.723 20.8465C164.474 21.3927 163.886 21.6963 163.035 21.6963C161.908 21.6963 161.182 20.9274 161.14 19.7V19.6124H166.424V19.0728C166.424 16.746 165.131 15.3499 162.973 15.3499C160.78 15.3499 159.417 16.8404 159.417 19.2144C159.417 21.5884 160.76 23.0249 162.987 23.0249C164.771 23.0249 166.037 22.1886 166.348 20.8465H164.723ZM167.933 22.8765H169.648V12.6455H167.933V22.8765Z" fill="#393939"/>
<path d="M20.0497 12.0859L28.0995 25.8981H12L20.0497 12.0859Z" fill="#393939"/>
<path d="M37.0996 0V37.9834" stroke="#393939" stroke-width="0.86326"/>
</g>
<defs>
<clipPath id="clip0_1488_26034">
<rect width="160.25" height="37.9834" fill="white" transform="translate(12)"/>
</clipPath>
</defs>
</svg>
