<svg width="185" height="38" viewBox="0 0 185 38" fill="none" xmlns="http://www.w3.org/2000/svg">
<g clip-path="url(#clip0_1615_27223)">
<path d="M51.0747 13.1437V22.8755H52.3198V19.4023H54.8306C56.7051 19.4023 58.04 18.1141 58.04 16.2932C58.04 14.4386 56.7327 13.1437 54.8444 13.1437H51.0747ZM52.3198 14.2227H54.5193C55.9649 14.2227 56.7604 14.9578 56.7604 16.2932C56.7604 17.5813 55.9373 18.3232 54.5193 18.3232H52.3198V14.2227ZM62.5017 23.0036C64.6251 23.0036 65.9394 21.5739 65.9394 19.2404C65.9394 16.9001 64.6251 15.4771 62.5017 15.4771C60.3781 15.4771 59.064 16.9001 59.064 19.2404C59.064 21.5739 60.3781 23.0036 62.5017 23.0036ZM62.5017 21.9583C61.0906 21.9583 60.2952 20.9601 60.2952 19.2404C60.2952 17.5139 61.0906 16.5225 62.5017 16.5225C63.9127 16.5225 64.7082 17.5139 64.7082 19.2404C64.7082 20.9601 63.9127 21.9583 62.5017 21.9583ZM76.6262 15.6053H75.4295L73.9632 21.4188H73.8525L72.1856 15.6053H71.0442L69.3773 21.4188H69.2666L67.8003 15.6053H66.5967L68.6856 22.8755H69.8891L71.5492 17.2509H71.6598L73.3268 22.8755H74.5373L76.6262 15.6053ZM80.6314 16.5023C81.8141 16.5023 82.6026 17.3521 82.6303 18.6402H78.5216C78.6116 17.3521 79.4416 16.5023 80.6314 16.5023ZM82.5957 20.9939C82.2844 21.6346 81.6343 21.9785 80.6728 21.9785C79.407 21.9785 78.584 21.068 78.5216 19.6316V19.5776H83.8822V19.1325C83.8822 16.8732 82.6579 15.4771 80.6452 15.4771C78.5978 15.4771 77.2835 16.9608 77.2835 19.2472C77.2835 21.5469 78.577 23.0036 80.6452 23.0036C82.2775 23.0036 83.4395 22.2348 83.7854 20.9939H82.5957ZM85.4665 22.8755H86.656V18.3704C86.656 17.3453 87.4793 16.6034 88.6135 16.6034C88.849 16.6034 89.2775 16.6438 89.3749 16.6709V15.5109C89.2226 15.4906 88.9729 15.4771 88.7799 15.4771C87.791 15.4771 86.9331 15.9762 86.7117 16.6843H86.6011V15.6053H85.4665V22.8755ZM93.3448 16.5023C94.5277 16.5023 95.3165 17.3521 95.344 18.6402H91.235C91.3253 17.3521 92.1558 16.5023 93.3448 16.5023ZM95.3095 20.9939C94.9978 21.6346 94.348 21.9785 93.3865 21.9785C92.1204 21.9785 91.2979 21.068 91.235 19.6316V19.5776H96.5959V19.1325C96.5959 16.8732 95.3714 15.4771 93.359 15.4771C91.3112 15.4771 89.9973 16.9608 89.9973 19.2472C89.9973 21.5469 91.2908 23.0036 93.359 23.0036C94.9916 23.0036 96.1532 22.2348 96.4994 20.9939H95.3095ZM100.94 23.0036C101.971 23.0036 102.856 22.5249 103.326 21.7155H103.437V22.8755H104.571V12.7188H103.382V16.7517H103.278C102.856 15.956 101.978 15.4771 100.94 15.4771C99.0448 15.4771 97.8071 16.9608 97.8071 19.2404C97.8071 21.5267 99.0306 23.0036 100.94 23.0036ZM101.217 16.5225C102.566 16.5225 103.41 17.5746 103.41 19.2404C103.41 20.9197 102.572 21.9583 101.217 21.9583C99.854 21.9583 99.0377 20.9399 99.0377 19.2404C99.0377 17.5476 99.8611 16.5225 101.217 16.5225ZM114.021 23.0036C115.909 23.0036 117.147 21.5132 117.147 19.2404C117.147 16.9541 115.915 15.4771 114.021 15.4771C112.997 15.4771 112.091 15.9695 111.682 16.7517H111.572V12.7188H110.382V22.8755H111.517V21.7155H111.628C112.098 22.5249 112.983 23.0036 114.021 23.0036ZM113.744 16.5225C115.106 16.5225 115.915 17.5409 115.915 19.2404C115.915 20.9399 115.106 21.9583 113.744 21.9583C112.388 21.9583 111.544 20.9197 111.544 19.2404C111.544 17.5611 112.388 16.5225 113.744 16.5225ZM119.091 25.5058C120.412 25.5058 121.007 25.0068 121.643 23.3206L124.556 15.6053H123.289L121.249 21.5874H121.138L119.091 15.6053H117.805L120.564 22.8823L120.425 23.3139C120.115 24.1906 119.741 24.5076 119.057 24.5076C118.89 24.5076 118.703 24.5009 118.558 24.474V25.4653C118.725 25.4923 118.932 25.5058 119.091 25.5058ZM134.488 22.8755L137.939 13.1437H136.038L133.547 20.8455H133.43L130.919 13.1437H128.948L132.434 22.8755H134.488ZM141.585 16.6776C142.616 16.6776 143.294 17.379 143.329 18.4715H139.766C139.842 17.3925 140.562 16.6776 141.585 16.6776ZM143.342 20.8455C143.093 21.3918 142.505 21.6953 141.654 21.6953C140.527 21.6953 139.801 20.9265 139.759 19.699V19.6114H145.044V19.0718C145.044 16.745 143.75 15.349 141.592 15.349C139.399 15.349 138.037 16.8395 138.037 19.2134C138.037 21.5874 139.379 23.0239 141.606 23.0239C143.391 23.0239 144.657 22.1876 144.967 20.8455H143.342ZM146.482 22.8755H148.198V18.6132C148.198 17.5813 148.973 16.9069 150.087 16.9069C150.377 16.9069 150.833 16.9541 150.965 17.0013V15.4501C150.806 15.403 150.501 15.376 150.252 15.376C149.277 15.376 148.461 15.9155 148.253 16.6438H148.136V15.4973H146.482V22.8755ZM158.436 17.9792C158.256 16.428 157.079 15.349 155.136 15.349C152.86 15.349 151.525 16.772 151.525 19.1662C151.525 21.5941 152.868 23.0239 155.143 23.0239C157.059 23.0239 158.249 21.9853 158.436 20.4409H156.803C156.623 21.2097 156.028 21.6211 155.136 21.6211C153.967 21.6211 153.262 20.7174 153.262 19.1662C153.262 17.6353 153.96 16.7517 155.136 16.7517C156.077 16.7517 156.644 17.2644 156.803 17.9792H158.436ZM162.966 16.6776C163.996 16.6776 164.675 17.379 164.709 18.4715H161.147C161.223 17.3925 161.942 16.6776 162.966 16.6776ZM164.723 20.8455C164.474 21.3918 163.886 21.6953 163.035 21.6953C161.908 21.6953 161.182 20.9265 161.14 19.699V19.6114H166.424V19.0718C166.424 16.745 165.131 15.349 162.973 15.349C160.78 15.349 159.417 16.8395 159.417 19.2134C159.417 21.5874 160.76 23.0239 162.987 23.0239C164.771 23.0239 166.037 22.1876 166.348 20.8455H164.723ZM167.933 22.8755H169.648V12.6445H167.933V22.8755Z" fill="#393939"/>
<path d="M20.0497 12.0859L28.0995 25.8981H12L20.0497 12.0859Z" fill="#393939"/>
<path d="M37.0996 0V37.9834" stroke="#393939" stroke-width="0.86326"/>
</g>
<defs>
<clipPath id="clip0_1615_27223">
<rect width="160.25" height="37.9834" fill="white" transform="translate(12)"/>
</clipPath>
</defs>
</svg>
